{
	"patcher" : 	{
		"fileversion" : 1,
		"rect" : [ 1441.0, 38.0, 640.0, 506.0 ],
		"bglocked" : 0,
		"defrect" : [ 1441.0, 38.0, 640.0, 506.0 ],
		"openrect" : [ 0.0, 0.0, 0.0, 0.0 ],
		"openinpresentation" : 0,
		"default_fontsize" : 12.0,
		"default_fontface" : 0,
		"default_fontname" : "Arial",
		"gridonopen" : 0,
		"gridsize" : [ 15.0, 15.0 ],
		"gridsnaponopen" : 0,
		"toolbarvisible" : 1,
		"boxanimatetime" : 200,
		"imprint" : 0,
		"metadata" : [  ],
		"boxes" : [ 			{
				"box" : 				{
					"maxclass" : "comment",
					"text" : "files in the subfolder",
					"fontsize" : 9.0,
					"numinlets" : 1,
					"numoutlets" : 0,
					"id" : "obj-1",
					"fontname" : "Arial",
					"patching_rect" : [ 165.0, 241.0, 103.0, 17.0 ]
				}

			}
, 			{
				"box" : 				{
					"maxclass" : "newobj",
					"text" : "p DeterminePaths",
					"fontsize" : 9.0,
					"numinlets" : 0,
					"numoutlets" : 1,
					"id" : "obj-2",
					"fontname" : "Arial",
					"outlettype" : [ "" ],
					"patching_rect" : [ 71.0, 238.0, 89.0, 17.0 ],
					"patcher" : 					{
						"fileversion" : 1,
						"rect" : [ 1498.0, 334.0, 558.0, 540.0 ],
						"bglocked" : 0,
						"defrect" : [ 1498.0, 334.0, 558.0, 540.0 ],
						"openrect" : [ 0.0, 0.0, 0.0, 0.0 ],
						"openinpresentation" : 0,
						"default_fontsize" : 12.0,
						"default_fontface" : 0,
						"default_fontname" : "Arial",
						"gridonopen" : 0,
						"gridsize" : [ 15.0, 15.0 ],
						"gridsnaponopen" : 0,
						"toolbarvisible" : 1,
						"boxanimatetime" : 200,
						"imprint" : 0,
						"metadata" : [  ],
						"boxes" : [ 							{
								"box" : 								{
									"maxclass" : "newobj",
									"text" : "value subdirPath \\\"MyHD:/\\\"",
									"fontsize" : 9.0,
									"numinlets" : 1,
									"numoutlets" : 1,
									"id" : "obj-1",
									"fontname" : "Arial",
									"outlettype" : [ "" ],
									"patching_rect" : [ 175.0, 275.0, 134.0, 17.0 ]
								}

							}
, 							{
								"box" : 								{
									"maxclass" : "newobj",
									"text" : "r appPath",
									"fontsize" : 9.0,
									"numinlets" : 0,
									"numoutlets" : 1,
									"id" : "obj-2",
									"fontname" : "Arial",
									"outlettype" : [ "" ],
									"patching_rect" : [ 35.0, 129.0, 58.0, 17.0 ]
								}

							}
, 							{
								"box" : 								{
									"maxclass" : "newobj",
									"text" : "sprintf symout %sAPPNAME.app/Contents/MacOS/",
									"linecount" : 2,
									"fontsize" : 9.0,
									"numinlets" : 1,
									"numoutlets" : 1,
									"id" : "obj-3",
									"fontname" : "Arial",
									"outlettype" : [ "" ],
									"patching_rect" : [ 72.0, 155.0, 179.0, 27.0 ]
								}

							}
, 							{
								"box" : 								{
									"maxclass" : "newobj",
									"text" : "s subdirPath",
									"fontsize" : 9.0,
									"numinlets" : 1,
									"numoutlets" : 0,
									"id" : "obj-4",
									"fontname" : "Arial",
									"patching_rect" : [ 101.0, 278.0, 66.0, 17.0 ]
								}

							}
, 							{
								"box" : 								{
									"maxclass" : "message",
									"text" : "count",
									"fontsize" : 9.0,
									"numinlets" : 2,
									"numoutlets" : 1,
									"id" : "obj-5",
									"fontname" : "Arial",
									"outlettype" : [ "" ],
									"patching_rect" : [ 16.0, 375.0, 33.0, 15.0 ]
								}

							}
, 							{
								"box" : 								{
									"maxclass" : "newobj",
									"text" : "sprintf symout %ssubdirectory",
									"fontsize" : 9.0,
									"numinlets" : 1,
									"numoutlets" : 1,
									"id" : "obj-6",
									"fontname" : "Arial",
									"outlettype" : [ "" ],
									"patching_rect" : [ 90.0, 241.0, 207.0, 17.0 ]
								}

							}
, 							{
								"box" : 								{
									"maxclass" : "message",
									"text" : "autopopulate 1",
									"fontsize" : 9.0,
									"numinlets" : 2,
									"numoutlets" : 1,
									"id" : "obj-7",
									"fontname" : "Arial",
									"outlettype" : [ "" ],
									"patching_rect" : [ 57.0, 375.0, 75.0, 15.0 ]
								}

							}
, 							{
								"box" : 								{
									"maxclass" : "newobj",
									"text" : "t b l",
									"fontsize" : 9.0,
									"numinlets" : 1,
									"numoutlets" : 2,
									"id" : "obj-8",
									"fontname" : "Arial",
									"outlettype" : [ "bang", "" ],
									"patching_rect" : [ 71.0, 329.0, 104.0, 17.0 ]
								}

							}
, 							{
								"box" : 								{
									"maxclass" : "newobj",
									"text" : "t b l",
									"fontsize" : 9.0,
									"numinlets" : 1,
									"numoutlets" : 2,
									"id" : "obj-9",
									"fontname" : "Arial",
									"outlettype" : [ "bang", "" ],
									"patching_rect" : [ 273.0, 367.0, 50.0, 17.0 ]
								}

							}
, 							{
								"box" : 								{
									"maxclass" : "newobj",
									"text" : "s filepathsSet",
									"fontsize" : 9.0,
									"numinlets" : 1,
									"numoutlets" : 0,
									"id" : "obj-10",
									"fontname" : "Arial",
									"patching_rect" : [ 311.0, 432.0, 72.0, 17.0 ]
								}

							}
, 							{
								"box" : 								{
									"maxclass" : "newobj",
									"text" : "prepend append",
									"fontsize" : 9.0,
									"numinlets" : 1,
									"numoutlets" : 1,
									"id" : "obj-11",
									"fontname" : "Arial",
									"outlettype" : [ "" ],
									"patching_rect" : [ 348.0, 340.0, 78.0, 17.0 ]
								}

							}
, 							{
								"box" : 								{
									"maxclass" : "newobj",
									"text" : "tosymbol",
									"fontsize" : 9.0,
									"numinlets" : 1,
									"numoutlets" : 1,
									"id" : "obj-12",
									"fontname" : "Arial",
									"outlettype" : [ "" ],
									"patching_rect" : [ 90.0, 215.0, 58.0, 17.0 ]
								}

							}
, 							{
								"box" : 								{
									"maxclass" : "newobj",
									"text" : "filepath search 0",
									"fontsize" : 9.0,
									"numinlets" : 1,
									"numoutlets" : 1,
									"id" : "obj-13",
									"fontname" : "Arial",
									"outlettype" : [ "" ],
									"patching_rect" : [ 313.0, 393.0, 86.0, 17.0 ]
								}

							}
, 							{
								"box" : 								{
									"maxclass" : "outlet",
									"numinlets" : 1,
									"numoutlets" : 0,
									"id" : "obj-14",
									"patching_rect" : [ 165.0, 426.0, 15.0, 15.0 ],
									"comment" : ""
								}

							}
, 							{
								"box" : 								{
									"maxclass" : "newobj",
									"text" : "prepend prefix",
									"fontsize" : 9.0,
									"numinlets" : 1,
									"numoutlets" : 1,
									"id" : "obj-15",
									"fontname" : "Arial",
									"outlettype" : [ "" ],
									"patching_rect" : [ 90.0, 301.0, 78.0, 17.0 ]
								}

							}
, 							{
								"box" : 								{
									"maxclass" : "newobj",
									"text" : "r getMainPath",
									"fontsize" : 9.0,
									"numinlets" : 0,
									"numoutlets" : 1,
									"id" : "obj-16",
									"fontname" : "Arial",
									"outlettype" : [ "" ],
									"patching_rect" : [ 177.0, 61.0, 73.0, 17.0 ]
								}

							}
, 							{
								"box" : 								{
									"maxclass" : "newobj",
									"text" : "deferlow",
									"fontsize" : 9.0,
									"numinlets" : 1,
									"numoutlets" : 1,
									"id" : "obj-17",
									"fontname" : "Arial",
									"outlettype" : [ "" ],
									"patching_rect" : [ 120.0, 61.0, 50.0, 17.0 ]
								}

							}
, 							{
								"box" : 								{
									"maxclass" : "newobj",
									"text" : "loadbang",
									"fontsize" : 9.0,
									"numinlets" : 1,
									"numoutlets" : 1,
									"id" : "obj-18",
									"fontname" : "Arial",
									"outlettype" : [ "bang" ],
									"patching_rect" : [ 120.0, 40.0, 48.0, 17.0 ]
								}

							}
, 							{
								"box" : 								{
									"maxclass" : "newobj",
									"text" : "s toMainPatcher",
									"fontsize" : 9.0,
									"numinlets" : 1,
									"numoutlets" : 0,
									"id" : "obj-19",
									"fontname" : "Arial",
									"patching_rect" : [ 420.0, 151.0, 83.0, 17.0 ]
								}

							}
, 							{
								"box" : 								{
									"maxclass" : "newobj",
									"text" : "sel 1 0",
									"fontsize" : 9.0,
									"numinlets" : 1,
									"numoutlets" : 3,
									"id" : "obj-20",
									"fontname" : "Arial",
									"outlettype" : [ "bang", "bang", "" ],
									"patching_rect" : [ 279.0, 101.0, 151.0, 17.0 ]
								}

							}
, 							{
								"box" : 								{
									"maxclass" : "newobj",
									"text" : "r runtime",
									"fontsize" : 9.0,
									"numinlets" : 0,
									"numoutlets" : 1,
									"id" : "obj-21",
									"fontname" : "Arial",
									"outlettype" : [ "" ],
									"patching_rect" : [ 279.0, 77.0, 53.0, 17.0 ]
								}

							}
, 							{
								"box" : 								{
									"maxclass" : "newobj",
									"text" : "r mainPath",
									"fontsize" : 9.0,
									"numinlets" : 0,
									"numoutlets" : 1,
									"id" : "obj-22",
									"fontname" : "Arial",
									"outlettype" : [ "" ],
									"patching_rect" : [ 90.0, 191.0, 58.0, 17.0 ]
								}

							}
, 							{
								"box" : 								{
									"maxclass" : "message",
									"text" : ";\rmax getruntime runtime",
									"linecount" : 2,
									"fontsize" : 9.0,
									"numinlets" : 2,
									"numoutlets" : 1,
									"id" : "obj-23",
									"fontname" : "Arial",
									"outlettype" : [ "" ],
									"patching_rect" : [ 120.0, 84.0, 129.0, 25.0 ]
								}

							}
, 							{
								"box" : 								{
									"maxclass" : "message",
									"text" : ";\rmax sendapppath appPath",
									"linecount" : 2,
									"fontsize" : 9.0,
									"numinlets" : 2,
									"numoutlets" : 1,
									"id" : "obj-24",
									"fontname" : "Arial",
									"outlettype" : [ "" ],
									"patching_rect" : [ 279.0, 144.0, 129.0, 25.0 ]
								}

							}
, 							{
								"box" : 								{
									"maxclass" : "message",
									"text" : "path",
									"fontsize" : 9.0,
									"numinlets" : 2,
									"numoutlets" : 1,
									"id" : "obj-25",
									"fontname" : "Arial",
									"outlettype" : [ "" ],
									"patching_rect" : [ 420.0, 129.0, 50.0, 15.0 ]
								}

							}
 ],
						"lines" : [ 							{
								"patchline" : 								{
									"source" : [ "obj-25", 0 ],
									"destination" : [ "obj-19", 0 ],
									"hidden" : 0,
									"midpoints" : [  ]
								}

							}
, 							{
								"patchline" : 								{
									"source" : [ "obj-20", 1 ],
									"destination" : [ "obj-25", 0 ],
									"hidden" : 0,
									"midpoints" : [ 354.5, 123.0, 429.5, 123.0 ]
								}

							}
, 							{
								"patchline" : 								{
									"source" : [ "obj-9", 1 ],
									"destination" : [ "obj-13", 0 ],
									"hidden" : 0,
									"midpoints" : [  ]
								}

							}
, 							{
								"patchline" : 								{
									"source" : [ "obj-9", 0 ],
									"destination" : [ "obj-10", 0 ],
									"hidden" : 0,
									"midpoints" : [ 282.5, 425.0, 320.5, 425.0 ]
								}

							}
, 							{
								"patchline" : 								{
									"source" : [ "obj-20", 0 ],
									"destination" : [ "obj-24", 0 ],
									"hidden" : 0,
									"midpoints" : [  ]
								}

							}
, 							{
								"patchline" : 								{
									"source" : [ "obj-21", 0 ],
									"destination" : [ "obj-20", 0 ],
									"hidden" : 0,
									"midpoints" : [  ]
								}

							}
, 							{
								"patchline" : 								{
									"source" : [ "obj-11", 0 ],
									"destination" : [ "obj-9", 0 ],
									"hidden" : 0,
									"midpoints" : [ 357.5, 362.0, 282.5, 362.0 ]
								}

							}
, 							{
								"patchline" : 								{
									"source" : [ "obj-6", 0 ],
									"destination" : [ "obj-1", 0 ],
									"hidden" : 0,
									"midpoints" : [  ]
								}

							}
, 							{
								"patchline" : 								{
									"source" : [ "obj-5", 0 ],
									"destination" : [ "obj-14", 0 ],
									"hidden" : 0,
									"midpoints" : [  ]
								}

							}
, 							{
								"patchline" : 								{
									"source" : [ "obj-7", 0 ],
									"destination" : [ "obj-14", 0 ],
									"hidden" : 0,
									"midpoints" : [  ]
								}

							}
, 							{
								"patchline" : 								{
									"source" : [ "obj-8", 1 ],
									"destination" : [ "obj-14", 0 ],
									"hidden" : 0,
									"midpoints" : [  ]
								}

							}
, 							{
								"patchline" : 								{
									"source" : [ "obj-17", 0 ],
									"destination" : [ "obj-23", 0 ],
									"hidden" : 0,
									"midpoints" : [  ]
								}

							}
, 							{
								"patchline" : 								{
									"source" : [ "obj-16", 0 ],
									"destination" : [ "obj-23", 0 ],
									"hidden" : 0,
									"midpoints" : [ 186.5, 81.0, 129.5, 81.0 ]
								}

							}
, 							{
								"patchline" : 								{
									"source" : [ "obj-18", 0 ],
									"destination" : [ "obj-17", 0 ],
									"hidden" : 0,
									"midpoints" : [  ]
								}

							}
, 							{
								"patchline" : 								{
									"source" : [ "obj-6", 0 ],
									"destination" : [ "obj-4", 0 ],
									"hidden" : 0,
									"midpoints" : [  ]
								}

							}
, 							{
								"patchline" : 								{
									"source" : [ "obj-6", 0 ],
									"destination" : [ "obj-15", 0 ],
									"hidden" : 0,
									"midpoints" : [  ]
								}

							}
, 							{
								"patchline" : 								{
									"source" : [ "obj-3", 0 ],
									"destination" : [ "obj-6", 0 ],
									"hidden" : 0,
									"midpoints" : [ 81.5, 237.0, 99.5, 237.0 ]
								}

							}
, 							{
								"patchline" : 								{
									"source" : [ "obj-2", 0 ],
									"destination" : [ "obj-6", 0 ],
									"hidden" : 0,
									"midpoints" : [ 44.5, 237.0, 99.5, 237.0 ]
								}

							}
, 							{
								"patchline" : 								{
									"source" : [ "obj-12", 0 ],
									"destination" : [ "obj-6", 0 ],
									"hidden" : 0,
									"midpoints" : [  ]
								}

							}
, 							{
								"patchline" : 								{
									"source" : [ "obj-22", 0 ],
									"destination" : [ "obj-12", 0 ],
									"hidden" : 0,
									"midpoints" : [  ]
								}

							}
, 							{
								"patchline" : 								{
									"source" : [ "obj-15", 0 ],
									"destination" : [ "obj-8", 0 ],
									"hidden" : 0,
									"midpoints" : [  ]
								}

							}
, 							{
								"patchline" : 								{
									"source" : [ "obj-8", 0 ],
									"destination" : [ "obj-7", 0 ],
									"hidden" : 0,
									"midpoints" : [  ]
								}

							}
, 							{
								"patchline" : 								{
									"source" : [ "obj-8", 0 ],
									"destination" : [ "obj-5", 0 ],
									"hidden" : 0,
									"midpoints" : [  ]
								}

							}
 ]
					}
,
					"saved_object_attributes" : 					{
						"fontface" : 0,
						"fontsize" : 12.0,
						"default_fontface" : 0,
						"default_fontname" : "Arial",
						"default_fontsize" : 12.0,
						"fontname" : "Arial",
						"globalpatchername" : ""
					}

				}

			}
, 			{
				"box" : 				{
					"maxclass" : "number",
					"fontsize" : 9.0,
					"bgcolor" : [ 0.866667, 0.866667, 0.866667, 1.0 ],
					"numinlets" : 1,
					"numoutlets" : 2,
					"id" : "obj-3",
					"fontname" : "Arial",
					"triscale" : 0.9,
					"outlettype" : [ "int", "bang" ],
					"htextcolor" : [ 0.870588, 0.870588, 0.870588, 1.0 ],
					"patching_rect" : [ 217.0, 314.0, 35.0, 17.0 ]
				}

			}
, 			{
				"box" : 				{
					"maxclass" : "newobj",
					"text" : "route count",
					"fontsize" : 9.0,
					"numinlets" : 1,
					"numoutlets" : 2,
					"id" : "obj-4",
					"fontname" : "Arial",
					"outlettype" : [ "", "" ],
					"patching_rect" : [ 217.0, 287.0, 60.0, 17.0 ]
				}

			}
, 			{
				"box" : 				{
					"maxclass" : "umenu",
					"fontsize" : 9.0,
					"items" : "clip49.mov",
					"autopopulate" : 1,
					"numinlets" : 1,
					"pattrmode" : 1,
					"numoutlets" : 3,
					"id" : "obj-5",
					"prefix" : "OSX:/Applications/Max5/subdirectory",
					"fontname" : "Arial",
					"outlettype" : [ "int", "", "" ],
					"types" : "MooV",
					"patching_rect" : [ 71.0, 263.0, 156.0, 17.0 ]
				}

			}
, 			{
				"box" : 				{
					"maxclass" : "message",
					"text" : "OSX:/Applications/Max5/subdirectory",
					"fontsize" : 9.0,
					"ignoreclick" : 1,
					"bgcolor" : [ 0.760784, 0.709804, 0.811765, 1.0 ],
					"numinlets" : 2,
					"numoutlets" : 1,
					"id" : "obj-6",
					"fontname" : "Arial",
					"outlettype" : [ "" ],
					"patching_rect" : [ 75.0, 149.0, 498.0, 15.0 ]
				}

			}
, 			{
				"box" : 				{
					"maxclass" : "newobj",
					"text" : "prepend set",
					"fontsize" : 9.0,
					"hidden" : 1,
					"numinlets" : 1,
					"numoutlets" : 1,
					"id" : "obj-7",
					"fontname" : "Arial",
					"outlettype" : [ "" ],
					"patching_rect" : [ 75.0, 96.0, 65.0, 17.0 ]
				}

			}
, 			{
				"box" : 				{
					"maxclass" : "newobj",
					"text" : "r subdirPath",
					"fontsize" : 9.0,
					"hidden" : 1,
					"numinlets" : 0,
					"numoutlets" : 1,
					"id" : "obj-8",
					"fontname" : "Arial",
					"outlettype" : [ "" ],
					"patching_rect" : [ 75.0, 75.0, 70.0, 17.0 ]
				}

			}
, 			{
				"box" : 				{
					"maxclass" : "newobj",
					"text" : "s getMainPath",
					"fontsize" : 9.0,
					"hidden" : 1,
					"numinlets" : 1,
					"numoutlets" : 0,
					"id" : "obj-9",
					"fontname" : "Arial",
					"patching_rect" : [ 75.0, 173.0, 73.0, 17.0 ]
				}

			}
, 			{
				"box" : 				{
					"maxclass" : "button",
					"numinlets" : 1,
					"numoutlets" : 1,
					"id" : "obj-10",
					"outlettype" : [ "bang" ],
					"patching_rect" : [ 57.0, 149.0, 15.0, 15.0 ]
				}

			}
, 			{
				"box" : 				{
					"maxclass" : "comment",
					"text" : "the full path:",
					"fontsize" : 9.0,
					"numinlets" : 1,
					"numoutlets" : 0,
					"id" : "obj-11",
					"fontname" : "Arial",
					"patching_rect" : [ 75.0, 131.0, 68.0, 17.0 ]
				}

			}
 ],
		"lines" : [ 			{
				"patchline" : 				{
					"source" : [ "obj-10", 0 ],
					"destination" : [ "obj-9", 0 ],
					"hidden" : 1,
					"midpoints" : [  ]
				}

			}
, 			{
				"patchline" : 				{
					"source" : [ "obj-7", 0 ],
					"destination" : [ "obj-6", 0 ],
					"hidden" : 1,
					"midpoints" : [  ]
				}

			}
, 			{
				"patchline" : 				{
					"source" : [ "obj-4", 0 ],
					"destination" : [ "obj-3", 0 ],
					"hidden" : 0,
					"midpoints" : [  ]
				}

			}
, 			{
				"patchline" : 				{
					"source" : [ "obj-5", 2 ],
					"destination" : [ "obj-4", 0 ],
					"hidden" : 0,
					"midpoints" : [  ]
				}

			}
, 			{
				"patchline" : 				{
					"source" : [ "obj-2", 0 ],
					"destination" : [ "obj-5", 0 ],
					"hidden" : 0,
					"midpoints" : [  ]
				}

			}
, 			{
				"patchline" : 				{
					"source" : [ "obj-8", 0 ],
					"destination" : [ "obj-7", 0 ],
					"hidden" : 1,
					"midpoints" : [  ]
				}

			}
 ]
	}

}
