{
	"patcher" : 	{
		"fileversion" : 1,
		"rect" : [ 212.0, 66.0, 473.0, 318.0 ],
		"bglocked" : 0,
		"defrect" : [ 212.0, 66.0, 473.0, 318.0 ],
		"openrect" : [ 0.0, 0.0, 0.0, 0.0 ],
		"openinpresentation" : 0,
		"default_fontsize" : 12.0,
		"default_fontface" : 0,
		"default_fontname" : "Arial",
		"gridonopen" : 0,
		"gridsize" : [ 15.0, 15.0 ],
		"gridsnaponopen" : 0,
		"toolbarvisible" : 1,
		"boxanimatetime" : 200,
		"imprint" : 0,
		"boxes" : [ 			{
				"box" : 				{
					"maxclass" : "newobj",
					"text" : "switch 2 1",
					"fontname" : "Arial",
					"outlettype" : [ "" ],
					"patching_rect" : [ 26.0, 249.0, 51.0, 17.0 ],
					"id" : "obj-1",
					"fontsize" : 9.0,
					"numinlets" : 3,
					"numoutlets" : 1
				}

			}
, 			{
				"box" : 				{
					"maxclass" : "newobj",
					"text" : "p easy-xfade",
					"fontname" : "Arial",
					"outlettype" : [ "jit_gl_texture" ],
					"patching_rect" : [ 59.0, 165.0, 157.0, 18.0 ],
					"id" : "obj-125",
					"fontsize" : 10.0,
					"numinlets" : 4,
					"numoutlets" : 1,
					"patcher" : 					{
						"fileversion" : 1,
						"rect" : [ 833.0, 324.0, 376.0, 293.0 ],
						"bglocked" : 0,
						"defrect" : [ 833.0, 324.0, 376.0, 293.0 ],
						"openrect" : [ 0.0, 0.0, 0.0, 0.0 ],
						"openinpresentation" : 0,
						"default_fontsize" : 10.0,
						"default_fontface" : 0,
						"default_fontname" : "Arial",
						"gridonopen" : 0,
						"gridsize" : [ 16.0, 16.0 ],
						"gridsnaponopen" : 0,
						"toolbarvisible" : 1,
						"boxanimatetime" : 200,
						"imprint" : 0,
						"boxes" : [ 							{
								"box" : 								{
									"maxclass" : "newobj",
									"text" : "t b l",
									"fontname" : "Arial",
									"outlettype" : [ "bang", "" ],
									"patching_rect" : [ 230.0, 95.0, 32.5, 18.0 ],
									"id" : "obj-8",
									"fontsize" : 10.0,
									"numinlets" : 1,
									"numoutlets" : 2
								}

							}
, 							{
								"box" : 								{
									"maxclass" : "newobj",
									"text" : "f",
									"fontname" : "Arial",
									"outlettype" : [ "float" ],
									"patching_rect" : [ 78.0, 132.0, 32.5, 18.0 ],
									"id" : "obj-7",
									"fontsize" : 10.0,
									"numinlets" : 2,
									"numoutlets" : 1
								}

							}
, 							{
								"box" : 								{
									"maxclass" : "inlet",
									"outlettype" : [ "" ],
									"patching_rect" : [ 230.0, 40.0, 25.0, 25.0 ],
									"id" : "obj-3",
									"numinlets" : 0,
									"numoutlets" : 1,
									"comment" : "mode compositing"
								}

							}
, 							{
								"box" : 								{
									"maxclass" : "newobj",
									"text" : "sprintf read co.%s.jxs",
									"fontname" : "Arial",
									"outlettype" : [ "" ],
									"patching_rect" : [ 230.0, 74.0, 104.0, 18.0 ],
									"id" : "obj-18",
									"fontsize" : 10.0,
									"numinlets" : 1,
									"numoutlets" : 1
								}

							}
, 							{
								"box" : 								{
									"maxclass" : "outlet",
									"patching_rect" : [ 50.0, 227.0, 25.0, 25.0 ],
									"id" : "obj-2",
									"numinlets" : 1,
									"numoutlets" : 0,
									"comment" : ""
								}

							}
, 							{
								"box" : 								{
									"maxclass" : "message",
									"text" : "param amount $1",
									"fontname" : "Arial",
									"outlettype" : [ "" ],
									"patching_rect" : [ 78.0, 153.0, 89.0, 16.0 ],
									"id" : "obj-42",
									"fontsize" : 10.0,
									"numinlets" : 2,
									"numoutlets" : 1
								}

							}
, 							{
								"box" : 								{
									"maxclass" : "newobj",
									"text" : "jit.gl.slab Lax_out @file co.normal.jxs @colormode uyvy",
									"fontname" : "Arial",
									"outlettype" : [ "jit_gl_texture", "" ],
									"patching_rect" : [ 50.0, 188.0, 258.0, 18.0 ],
									"id" : "obj-36",
									"fontsize" : 10.0,
									"numinlets" : 2,
									"numoutlets" : 2
								}

							}
, 							{
								"box" : 								{
									"maxclass" : "inlet",
									"outlettype" : [ "" ],
									"patching_rect" : [ 50.0, 40.0, 25.0, 25.0 ],
									"id" : "obj-48",
									"numinlets" : 0,
									"numoutlets" : 1,
									"comment" : ""
								}

							}
, 							{
								"box" : 								{
									"maxclass" : "inlet",
									"outlettype" : [ "" ],
									"patching_rect" : [ 78.0, 40.0, 25.0, 25.0 ],
									"id" : "obj-49",
									"numinlets" : 0,
									"numoutlets" : 1,
									"comment" : "amount"
								}

							}
, 							{
								"box" : 								{
									"maxclass" : "inlet",
									"outlettype" : [ "" ],
									"patching_rect" : [ 190.0, 40.0, 25.0, 25.0 ],
									"id" : "obj-50",
									"numinlets" : 0,
									"numoutlets" : 1,
									"comment" : ""
								}

							}
 ],
						"lines" : [ 							{
								"patchline" : 								{
									"source" : [ "obj-3", 0 ],
									"destination" : [ "obj-18", 0 ],
									"hidden" : 0,
									"midpoints" : [  ]
								}

							}
, 							{
								"patchline" : 								{
									"source" : [ "obj-36", 0 ],
									"destination" : [ "obj-2", 0 ],
									"hidden" : 0,
									"midpoints" : [  ]
								}

							}
, 							{
								"patchline" : 								{
									"source" : [ "obj-42", 0 ],
									"destination" : [ "obj-36", 0 ],
									"hidden" : 0,
									"midpoints" : [ 87.5, 174.0, 59.5, 174.0 ]
								}

							}
, 							{
								"patchline" : 								{
									"source" : [ "obj-48", 0 ],
									"destination" : [ "obj-36", 0 ],
									"hidden" : 0,
									"midpoints" : [  ]
								}

							}
, 							{
								"patchline" : 								{
									"source" : [ "obj-50", 0 ],
									"destination" : [ "obj-36", 1 ],
									"hidden" : 0,
									"midpoints" : [ 199.5, 158.0, 298.5, 158.0 ]
								}

							}
, 							{
								"patchline" : 								{
									"source" : [ "obj-49", 0 ],
									"destination" : [ "obj-7", 0 ],
									"hidden" : 0,
									"midpoints" : [  ]
								}

							}
, 							{
								"patchline" : 								{
									"source" : [ "obj-7", 0 ],
									"destination" : [ "obj-42", 0 ],
									"hidden" : 0,
									"midpoints" : [  ]
								}

							}
, 							{
								"patchline" : 								{
									"source" : [ "obj-18", 0 ],
									"destination" : [ "obj-8", 0 ],
									"hidden" : 0,
									"midpoints" : [  ]
								}

							}
, 							{
								"patchline" : 								{
									"source" : [ "obj-8", 1 ],
									"destination" : [ "obj-36", 0 ],
									"hidden" : 0,
									"midpoints" : [ 253.0, 179.5, 59.5, 179.5 ]
								}

							}
, 							{
								"patchline" : 								{
									"source" : [ "obj-8", 0 ],
									"destination" : [ "obj-7", 0 ],
									"hidden" : 0,
									"midpoints" : [ 239.5, 122.0, 87.5, 122.0 ]
								}

							}
 ]
					}
,
					"saved_object_attributes" : 					{
						"fontname" : "Arial",
						"default_fontname" : "Arial",
						"default_fontsize" : 10.0,
						"globalpatchername" : "",
						"fontface" : 0,
						"fontsize" : 10.0,
						"default_fontface" : 0
					}

				}

			}
, 			{
				"box" : 				{
					"maxclass" : "newobj",
					"text" : "p texture-buffer",
					"fontname" : "Arial",
					"outlettype" : [ "" ],
					"patching_rect" : [ 98.0, 123.230774, 92.0, 20.0 ],
					"id" : "obj-115",
					"fontsize" : 12.0,
					"numinlets" : 2,
					"numoutlets" : 1,
					"patcher" : 					{
						"fileversion" : 1,
						"rect" : [ 794.0, 69.0, 588.0, 391.0 ],
						"bglocked" : 0,
						"defrect" : [ 794.0, 69.0, 588.0, 391.0 ],
						"openrect" : [ 0.0, 0.0, 0.0, 0.0 ],
						"openinpresentation" : 0,
						"default_fontsize" : 12.0,
						"default_fontface" : 0,
						"default_fontname" : "Arial",
						"gridonopen" : 0,
						"gridsize" : [ 15.0, 15.0 ],
						"gridsnaponopen" : 0,
						"toolbarvisible" : 1,
						"boxanimatetime" : 200,
						"imprint" : 0,
						"boxes" : [ 							{
								"box" : 								{
									"maxclass" : "newobj",
									"text" : "t b i",
									"fontname" : "Arial",
									"outlettype" : [ "bang", "int" ],
									"patching_rect" : [ 208.0, 143.0, 32.5, 20.0 ],
									"id" : "obj-16",
									"fontsize" : 12.0,
									"numinlets" : 1,
									"numoutlets" : 2
								}

							}
, 							{
								"box" : 								{
									"maxclass" : "newobj",
									"text" : "- 1",
									"fontname" : "Arial",
									"outlettype" : [ "int" ],
									"patching_rect" : [ 125.0, 107.0, 32.5, 17.0 ],
									"id" : "obj-30",
									"fontsize" : 9.0,
									"numinlets" : 2,
									"numoutlets" : 1
								}

							}
, 							{
								"box" : 								{
									"maxclass" : "newobj",
									"text" : "i",
									"fontname" : "Arial",
									"outlettype" : [ "int" ],
									"patching_rect" : [ 356.0, 113.0, 32.5, 17.0 ],
									"id" : "obj-29",
									"fontsize" : 9.0,
									"numinlets" : 2,
									"numoutlets" : 1
								}

							}
, 							{
								"box" : 								{
									"maxclass" : "newobj",
									"text" : "t b f",
									"fontname" : "Arial",
									"outlettype" : [ "bang", "float" ],
									"patching_rect" : [ 266.0, 61.0, 32.5, 17.0 ],
									"id" : "obj-14",
									"fontsize" : 9.0,
									"numinlets" : 1,
									"numoutlets" : 2
								}

							}
, 							{
								"box" : 								{
									"maxclass" : "newobj",
									"text" : "expr $f1*abs($f2-25)",
									"fontname" : "Arial",
									"outlettype" : [ "" ],
									"patching_rect" : [ 356.0, 90.0, 93.0, 17.0 ],
									"id" : "obj-13",
									"fontsize" : 9.0,
									"numinlets" : 2,
									"numoutlets" : 1
								}

							}
, 							{
								"box" : 								{
									"maxclass" : "newobj",
									"text" : "expr 1000./$f1+25",
									"fontname" : "Arial",
									"outlettype" : [ "" ],
									"patching_rect" : [ 266.0, 42.0, 83.0, 17.0 ],
									"id" : "obj-8",
									"fontsize" : 9.0,
									"numinlets" : 1,
									"numoutlets" : 1
								}

							}
, 							{
								"box" : 								{
									"maxclass" : "newobj",
									"text" : "r frequence",
									"fontname" : "Arial",
									"outlettype" : [ "" ],
									"patching_rect" : [ 266.0, 16.0, 62.0, 17.0 ],
									"id" : "obj-35",
									"fontsize" : 9.0,
									"numinlets" : 0,
									"color" : [ 1.0, 0.741176, 0.611765, 1.0 ],
									"numoutlets" : 1
								}

							}
, 							{
								"box" : 								{
									"maxclass" : "message",
									"text" : "voices $1",
									"fontname" : "Arial",
									"outlettype" : [ "" ],
									"patching_rect" : [ 222.0, 171.0, 59.0, 18.0 ],
									"id" : "obj-5",
									"fontsize" : 12.0,
									"numinlets" : 2,
									"numoutlets" : 1
								}

							}
, 							{
								"box" : 								{
									"maxclass" : "newobj",
									"text" : "resolution.maxpat",
									"fontname" : "Arial",
									"outlettype" : [ "", "" ],
									"patching_rect" : [ 485.0, 40.0, 82.0, 17.0 ],
									"id" : "obj-1",
									"fontsize" : 9.0,
									"numinlets" : 0,
									"numoutlets" : 2
								}

							}
, 							{
								"box" : 								{
									"maxclass" : "newobj",
									"text" : "s init",
									"fontname" : "Arial",
									"patching_rect" : [ 149.0, 177.0, 35.0, 20.0 ],
									"id" : "obj-21",
									"fontsize" : 12.0,
									"numinlets" : 1,
									"numoutlets" : 0
								}

							}
, 							{
								"box" : 								{
									"maxclass" : "outlet",
									"patching_rect" : [ 342.0, 293.0, 25.0, 25.0 ],
									"id" : "obj-19",
									"numinlets" : 1,
									"numoutlets" : 0,
									"comment" : ""
								}

							}
, 							{
								"box" : 								{
									"maxclass" : "inlet",
									"outlettype" : [ "" ],
									"patching_rect" : [ 356.0, 31.0, 25.0, 25.0 ],
									"id" : "obj-18",
									"numinlets" : 0,
									"numoutlets" : 1,
									"comment" : "longueur en sec"
								}

							}
, 							{
								"box" : 								{
									"maxclass" : "newobj",
									"text" : "+ 0",
									"fontname" : "Arial",
									"outlettype" : [ "int" ],
									"patching_rect" : [ 342.0, 178.0, 32.5, 20.0 ],
									"id" : "obj-17",
									"fontsize" : 12.0,
									"numinlets" : 2,
									"numoutlets" : 1
								}

							}
, 							{
								"box" : 								{
									"maxclass" : "newobj",
									"text" : "% 15",
									"fontname" : "Arial",
									"outlettype" : [ "int" ],
									"patching_rect" : [ 342.0, 202.0, 38.0, 20.0 ],
									"id" : "obj-15",
									"fontsize" : 12.0,
									"numinlets" : 2,
									"numoutlets" : 1
								}

							}
, 							{
								"box" : 								{
									"maxclass" : "newobj",
									"text" : "counter 1 0 14",
									"fontname" : "Arial",
									"outlettype" : [ "int", "", "", "int" ],
									"patching_rect" : [ 57.0, 128.0, 87.0, 20.0 ],
									"id" : "obj-11",
									"fontsize" : 12.0,
									"numinlets" : 5,
									"numoutlets" : 4
								}

							}
, 							{
								"box" : 								{
									"maxclass" : "newobj",
									"text" : "t b l b",
									"fontname" : "Arial",
									"outlettype" : [ "bang", "", "bang" ],
									"patching_rect" : [ 33.0, 90.0, 46.0, 20.0 ],
									"id" : "obj-6",
									"fontsize" : 12.0,
									"numinlets" : 1,
									"numoutlets" : 3
								}

							}
, 							{
								"box" : 								{
									"maxclass" : "newobj",
									"text" : "+ 1",
									"fontname" : "Arial",
									"outlettype" : [ "int" ],
									"patching_rect" : [ 57.0, 185.0, 32.5, 20.0 ],
									"id" : "obj-2",
									"fontsize" : 12.0,
									"numinlets" : 2,
									"numoutlets" : 1
								}

							}
, 							{
								"box" : 								{
									"maxclass" : "newobj",
									"text" : "+ 1",
									"fontname" : "Arial",
									"outlettype" : [ "int" ],
									"patching_rect" : [ 342.0, 226.0, 32.5, 20.0 ],
									"id" : "obj-12",
									"fontsize" : 12.0,
									"numinlets" : 2,
									"numoutlets" : 1
								}

							}
, 							{
								"box" : 								{
									"maxclass" : "message",
									"text" : "target $1, bang",
									"fontname" : "Arial",
									"outlettype" : [ "" ],
									"patching_rect" : [ 342.0, 249.0, 78.0, 16.0 ],
									"id" : "obj-10",
									"fontsize" : 10.0,
									"numinlets" : 2,
									"numoutlets" : 1
								}

							}
, 							{
								"box" : 								{
									"maxclass" : "newobj",
									"text" : "poly~ vps.texlut 15 args jit_gl_texture bank",
									"fontname" : "Arial",
									"outlettype" : [ "" ],
									"patching_rect" : [ 342.0, 269.0, 238.0, 20.0 ],
									"id" : "obj-9",
									"fontsize" : 12.0,
									"numinlets" : 1,
									"numoutlets" : 1
								}

							}
, 							{
								"box" : 								{
									"maxclass" : "message",
									"text" : "target $1, bang",
									"fontname" : "Arial",
									"outlettype" : [ "" ],
									"patching_rect" : [ 57.0, 210.0, 78.0, 16.0 ],
									"id" : "obj-7",
									"fontsize" : 10.0,
									"numinlets" : 2,
									"numoutlets" : 1
								}

							}
, 							{
								"box" : 								{
									"maxclass" : "newobj",
									"text" : "poly~ vps.texlut 15 args capture bank",
									"fontname" : "Arial",
									"outlettype" : [ "" ],
									"patching_rect" : [ 57.0, 234.0, 210.0, 20.0 ],
									"id" : "obj-4",
									"fontsize" : 12.0,
									"numinlets" : 1,
									"numoutlets" : 1
								}

							}
, 							{
								"box" : 								{
									"maxclass" : "newobj",
									"text" : "poly~ vps.texset 15 args Lax_out bank",
									"fontname" : "Arial",
									"patching_rect" : [ 122.0, 352.0, 216.0, 20.0 ],
									"id" : "obj-3",
									"fontsize" : 12.0,
									"numinlets" : 1,
									"numoutlets" : 0
								}

							}
, 							{
								"box" : 								{
									"maxclass" : "newobj",
									"text" : "s dims",
									"fontname" : "Arial",
									"patching_rect" : [ 485.0, 63.0, 44.0, 20.0 ],
									"id" : "obj-85",
									"fontsize" : 11.595187,
									"numinlets" : 1,
									"numoutlets" : 0
								}

							}
, 							{
								"box" : 								{
									"maxclass" : "newobj",
									"text" : "jit.gl.videoplane Lax_out @transform_reset 2 @automatic 0 @colormode uyvy",
									"fontname" : "Arial",
									"outlettype" : [ "jit_matrix", "" ],
									"patching_rect" : [ 57.0, 333.0, 357.0, 18.0 ],
									"id" : "obj-82",
									"fontsize" : 10.0,
									"numinlets" : 1,
									"numoutlets" : 2
								}

							}
, 							{
								"box" : 								{
									"maxclass" : "inlet",
									"outlettype" : [ "jit_gl_texture" ],
									"patching_rect" : [ 33.0, 51.0, 25.0, 25.0 ],
									"id" : "obj-114",
									"numinlets" : 0,
									"numoutlets" : 1,
									"comment" : ""
								}

							}
 ],
						"lines" : [ 							{
								"patchline" : 								{
									"source" : [ "obj-16", 0 ],
									"destination" : [ "obj-21", 0 ],
									"hidden" : 0,
									"midpoints" : [ 217.5, 169.5, 158.5, 169.5 ]
								}

							}
, 							{
								"patchline" : 								{
									"source" : [ "obj-16", 1 ],
									"destination" : [ "obj-5", 0 ],
									"hidden" : 0,
									"midpoints" : [  ]
								}

							}
, 							{
								"patchline" : 								{
									"source" : [ "obj-29", 0 ],
									"destination" : [ "obj-16", 0 ],
									"hidden" : 0,
									"midpoints" : [ 365.5, 136.0, 217.5, 136.0 ]
								}

							}
, 							{
								"patchline" : 								{
									"source" : [ "obj-4", 0 ],
									"destination" : [ "obj-82", 0 ],
									"hidden" : 0,
									"midpoints" : [  ]
								}

							}
, 							{
								"patchline" : 								{
									"source" : [ "obj-6", 1 ],
									"destination" : [ "obj-82", 0 ],
									"hidden" : 0,
									"midpoints" : [ 56.0, 263.0, 66.5, 263.0 ]
								}

							}
, 							{
								"patchline" : 								{
									"source" : [ "obj-6", 0 ],
									"destination" : [ "obj-82", 0 ],
									"hidden" : 0,
									"midpoints" : [ 42.5, 265.0, 66.5, 265.0 ]
								}

							}
, 							{
								"patchline" : 								{
									"source" : [ "obj-9", 0 ],
									"destination" : [ "obj-19", 0 ],
									"hidden" : 0,
									"midpoints" : [  ]
								}

							}
, 							{
								"patchline" : 								{
									"source" : [ "obj-1", 0 ],
									"destination" : [ "obj-85", 0 ],
									"hidden" : 0,
									"midpoints" : [  ]
								}

							}
, 							{
								"patchline" : 								{
									"source" : [ "obj-12", 0 ],
									"destination" : [ "obj-10", 0 ],
									"hidden" : 0,
									"midpoints" : [  ]
								}

							}
, 							{
								"patchline" : 								{
									"source" : [ "obj-2", 0 ],
									"destination" : [ "obj-7", 0 ],
									"hidden" : 0,
									"midpoints" : [  ]
								}

							}
, 							{
								"patchline" : 								{
									"source" : [ "obj-15", 0 ],
									"destination" : [ "obj-12", 0 ],
									"hidden" : 0,
									"midpoints" : [  ]
								}

							}
, 							{
								"patchline" : 								{
									"source" : [ "obj-17", 0 ],
									"destination" : [ "obj-15", 0 ],
									"hidden" : 0,
									"midpoints" : [  ]
								}

							}
, 							{
								"patchline" : 								{
									"source" : [ "obj-11", 0 ],
									"destination" : [ "obj-17", 0 ],
									"hidden" : 0,
									"midpoints" : [ 66.5, 164.0, 351.5, 164.0 ]
								}

							}
, 							{
								"patchline" : 								{
									"source" : [ "obj-114", 0 ],
									"destination" : [ "obj-6", 0 ],
									"hidden" : 0,
									"midpoints" : [  ]
								}

							}
, 							{
								"patchline" : 								{
									"source" : [ "obj-6", 2 ],
									"destination" : [ "obj-11", 0 ],
									"hidden" : 0,
									"midpoints" : [ 69.5, 116.0, 66.5, 116.0 ]
								}

							}
, 							{
								"patchline" : 								{
									"source" : [ "obj-11", 0 ],
									"destination" : [ "obj-2", 0 ],
									"hidden" : 0,
									"midpoints" : [  ]
								}

							}
, 							{
								"patchline" : 								{
									"source" : [ "obj-7", 0 ],
									"destination" : [ "obj-4", 0 ],
									"hidden" : 0,
									"midpoints" : [  ]
								}

							}
, 							{
								"patchline" : 								{
									"source" : [ "obj-10", 0 ],
									"destination" : [ "obj-9", 0 ],
									"hidden" : 0,
									"midpoints" : [  ]
								}

							}
, 							{
								"patchline" : 								{
									"source" : [ "obj-29", 0 ],
									"destination" : [ "obj-15", 1 ],
									"hidden" : 0,
									"midpoints" : [ 365.5, 148.0, 375.0, 148.0, 375.0, 198.0, 370.5, 198.0 ]
								}

							}
, 							{
								"patchline" : 								{
									"source" : [ "obj-30", 0 ],
									"destination" : [ "obj-11", 4 ],
									"hidden" : 0,
									"midpoints" : [  ]
								}

							}
, 							{
								"patchline" : 								{
									"source" : [ "obj-29", 0 ],
									"destination" : [ "obj-30", 0 ],
									"hidden" : 0,
									"midpoints" : [ 365.5, 138.0, 178.0, 138.0, 178.0, 98.0, 134.5, 98.0 ]
								}

							}
, 							{
								"patchline" : 								{
									"source" : [ "obj-35", 0 ],
									"destination" : [ "obj-8", 0 ],
									"hidden" : 0,
									"midpoints" : [  ]
								}

							}
, 							{
								"patchline" : 								{
									"source" : [ "obj-8", 0 ],
									"destination" : [ "obj-14", 0 ],
									"hidden" : 0,
									"midpoints" : [  ]
								}

							}
, 							{
								"patchline" : 								{
									"source" : [ "obj-14", 0 ],
									"destination" : [ "obj-13", 0 ],
									"hidden" : 0,
									"midpoints" : [ 275.5, 85.0, 365.5, 85.0 ]
								}

							}
, 							{
								"patchline" : 								{
									"source" : [ "obj-14", 1 ],
									"destination" : [ "obj-13", 1 ],
									"hidden" : 0,
									"midpoints" : [ 289.0, 80.0, 439.5, 80.0 ]
								}

							}
, 							{
								"patchline" : 								{
									"source" : [ "obj-18", 0 ],
									"destination" : [ "obj-13", 0 ],
									"hidden" : 0,
									"midpoints" : [  ]
								}

							}
, 							{
								"patchline" : 								{
									"source" : [ "obj-13", 0 ],
									"destination" : [ "obj-29", 0 ],
									"hidden" : 0,
									"midpoints" : [  ]
								}

							}
, 							{
								"patchline" : 								{
									"source" : [ "obj-5", 0 ],
									"destination" : [ "obj-9", 0 ],
									"hidden" : 0,
									"midpoints" : [  ]
								}

							}
, 							{
								"patchline" : 								{
									"source" : [ "obj-5", 0 ],
									"destination" : [ "obj-4", 0 ],
									"hidden" : 0,
									"midpoints" : [  ]
								}

							}
, 							{
								"patchline" : 								{
									"source" : [ "obj-30", 0 ],
									"destination" : [ "obj-17", 1 ],
									"hidden" : 0,
									"midpoints" : [ 134.5, 126.0, 342.0, 126.0, 342.0, 155.0, 365.0, 155.0 ]
								}

							}
, 							{
								"patchline" : 								{
									"source" : [ "obj-5", 0 ],
									"destination" : [ "obj-3", 0 ],
									"hidden" : 0,
									"midpoints" : [  ]
								}

							}
 ]
					}
,
					"saved_object_attributes" : 					{
						"fontname" : "Arial",
						"default_fontname" : "Arial",
						"default_fontsize" : 12.0,
						"globalpatchername" : "",
						"fontface" : 0,
						"fontsize" : 12.0,
						"default_fontface" : 0
					}

				}

			}
, 			{
				"box" : 				{
					"maxclass" : "newobj",
					"text" : "+ 1",
					"fontname" : "Arial",
					"outlettype" : [ "int" ],
					"patching_rect" : [ 26.0, 19.0, 27.0, 17.0 ],
					"id" : "obj-16",
					"fontsize" : 9.0,
					"numinlets" : 2,
					"numoutlets" : 1
				}

			}
, 			{
				"box" : 				{
					"maxclass" : "newobj",
					"text" : "gate 2 1",
					"fontname" : "Arial",
					"outlettype" : [ "", "" ],
					"patching_rect" : [ 22.0, 58.0, 47.0, 17.0 ],
					"id" : "obj-17",
					"fontsize" : 9.0,
					"numinlets" : 2,
					"numoutlets" : 2
				}

			}
, 			{
				"box" : 				{
					"maxclass" : "inlet",
					"outlettype" : [ "" ],
					"patching_rect" : [ 50.0, 41.0, 15.0, 15.0 ],
					"id" : "obj-18",
					"numinlets" : 0,
					"numoutlets" : 1,
					"comment" : "video"
				}

			}
, 			{
				"box" : 				{
					"maxclass" : "newobj",
					"text" : "route var1 var2 var3 var4 _CONTROL_ _POWER_ _SWITCH_",
					"fontname" : "Arial",
					"outlettype" : [ "", "", "", "", "", "", "", "" ],
					"patching_rect" : [ 133.0, 70.0, 289.0, 17.0 ],
					"id" : "obj-19",
					"fontsize" : 9.0,
					"numinlets" : 1,
					"numoutlets" : 8
				}

			}
, 			{
				"box" : 				{
					"maxclass" : "outlet",
					"patching_rect" : [ 26.0, 292.0, 15.0, 15.0 ],
					"id" : "obj-20",
					"numinlets" : 1,
					"numoutlets" : 0,
					"comment" : ""
				}

			}
, 			{
				"box" : 				{
					"maxclass" : "inlet",
					"outlettype" : [ "" ],
					"patching_rect" : [ 133.0, 29.0, 15.0, 15.0 ],
					"id" : "obj-21",
					"numinlets" : 0,
					"numoutlets" : 1,
					"comment" : ""
				}

			}
 ],
		"lines" : [ 			{
				"patchline" : 				{
					"source" : [ "obj-19", 1 ],
					"destination" : [ "obj-125", 3 ],
					"hidden" : 0,
					"midpoints" : [ 181.071426, 112.5, 206.5, 112.5 ]
				}

			}
, 			{
				"patchline" : 				{
					"source" : [ "obj-19", 2 ],
					"destination" : [ "obj-125", 1 ],
					"hidden" : 0,
					"midpoints" : [ 219.642853, 145.5, 114.5, 145.5 ]
				}

			}
, 			{
				"patchline" : 				{
					"source" : [ "obj-19", 0 ],
					"destination" : [ "obj-115", 1 ],
					"hidden" : 0,
					"midpoints" : [ 142.5, 114.615387, 180.5, 114.615387 ]
				}

			}
, 			{
				"patchline" : 				{
					"source" : [ "obj-17", 1 ],
					"destination" : [ "obj-125", 0 ],
					"hidden" : 0,
					"midpoints" : [ 59.5, 140.0, 68.5, 140.0 ]
				}

			}
, 			{
				"patchline" : 				{
					"source" : [ "obj-21", 0 ],
					"destination" : [ "obj-19", 0 ],
					"hidden" : 0,
					"midpoints" : [  ]
				}

			}
, 			{
				"patchline" : 				{
					"source" : [ "obj-18", 0 ],
					"destination" : [ "obj-17", 1 ],
					"hidden" : 0,
					"midpoints" : [  ]
				}

			}
, 			{
				"patchline" : 				{
					"source" : [ "obj-16", 0 ],
					"destination" : [ "obj-17", 0 ],
					"hidden" : 0,
					"midpoints" : [ 35.5, 51.0, 31.5, 51.0 ]
				}

			}
, 			{
				"patchline" : 				{
					"source" : [ "obj-19", 5 ],
					"destination" : [ "obj-16", 0 ],
					"hidden" : 0,
					"midpoints" : [ 335.357147, 97.0, 96.0, 97.0, 96.0, 15.0, 35.5, 15.0 ]
				}

			}
, 			{
				"patchline" : 				{
					"source" : [ "obj-125", 0 ],
					"destination" : [ "obj-115", 0 ],
					"hidden" : 0,
					"midpoints" : [ 68.5, 187.0, 49.0, 187.0, 49.0, 113.230774, 107.5, 113.230774 ]
				}

			}
, 			{
				"patchline" : 				{
					"source" : [ "obj-115", 0 ],
					"destination" : [ "obj-125", 2 ],
					"hidden" : 0,
					"midpoints" : [ 107.5, 151.115387, 160.5, 151.115387 ]
				}

			}
, 			{
				"patchline" : 				{
					"source" : [ "obj-17", 0 ],
					"destination" : [ "obj-1", 1 ],
					"hidden" : 0,
					"midpoints" : [ 31.5, 161.5, 51.5, 161.5 ]
				}

			}
, 			{
				"patchline" : 				{
					"source" : [ "obj-125", 0 ],
					"destination" : [ "obj-1", 2 ],
					"hidden" : 0,
					"midpoints" : [  ]
				}

			}
, 			{
				"patchline" : 				{
					"source" : [ "obj-16", 0 ],
					"destination" : [ "obj-1", 0 ],
					"hidden" : 0,
					"midpoints" : [  ]
				}

			}
, 			{
				"patchline" : 				{
					"source" : [ "obj-1", 0 ],
					"destination" : [ "obj-20", 0 ],
					"hidden" : 0,
					"midpoints" : [  ]
				}

			}
 ]
	}

}
