{
	"patcher" : 	{
		"fileversion" : 1,
		"rect" : [ 75.0, 44.0, 860.0, 692.0 ],
		"bglocked" : 0,
		"defrect" : [ 75.0, 44.0, 860.0, 692.0 ],
		"openrect" : [ 0.0, 0.0, 0.0, 0.0 ],
		"openinpresentation" : 1,
		"default_fontsize" : 12.0,
		"default_fontface" : 0,
		"default_fontname" : "Arial",
		"gridonopen" : 0,
		"gridsize" : [ 15.0, 15.0 ],
		"gridsnaponopen" : 0,
		"toolbarvisible" : 1,
		"boxanimatetime" : 200,
		"imprint" : 0,
		"enablehscroll" : 1,
		"enablevscroll" : 1,
		"devicewidth" : 0.0,
		"boxes" : [ 			{
				"box" : 				{
					"maxclass" : "inlet",
					"numoutlets" : 1,
					"outlettype" : [ "" ],
					"patching_rect" : [ 10.0, 205.0, 15.0, 15.0 ],
					"id" : "obj-23",
					"numinlets" : 0,
					"comment" : "valeur loop_loop"
				}

			}
, 			{
				"box" : 				{
					"maxclass" : "newobj",
					"text" : "t i i",
					"numoutlets" : 2,
					"fontsize" : 9.0,
					"outlettype" : [ "int", "int" ],
					"patching_rect" : [ 205.0, 275.0, 32.5, 17.0 ],
					"id" : "obj-16",
					"fontname" : "Arial",
					"numinlets" : 1
				}

			}
, 			{
				"box" : 				{
					"maxclass" : "inlet",
					"numoutlets" : 1,
					"outlettype" : [ "" ],
					"patching_rect" : [ 413.0, 25.0, 15.0, 15.0 ],
					"id" : "obj-17",
					"numinlets" : 0,
					"comment" : "direct/indirect"
				}

			}
, 			{
				"box" : 				{
					"maxclass" : "newobj",
					"text" : "if $i2==0 then $i1",
					"numoutlets" : 1,
					"fontsize" : 9.0,
					"outlettype" : [ "" ],
					"patching_rect" : [ 174.0, 550.0, 80.0, 17.0 ],
					"id" : "obj-1",
					"fontname" : "Arial",
					"numinlets" : 2
				}

			}
, 			{
				"box" : 				{
					"maxclass" : "newobj",
					"text" : "select 0",
					"numoutlets" : 2,
					"fontsize" : 9.0,
					"outlettype" : [ "bang", "" ],
					"patching_rect" : [ 265.0, 550.0, 42.0, 17.0 ],
					"id" : "obj-69",
					"fontname" : "Arial",
					"numinlets" : 2
				}

			}
, 			{
				"box" : 				{
					"maxclass" : "inlet",
					"numoutlets" : 1,
					"outlettype" : [ "" ],
					"patching_rect" : [ 265.0, 524.0, 15.0, 15.0 ],
					"id" : "obj-46",
					"numinlets" : 0,
					"comment" : "6 passe la source 2 directement 0 revient au réglage actuel"
				}

			}
, 			{
				"box" : 				{
					"maxclass" : "newobj",
					"text" : "i",
					"numoutlets" : 1,
					"fontsize" : 9.0,
					"outlettype" : [ "int" ],
					"patching_rect" : [ 215.0, 583.0, 32.5, 17.0 ],
					"id" : "obj-45",
					"fontname" : "Arial",
					"numinlets" : 2
				}

			}
, 			{
				"box" : 				{
					"maxclass" : "umenu",
					"varname" : "mode_alpha",
					"numoutlets" : 3,
					"fontsize" : 13.0,
					"textcolor2" : [ 0.121569, 0.121569, 0.121569, 1.0 ],
					"outlettype" : [ "int", "", "" ],
					"presentation_rect" : [ 110.0, 129.0, 133.0, 25.0 ],
					"items" : [ "Normal", ",", "Inverse" ],
					"pattrmode" : 1,
					"hltcolor" : [ 1.0, 1.0, 1.0, 1.0 ],
					"hidden" : 1,
					"types" : [  ],
					"patching_rect" : [ 611.0, 474.0, 126.0, 25.0 ],
					"arrowframe" : 0,
					"presentation" : 1,
					"id" : "obj-19",
					"framecolor" : [ 1.0, 1.0, 1.0, 1.0 ],
					"fontname" : "Comic Sans MS",
					"bgcolor2" : [ 0.784314, 0.870588, 0.862745, 1.0 ],
					"textcolor" : [ 0.121569, 0.121569, 0.121569, 1.0 ],
					"numinlets" : 1,
					"discolor" : [ 0.439216, 0.439216, 0.439216, 1.0 ],
					"togcolor" : [ 0.552941, 0.552941, 0.552941, 1.0 ]
				}

			}
, 			{
				"box" : 				{
					"maxclass" : "bpatcher",
					"varname" : "math",
					"numoutlets" : 1,
					"offset" : [ -9.0, 2.0 ],
					"outlettype" : [ "" ],
					"args" : [  ],
					"presentation_rect" : [ 23.0, 101.0, 250.0, 80.0 ],
					"lockeddragscroll" : 1,
					"hidden" : 1,
					"patching_rect" : [ 525.0, 180.0, 275.0, 91.0 ],
					"presentation" : 1,
					"id" : "obj-6",
					"name" : "Lax_Lmathops.maxpat",
					"numinlets" : 0
				}

			}
, 			{
				"box" : 				{
					"maxclass" : "bpatcher",
					"varname" : "chroma",
					"numoutlets" : 3,
					"offset" : [ -1.0, 1.0 ],
					"outlettype" : [ "float", "", "int" ],
					"args" : [  ],
					"presentation_rect" : [ 21.0, 92.0, 257.0, 93.0 ],
					"lockeddragscroll" : 1,
					"hidden" : 1,
					"patching_rect" : [ 571.0, 296.0, 266.0, 96.0 ],
					"presentation" : 1,
					"id" : "obj-5",
					"name" : "lax_chromakey.maxpat",
					"numinlets" : 2
				}

			}
, 			{
				"box" : 				{
					"maxclass" : "newobj",
					"text" : "gate 1 1",
					"numoutlets" : 1,
					"fontsize" : 9.0,
					"outlettype" : [ "" ],
					"patching_rect" : [ 205.0, 179.0, 43.0, 17.0 ],
					"id" : "obj-18",
					"fontname" : "Arial",
					"numinlets" : 2
				}

			}
, 			{
				"box" : 				{
					"maxclass" : "message",
					"text" : "set $1",
					"numoutlets" : 1,
					"fontsize" : 9.0,
					"outlettype" : [ "" ],
					"patching_rect" : [ 115.0, 119.0, 35.0, 15.0 ],
					"id" : "obj-71",
					"fontname" : "Arial",
					"numinlets" : 2
				}

			}
, 			{
				"box" : 				{
					"maxclass" : "newobj",
					"text" : "p multi",
					"numoutlets" : 1,
					"fontsize" : 9.0,
					"outlettype" : [ "jit_matrix" ],
					"patching_rect" : [ 584.0, 528.0, 46.0, 17.0 ],
					"id" : "obj-68",
					"fontname" : "Arial",
					"numinlets" : 3,
					"patcher" : 					{
						"fileversion" : 1,
						"rect" : [ 376.0, 284.0, 413.0, 324.0 ],
						"bglocked" : 0,
						"defrect" : [ 376.0, 284.0, 413.0, 324.0 ],
						"openrect" : [ 0.0, 0.0, 0.0, 0.0 ],
						"openinpresentation" : 0,
						"default_fontsize" : 12.0,
						"default_fontface" : 0,
						"default_fontname" : "Arial",
						"gridonopen" : 0,
						"gridsize" : [ 15.0, 15.0 ],
						"gridsnaponopen" : 0,
						"toolbarvisible" : 1,
						"boxanimatetime" : 200,
						"imprint" : 0,
						"enablehscroll" : 1,
						"enablevscroll" : 1,
						"devicewidth" : 0.0,
						"boxes" : [ 							{
								"box" : 								{
									"maxclass" : "newobj",
									"text" : "resolution.maxpat",
									"numoutlets" : 2,
									"fontsize" : 9.0,
									"outlettype" : [ "", "" ],
									"patching_rect" : [ 102.0, 39.0, 82.0, 17.0 ],
									"id" : "obj-12",
									"fontname" : "Arial",
									"numinlets" : 0
								}

							}
, 							{
								"box" : 								{
									"maxclass" : "newobj",
									"text" : "jit.matrix @thru 0",
									"numoutlets" : 2,
									"fontsize" : 9.0,
									"outlettype" : [ "jit_matrix", "" ],
									"patching_rect" : [ 191.0, 88.0, 79.0, 17.0 ],
									"id" : "obj-11",
									"fontname" : "Arial",
									"numinlets" : 1
								}

							}
, 							{
								"box" : 								{
									"maxclass" : "newobj",
									"text" : "t b l",
									"numoutlets" : 2,
									"fontsize" : 9.0,
									"outlettype" : [ "bang", "" ],
									"patching_rect" : [ 220.0, 36.0, 34.5, 17.0 ],
									"id" : "obj-5",
									"fontname" : "Arial",
									"numinlets" : 1
								}

							}
, 							{
								"box" : 								{
									"maxclass" : "comment",
									"text" : "nécessaire afin de ne pas avoir de flash lors de la première utilisation de alphablend",
									"linecount" : 4,
									"numoutlets" : 0,
									"fontsize" : 10.0,
									"patching_rect" : [ 24.0, 168.0, 126.0, 52.0 ],
									"id" : "obj-9",
									"fontname" : "Arial",
									"numinlets" : 1
								}

							}
, 							{
								"box" : 								{
									"maxclass" : "newobj",
									"text" : "t b l",
									"numoutlets" : 2,
									"fontsize" : 9.0,
									"outlettype" : [ "bang", "" ],
									"patching_rect" : [ 51.0, 98.0, 32.5, 17.0 ],
									"id" : "obj-18",
									"fontname" : "Arial",
									"numinlets" : 1
								}

							}
, 							{
								"box" : 								{
									"maxclass" : "newobj",
									"text" : "loadmess setall 0 0 0 0",
									"numoutlets" : 1,
									"fontsize" : 9.0,
									"outlettype" : [ "" ],
									"patching_rect" : [ 51.0, 15.0, 103.0, 17.0 ],
									"id" : "obj-10",
									"fontname" : "Arial",
									"numinlets" : 1
								}

							}
, 							{
								"box" : 								{
									"maxclass" : "newobj",
									"text" : "jit.matrix 4 char 320 240",
									"numoutlets" : 2,
									"fontsize" : 9.0,
									"outlettype" : [ "jit_matrix", "" ],
									"patching_rect" : [ 51.0, 126.0, 107.0, 17.0 ],
									"id" : "obj-4",
									"fontname" : "Arial",
									"numinlets" : 1
								}

							}
, 							{
								"box" : 								{
									"maxclass" : "newobj",
									"text" : "prepend mode",
									"numoutlets" : 1,
									"fontsize" : 12.0,
									"outlettype" : [ "" ],
									"patching_rect" : [ 265.0, 64.0, 88.0, 20.0 ],
									"id" : "obj-2",
									"fontname" : "Arial",
									"numinlets" : 1
								}

							}
, 							{
								"box" : 								{
									"maxclass" : "newobj",
									"text" : "jit.alphablend",
									"numoutlets" : 2,
									"fontsize" : 9.0,
									"outlettype" : [ "jit_matrix", "" ],
									"patching_rect" : [ 191.0, 178.0, 64.0, 17.0 ],
									"id" : "obj-3",
									"fontname" : "Arial",
									"numinlets" : 2
								}

							}
, 							{
								"box" : 								{
									"maxclass" : "outlet",
									"numoutlets" : 0,
									"patching_rect" : [ 191.0, 213.0, 15.0, 15.0 ],
									"id" : "obj-1",
									"numinlets" : 1,
									"comment" : ""
								}

							}
, 							{
								"box" : 								{
									"maxclass" : "inlet",
									"numoutlets" : 1,
									"outlettype" : [ "int" ],
									"patching_rect" : [ 265.0, 10.0, 15.0, 15.0 ],
									"id" : "obj-6",
									"numinlets" : 0,
									"comment" : "Normal/inverse (0/1)"
								}

							}
, 							{
								"box" : 								{
									"maxclass" : "inlet",
									"numoutlets" : 1,
									"outlettype" : [ "" ],
									"patching_rect" : [ 191.0, 11.0, 15.0, 15.0 ],
									"id" : "obj-7",
									"numinlets" : 0,
									"comment" : "B"
								}

							}
, 							{
								"box" : 								{
									"maxclass" : "inlet",
									"numoutlets" : 1,
									"outlettype" : [ "" ],
									"patching_rect" : [ 220.0, 11.0, 15.0, 15.0 ],
									"id" : "obj-8",
									"numinlets" : 0,
									"comment" : "A"
								}

							}
 ],
						"lines" : [ 							{
								"patchline" : 								{
									"source" : [ "obj-4", 0 ],
									"destination" : [ "obj-3", 1 ],
									"hidden" : 0,
									"midpoints" : [ 60.5, 160.0, 245.5, 160.0 ]
								}

							}
, 							{
								"patchline" : 								{
									"source" : [ "obj-6", 0 ],
									"destination" : [ "obj-2", 0 ],
									"hidden" : 0,
									"midpoints" : [  ]
								}

							}
, 							{
								"patchline" : 								{
									"source" : [ "obj-2", 0 ],
									"destination" : [ "obj-3", 0 ],
									"hidden" : 0,
									"midpoints" : [ 274.5, 121.0, 200.5, 121.0 ]
								}

							}
, 							{
								"patchline" : 								{
									"source" : [ "obj-3", 0 ],
									"destination" : [ "obj-1", 0 ],
									"hidden" : 0,
									"midpoints" : [  ]
								}

							}
, 							{
								"patchline" : 								{
									"source" : [ "obj-18", 1 ],
									"destination" : [ "obj-4", 0 ],
									"hidden" : 0,
									"midpoints" : [ 74.0, 121.0, 60.5, 121.0 ]
								}

							}
, 							{
								"patchline" : 								{
									"source" : [ "obj-18", 0 ],
									"destination" : [ "obj-4", 0 ],
									"hidden" : 0,
									"midpoints" : [  ]
								}

							}
, 							{
								"patchline" : 								{
									"source" : [ "obj-10", 0 ],
									"destination" : [ "obj-18", 0 ],
									"hidden" : 0,
									"midpoints" : [  ]
								}

							}
, 							{
								"patchline" : 								{
									"source" : [ "obj-11", 0 ],
									"destination" : [ "obj-3", 0 ],
									"hidden" : 0,
									"midpoints" : [  ]
								}

							}
, 							{
								"patchline" : 								{
									"source" : [ "obj-7", 0 ],
									"destination" : [ "obj-11", 0 ],
									"hidden" : 0,
									"midpoints" : [  ]
								}

							}
, 							{
								"patchline" : 								{
									"source" : [ "obj-8", 0 ],
									"destination" : [ "obj-5", 0 ],
									"hidden" : 0,
									"midpoints" : [  ]
								}

							}
, 							{
								"patchline" : 								{
									"source" : [ "obj-5", 1 ],
									"destination" : [ "obj-3", 1 ],
									"hidden" : 0,
									"midpoints" : [  ]
								}

							}
, 							{
								"patchline" : 								{
									"source" : [ "obj-5", 0 ],
									"destination" : [ "obj-11", 0 ],
									"hidden" : 0,
									"midpoints" : [ 229.5, 70.0, 200.5, 70.0 ]
								}

							}
, 							{
								"patchline" : 								{
									"source" : [ "obj-12", 1 ],
									"destination" : [ "obj-11", 0 ],
									"hidden" : 0,
									"midpoints" : [ 174.5, 71.5, 200.5, 71.5 ]
								}

							}
, 							{
								"patchline" : 								{
									"source" : [ "obj-10", 0 ],
									"destination" : [ "obj-11", 0 ],
									"hidden" : 0,
									"midpoints" : [ 60.5, 80.5, 200.5, 80.5 ]
								}

							}
 ]
					}
,
					"saved_object_attributes" : 					{
						"fontface" : 0,
						"fontsize" : 12.0,
						"default_fontface" : 0,
						"default_fontname" : "Arial",
						"fontname" : "Arial",
						"default_fontsize" : 12.0,
						"globalpatchername" : ""
					}

				}

			}
, 			{
				"box" : 				{
					"maxclass" : "newobj",
					"text" : "t 1",
					"numoutlets" : 1,
					"fontsize" : 9.0,
					"outlettype" : [ "int" ],
					"patching_rect" : [ 283.0, 343.0, 21.0, 17.0 ],
					"id" : "obj-70",
					"fontname" : "Arial",
					"numinlets" : 1
				}

			}
, 			{
				"box" : 				{
					"maxclass" : "newobj",
					"text" : "t 0",
					"numoutlets" : 1,
					"fontsize" : 9.0,
					"outlettype" : [ "int" ],
					"patching_rect" : [ 261.0, 343.0, 21.0, 17.0 ],
					"id" : "obj-67",
					"fontname" : "Arial",
					"numinlets" : 1
				}

			}
, 			{
				"box" : 				{
					"maxclass" : "newobj",
					"text" : "s convers_mix",
					"numoutlets" : 0,
					"fontsize" : 9.0,
					"patching_rect" : [ 261.0, 363.0, 68.0, 17.0 ],
					"id" : "obj-66",
					"fontname" : "Arial",
					"numinlets" : 1
				}

			}
, 			{
				"box" : 				{
					"maxclass" : "newobj",
					"text" : "select 0",
					"numoutlets" : 2,
					"fontsize" : 9.0,
					"outlettype" : [ "bang", "" ],
					"patching_rect" : [ 260.0, 324.0, 42.0, 17.0 ],
					"id" : "obj-63",
					"fontname" : "Arial",
					"numinlets" : 2
				}

			}
, 			{
				"box" : 				{
					"maxclass" : "newobj",
					"text" : "t b",
					"numoutlets" : 1,
					"fontsize" : 9.0,
					"outlettype" : [ "bang" ],
					"patching_rect" : [ 425.0, 186.0, 21.0, 17.0 ],
					"id" : "obj-58",
					"fontname" : "Arial",
					"numinlets" : 1
				}

			}
, 			{
				"box" : 				{
					"maxclass" : "newobj",
					"text" : "i",
					"numoutlets" : 1,
					"fontsize" : 9.0,
					"outlettype" : [ "int" ],
					"patching_rect" : [ 51.0, 166.0, 32.5, 17.0 ],
					"id" : "obj-57",
					"fontname" : "Arial",
					"numinlets" : 2
				}

			}
, 			{
				"box" : 				{
					"maxclass" : "comment",
					"text" : "multi bascule auto sur addition",
					"linecount" : 2,
					"numoutlets" : 0,
					"fontsize" : 10.0,
					"patching_rect" : [ 358.0, 120.0, 87.0, 29.0 ],
					"id" : "obj-65",
					"fontname" : "Arial",
					"numinlets" : 1
				}

			}
, 			{
				"box" : 				{
					"maxclass" : "comment",
					"text" : "module permettant le loop correct en cas de freeze actif",
					"linecount" : 3,
					"numoutlets" : 0,
					"fontsize" : 10.0,
					"patching_rect" : [ 87.0, 287.0, 95.0, 41.0 ],
					"id" : "obj-64",
					"fontname" : "Arial",
					"numinlets" : 1
				}

			}
, 			{
				"box" : 				{
					"maxclass" : "newobj",
					"text" : "deferlow",
					"numoutlets" : 1,
					"fontsize" : 9.0,
					"outlettype" : [ "" ],
					"patching_rect" : [ 5.0, 284.0, 45.0, 17.0 ],
					"id" : "obj-62",
					"fontname" : "Arial",
					"numinlets" : 1
				}

			}
, 			{
				"box" : 				{
					"maxclass" : "newobj",
					"text" : "gate",
					"numoutlets" : 1,
					"fontsize" : 9.0,
					"outlettype" : [ "" ],
					"patching_rect" : [ 50.0, 308.0, 32.5, 17.0 ],
					"id" : "obj-61",
					"fontname" : "Arial",
					"numinlets" : 2
				}

			}
, 			{
				"box" : 				{
					"maxclass" : "newobj",
					"text" : "r loopon",
					"numoutlets" : 1,
					"color" : [ 0.611765, 0.701961, 1.0, 1.0 ],
					"fontsize" : 9.0,
					"outlettype" : [ "" ],
					"patching_rect" : [ 5.0, 265.0, 46.0, 17.0 ],
					"id" : "obj-110",
					"fontname" : "Arial",
					"numinlets" : 0
				}

			}
, 			{
				"box" : 				{
					"maxclass" : "newobj",
					"text" : "t 5",
					"numoutlets" : 1,
					"fontsize" : 9.0,
					"outlettype" : [ "int" ],
					"patching_rect" : [ 50.0, 364.0, 21.0, 17.0 ],
					"id" : "obj-60",
					"fontname" : "Arial",
					"numinlets" : 1
				}

			}
, 			{
				"box" : 				{
					"maxclass" : "newobj",
					"text" : "select 1 0",
					"numoutlets" : 3,
					"fontsize" : 9.0,
					"outlettype" : [ "bang", "bang", "" ],
					"patching_rect" : [ 50.0, 334.0, 49.0, 17.0 ],
					"id" : "obj-59",
					"fontname" : "Arial",
					"numinlets" : 1
				}

			}
, 			{
				"box" : 				{
					"maxclass" : "newobj",
					"text" : "i 1",
					"numoutlets" : 1,
					"fontsize" : 9.0,
					"outlettype" : [ "int" ],
					"patching_rect" : [ 191.0, 363.0, 32.5, 17.0 ],
					"id" : "obj-52",
					"fontname" : "Arial",
					"numinlets" : 2
				}

			}
, 			{
				"box" : 				{
					"maxclass" : "newobj",
					"text" : "t b 0",
					"numoutlets" : 2,
					"fontsize" : 9.0,
					"outlettype" : [ "bang", "int" ],
					"patching_rect" : [ 120.0, 212.0, 32.5, 17.0 ],
					"id" : "obj-50",
					"fontname" : "Arial",
					"numinlets" : 1
				}

			}
, 			{
				"box" : 				{
					"maxclass" : "newobj",
					"text" : "if $i1==1 && $i2==0 then 1",
					"numoutlets" : 1,
					"fontsize" : 9.0,
					"outlettype" : [ "" ],
					"patching_rect" : [ 63.0, 269.0, 117.0, 17.0 ],
					"id" : "obj-49",
					"fontname" : "Arial",
					"numinlets" : 2
				}

			}
, 			{
				"box" : 				{
					"maxclass" : "newobj",
					"text" : "if $i1==0 && $i2==0 then 0",
					"numoutlets" : 1,
					"fontsize" : 9.0,
					"outlettype" : [ "" ],
					"patching_rect" : [ 45.0, 249.0, 117.0, 17.0 ],
					"id" : "obj-48",
					"fontname" : "Arial",
					"numinlets" : 2
				}

			}
, 			{
				"box" : 				{
					"maxclass" : "newobj",
					"text" : "t 1",
					"numoutlets" : 1,
					"fontsize" : 9.0,
					"outlettype" : [ "int" ],
					"patching_rect" : [ 318.0, 184.0, 21.0, 17.0 ],
					"id" : "obj-44",
					"fontname" : "Arial",
					"numinlets" : 1
				}

			}
, 			{
				"box" : 				{
					"maxclass" : "newobj",
					"text" : "select 1",
					"numoutlets" : 2,
					"fontsize" : 9.0,
					"outlettype" : [ "bang", "" ],
					"patching_rect" : [ 344.0, 157.0, 42.0, 17.0 ],
					"id" : "obj-43",
					"fontname" : "Arial",
					"numinlets" : 2
				}

			}
, 			{
				"box" : 				{
					"maxclass" : "newobj",
					"text" : "t 3 0",
					"numoutlets" : 2,
					"fontsize" : 9.0,
					"outlettype" : [ "int", "int" ],
					"patching_rect" : [ 339.0, 201.0, 32.5, 17.0 ],
					"id" : "obj-42",
					"fontname" : "Arial",
					"numinlets" : 1
				}

			}
, 			{
				"box" : 				{
					"maxclass" : "newobj",
					"text" : "r multi_window",
					"numoutlets" : 1,
					"fontsize" : 9.0,
					"outlettype" : [ "" ],
					"patching_rect" : [ 344.0, 100.0, 70.0, 17.0 ],
					"id" : "obj-41",
					"fontname" : "Arial",
					"numinlets" : 0
				}

			}
, 			{
				"box" : 				{
					"maxclass" : "newobj",
					"text" : "loadmess 0",
					"numoutlets" : 1,
					"fontsize" : 9.0,
					"outlettype" : [ "" ],
					"patching_rect" : [ 35.0, 116.0, 57.0, 17.0 ],
					"id" : "obj-31",
					"fontname" : "Arial",
					"numinlets" : 1
				}

			}
, 			{
				"box" : 				{
					"maxclass" : "newobj",
					"text" : "t 0",
					"numoutlets" : 1,
					"fontsize" : 9.0,
					"outlettype" : [ "int" ],
					"patching_rect" : [ 84.0, 209.0, 21.0, 17.0 ],
					"id" : "obj-56",
					"fontname" : "Arial",
					"numinlets" : 1
				}

			}
, 			{
				"box" : 				{
					"maxclass" : "newobj",
					"text" : "!- 1",
					"numoutlets" : 1,
					"fontsize" : 9.0,
					"outlettype" : [ "int" ],
					"patching_rect" : [ 84.0, 167.0, 32.5, 17.0 ],
					"id" : "obj-55",
					"fontname" : "Arial",
					"numinlets" : 2
				}

			}
, 			{
				"box" : 				{
					"maxclass" : "newobj",
					"text" : "gate 1 1",
					"numoutlets" : 1,
					"fontsize" : 9.0,
					"outlettype" : [ "" ],
					"patching_rect" : [ 84.0, 187.0, 43.0, 17.0 ],
					"id" : "obj-54",
					"fontname" : "Arial",
					"numinlets" : 2
				}

			}
, 			{
				"box" : 				{
					"maxclass" : "inlet",
					"numoutlets" : 1,
					"outlettype" : [ "" ],
					"patching_rect" : [ 108.0, 26.0, 15.0, 15.0 ],
					"id" : "obj-53",
					"numinlets" : 0,
					"comment" : "reset compositing mode (bang)"
				}

			}
, 			{
				"box" : 				{
					"maxclass" : "radiogroup",
					"numoutlets" : 1,
					"outlettype" : [ "" ],
					"presentation_rect" : [ 58.0, 191.0, 18.0, 18.0 ],
					"patching_rect" : [ 84.0, 143.0, 18.0, 18.0 ],
					"presentation" : 1,
					"id" : "obj-51",
					"numinlets" : 1,
					"itemtype" : 1,
					"size" : 1,
					"values" : [ 0 ],
					"disabled" : [ 0 ]
				}

			}
, 			{
				"box" : 				{
					"maxclass" : "comment",
					"text" : "Freeze",
					"numoutlets" : 0,
					"fontsize" : 12.0,
					"presentation_rect" : [ 12.967102, 190.072815, 46.175613, 21.0 ],
					"patching_rect" : [ 45.610901, 83.899292, 73.0, 21.0 ],
					"presentation" : 1,
					"id" : "obj-102",
					"fontname" : "Bradley Hand ITC TT Bold",
					"numinlets" : 1
				}

			}
, 			{
				"box" : 				{
					"maxclass" : "inlet",
					"numoutlets" : 1,
					"outlettype" : [ "" ],
					"patching_rect" : [ 818.0, 264.0, 15.0, 15.0 ],
					"id" : "obj-40",
					"numinlets" : 0,
					"comment" : "RGBA list"
				}

			}
, 			{
				"box" : 				{
					"maxclass" : "comment",
					"text" : "Compositing mode",
					"numoutlets" : 0,
					"fontsize" : 14.0,
					"presentation_rect" : [ 14.69046, 6.145233, 125.0, 24.0 ],
					"patching_rect" : [ 617.794006, 144.072418, 132.0, 24.0 ],
					"presentation" : 1,
					"id" : "obj-99",
					"fontname" : "Bradley Hand ITC TT Bold",
					"numinlets" : 1
				}

			}
, 			{
				"box" : 				{
					"maxclass" : "panel",
					"numoutlets" : 0,
					"presentation_rect" : [ 15.458618, 8.107765, 128.309189, 20.379515 ],
					"bgcolor" : [ 1.0, 1.0, 1.0, 1.0 ],
					"patching_rect" : [ 573.0, 19.0, 45.0, 31.0 ],
					"bordercolor" : [ 1.0, 1.0, 1.0, 1.0 ],
					"presentation" : 1,
					"id" : "obj-100",
					"rounded" : 23,
					"numinlets" : 1
				}

			}
, 			{
				"box" : 				{
					"maxclass" : "newobj",
					"text" : "+ 1",
					"numoutlets" : 1,
					"fontsize" : 9.0,
					"outlettype" : [ "int" ],
					"patching_rect" : [ 493.0, 205.0, 27.0, 17.0 ],
					"id" : "obj-2",
					"fontname" : "Arial",
					"numinlets" : 2
				}

			}
, 			{
				"box" : 				{
					"maxclass" : "outlet",
					"numoutlets" : 0,
					"patching_rect" : [ 343.0, 256.0, 15.0, 15.0 ],
					"id" : "obj-3",
					"numinlets" : 1,
					"comment" : "video direct"
				}

			}
, 			{
				"box" : 				{
					"maxclass" : "outlet",
					"numoutlets" : 0,
					"patching_rect" : [ 493.0, 226.0, 15.0, 15.0 ],
					"id" : "obj-4",
					"numinlets" : 1,
					"comment" : "Direct/Indirect (0/1)"
				}

			}
, 			{
				"box" : 				{
					"maxclass" : "jsui",
					"numoutlets" : 2,
					"outlettype" : [ "", "" ],
					"presentation_rect" : [ 210.0, 30.0, 69.0, 22.0 ],
					"patching_rect" : [ 493.0, 152.0, 69.0, 22.0 ],
					"presentation" : 1,
					"id" : "obj-7",
					"border" : 0,
					"filename" : "bypass.js",
					"numinlets" : 1,
					"jsarguments" : [ "Direct", "Indirect" ]
				}

			}
, 			{
				"box" : 				{
					"maxclass" : "inlet",
					"varname" : "loop_loop",
					"numoutlets" : 1,
					"outlettype" : [ "" ],
					"patching_rect" : [ 915.0, 276.0, 15.0, 15.0 ],
					"id" : "obj-8",
					"numinlets" : 0,
					"comment" : "loop_loop"
				}

			}
, 			{
				"box" : 				{
					"maxclass" : "newobj",
					"text" : "route loop_loop",
					"numoutlets" : 2,
					"fontsize" : 9.0,
					"outlettype" : [ "", "" ],
					"patching_rect" : [ 915.0, 306.0, 79.0, 17.0 ],
					"id" : "obj-9",
					"fontname" : "Arial",
					"numinlets" : 1
				}

			}
, 			{
				"box" : 				{
					"maxclass" : "newobj",
					"text" : "select 0 1",
					"numoutlets" : 3,
					"fontsize" : 9.0,
					"outlettype" : [ "bang", "bang", "" ],
					"patching_rect" : [ 915.0, 330.0, 55.0, 17.0 ],
					"id" : "obj-10",
					"fontname" : "Arial",
					"numinlets" : 1
				}

			}
, 			{
				"box" : 				{
					"maxclass" : "message",
					"text" : "script respondtoclick mix",
					"numoutlets" : 1,
					"fontsize" : 9.0,
					"outlettype" : [ "" ],
					"patching_rect" : [ 989.0, 412.0, 125.0, 15.0 ],
					"id" : "obj-11",
					"fontname" : "Arial",
					"numinlets" : 2
				}

			}
, 			{
				"box" : 				{
					"maxclass" : "message",
					"text" : "script ignoreclick mix",
					"numoutlets" : 1,
					"fontsize" : 9.0,
					"outlettype" : [ "" ],
					"patching_rect" : [ 875.0, 412.0, 109.0, 15.0 ],
					"id" : "obj-12",
					"fontname" : "Arial",
					"numinlets" : 2
				}

			}
, 			{
				"box" : 				{
					"maxclass" : "message",
					"text" : "script respondtoclick typ",
					"numoutlets" : 1,
					"fontsize" : 9.0,
					"outlettype" : [ "" ],
					"patching_rect" : [ 975.0, 390.0, 123.0, 15.0 ],
					"id" : "obj-13",
					"fontname" : "Arial",
					"numinlets" : 2
				}

			}
, 			{
				"box" : 				{
					"maxclass" : "message",
					"text" : "script ignoreclick typ",
					"numoutlets" : 1,
					"fontsize" : 9.0,
					"outlettype" : [ "" ],
					"patching_rect" : [ 861.0, 390.0, 107.0, 15.0 ],
					"id" : "obj-14",
					"fontname" : "Arial",
					"numinlets" : 2
				}

			}
, 			{
				"box" : 				{
					"maxclass" : "newobj",
					"text" : "thispatcher",
					"numoutlets" : 2,
					"fontsize" : 9.0,
					"outlettype" : [ "", "" ],
					"patching_rect" : [ 931.0, 483.0, 61.0, 17.0 ],
					"id" : "obj-15",
					"fontname" : "Arial",
					"numinlets" : 1,
					"save" : [ "#N", "thispatcher", ";", "#Q", "end", ";" ]
				}

			}
, 			{
				"box" : 				{
					"maxclass" : "inlet",
					"numoutlets" : 1,
					"outlettype" : [ "" ],
					"patching_rect" : [ 377.0, 26.0, 15.0, 15.0 ],
					"id" : "obj-20",
					"numinlets" : 0,
					"comment" : "crossfade value"
				}

			}
, 			{
				"box" : 				{
					"maxclass" : "jsui",
					"varname" : "mix",
					"numoutlets" : 1,
					"outlettype" : [ "" ],
					"presentation_rect" : [ 21.0, 58.0, 258.0, 28.0 ],
					"patching_rect" : [ 240.0, 285.0, 258.0, 28.0 ],
					"presentation" : 1,
					"id" : "obj-21",
					"border" : 0,
					"filename" : "simle_slider.js",
					"numinlets" : 1,
					"jsarguments" : [  ]
				}

			}
, 			{
				"box" : 				{
					"maxclass" : "inlet",
					"numoutlets" : 1,
					"outlettype" : [ "" ],
					"patching_rect" : [ 225.0, 26.0, 15.0, 15.0 ],
					"id" : "obj-22",
					"numinlets" : 0,
					"comment" : "computing mode"
				}

			}
, 			{
				"box" : 				{
					"maxclass" : "newobj",
					"text" : "+ 1",
					"numoutlets" : 1,
					"fontsize" : 9.0,
					"outlettype" : [ "int" ],
					"patching_rect" : [ 215.0, 330.0, 32.5, 17.0 ],
					"id" : "obj-25",
					"fontname" : "Arial",
					"numinlets" : 2
				}

			}
, 			{
				"box" : 				{
					"maxclass" : "umenu",
					"varname" : "typ",
					"numoutlets" : 3,
					"fontsize" : 13.0,
					"textcolor2" : [ 0.121569, 0.121569, 0.121569, 1.0 ],
					"outlettype" : [ "int", "", "" ],
					"presentation_rect" : [ 60.0, 30.0, 133.0, 25.0 ],
					"items" : [ "crossfade", ",", "chroma-keying", ",", "math. operation", ",", "Alpha Blend" ],
					"pattrmode" : 1,
					"hltcolor" : [ 1.0, 1.0, 1.0, 1.0 ],
					"types" : [  ],
					"patching_rect" : [ 205.0, 244.0, 126.0, 25.0 ],
					"arrowframe" : 0,
					"presentation" : 1,
					"id" : "obj-26",
					"framecolor" : [ 1.0, 1.0, 1.0, 1.0 ],
					"fontname" : "Comic Sans MS",
					"bgcolor2" : [ 0.784314, 0.870588, 0.862745, 1.0 ],
					"textcolor" : [ 0.121569, 0.121569, 0.121569, 1.0 ],
					"numinlets" : 1,
					"discolor" : [ 0.439216, 0.439216, 0.439216, 1.0 ],
					"togcolor" : [ 0.552941, 0.552941, 0.552941, 1.0 ]
				}

			}
, 			{
				"box" : 				{
					"maxclass" : "outlet",
					"numoutlets" : 0,
					"patching_rect" : [ 356.0, 651.0, 15.0, 15.0 ],
					"id" : "obj-27",
					"numinlets" : 1,
					"comment" : "mixed video out"
				}

			}
, 			{
				"box" : 				{
					"maxclass" : "inlet",
					"numoutlets" : 1,
					"outlettype" : [ "" ],
					"patching_rect" : [ 332.0, 26.0, 15.0, 15.0 ],
					"id" : "obj-28",
					"numinlets" : 0,
					"comment" : "source2"
				}

			}
, 			{
				"box" : 				{
					"maxclass" : "inlet",
					"numoutlets" : 1,
					"outlettype" : [ "" ],
					"patching_rect" : [ 443.0, 26.0, 15.0, 15.0 ],
					"id" : "obj-29",
					"numinlets" : 0,
					"comment" : "source1"
				}

			}
, 			{
				"box" : 				{
					"maxclass" : "newobj",
					"text" : "p composites.showhide",
					"numoutlets" : 1,
					"fontsize" : 9.0,
					"outlettype" : [ "" ],
					"patching_rect" : [ 56.0, 434.0, 110.0, 17.0 ],
					"id" : "obj-30",
					"fontname" : "Arial",
					"numinlets" : 1,
					"patcher" : 					{
						"fileversion" : 1,
						"rect" : [ 501.0, 376.0, 531.0, 304.0 ],
						"bglocked" : 0,
						"defrect" : [ 501.0, 376.0, 531.0, 304.0 ],
						"openrect" : [ 0.0, 0.0, 0.0, 0.0 ],
						"openinpresentation" : 0,
						"default_fontsize" : 12.0,
						"default_fontface" : 0,
						"default_fontname" : "Arial",
						"gridonopen" : 0,
						"gridsize" : [ 15.0, 15.0 ],
						"gridsnaponopen" : 0,
						"toolbarvisible" : 1,
						"boxanimatetime" : 200,
						"imprint" : 0,
						"enablehscroll" : 1,
						"enablevscroll" : 1,
						"devicewidth" : 0.0,
						"boxes" : [ 							{
								"box" : 								{
									"maxclass" : "message",
									"text" : "script hide math, script hide chroma, script show mode_alpha, script bringtofront mode_alpha",
									"numoutlets" : 1,
									"fontsize" : 9.0,
									"outlettype" : [ "" ],
									"patching_rect" : [ 76.0, 160.0, 381.0, 15.0 ],
									"id" : "obj-8",
									"fontname" : "Arial",
									"numinlets" : 2
								}

							}
, 							{
								"box" : 								{
									"maxclass" : "message",
									"text" : "script show math, script hide chroma, script hide mode_alpha, script bringtofront math",
									"numoutlets" : 1,
									"fontsize" : 9.0,
									"outlettype" : [ "" ],
									"patching_rect" : [ 76.0, 128.0, 352.0, 15.0 ],
									"id" : "obj-2",
									"fontname" : "Arial",
									"numinlets" : 2
								}

							}
, 							{
								"box" : 								{
									"maxclass" : "message",
									"text" : "script hide math, script show chroma, script hide mode_alpha, script bringtofront chroma",
									"numoutlets" : 1,
									"fontsize" : 9.0,
									"outlettype" : [ "" ],
									"patching_rect" : [ 76.0, 97.0, 362.0, 15.0 ],
									"id" : "obj-3",
									"fontname" : "Arial",
									"numinlets" : 2
								}

							}
, 							{
								"box" : 								{
									"maxclass" : "message",
									"text" : "script hide math, script hide chroma, script hide mode_alpha",
									"numoutlets" : 1,
									"fontsize" : 9.0,
									"outlettype" : [ "" ],
									"patching_rect" : [ 76.0, 67.0, 251.0, 15.0 ],
									"id" : "obj-4",
									"fontname" : "Arial",
									"numinlets" : 2
								}

							}
, 							{
								"box" : 								{
									"maxclass" : "outlet",
									"numoutlets" : 0,
									"patching_rect" : [ 76.0, 221.0, 15.0, 15.0 ],
									"id" : "obj-5",
									"numinlets" : 1,
									"comment" : "to thispatcher"
								}

							}
, 							{
								"box" : 								{
									"maxclass" : "newobj",
									"text" : "sel 1 2 3 4",
									"numoutlets" : 5,
									"fontsize" : 9.0,
									"outlettype" : [ "bang", "bang", "bang", "bang", "" ],
									"patching_rect" : [ 5.0, 30.0, 73.0, 17.0 ],
									"id" : "obj-6",
									"fontname" : "Arial",
									"numinlets" : 1
								}

							}
, 							{
								"box" : 								{
									"maxclass" : "inlet",
									"numoutlets" : 1,
									"outlettype" : [ "int" ],
									"patching_rect" : [ 5.0, 11.0, 15.0, 15.0 ],
									"id" : "obj-7",
									"numinlets" : 0,
									"comment" : ""
								}

							}
 ],
						"lines" : [ 							{
								"patchline" : 								{
									"source" : [ "obj-8", 0 ],
									"destination" : [ "obj-5", 0 ],
									"hidden" : 0,
									"midpoints" : [ 85.5, 177.0, 85.0, 177.0 ]
								}

							}
, 							{
								"patchline" : 								{
									"source" : [ "obj-6", 3 ],
									"destination" : [ "obj-8", 0 ],
									"hidden" : 0,
									"midpoints" : [ 55.0, 156.0, 85.5, 156.0 ]
								}

							}
, 							{
								"patchline" : 								{
									"source" : [ "obj-6", 0 ],
									"destination" : [ "obj-4", 0 ],
									"hidden" : 0,
									"midpoints" : [ 14.5, 63.0, 85.5, 63.0 ]
								}

							}
, 							{
								"patchline" : 								{
									"source" : [ "obj-6", 1 ],
									"destination" : [ "obj-3", 0 ],
									"hidden" : 0,
									"midpoints" : [ 28.0, 93.0, 85.5, 93.0 ]
								}

							}
, 							{
								"patchline" : 								{
									"source" : [ "obj-6", 2 ],
									"destination" : [ "obj-2", 0 ],
									"hidden" : 0,
									"midpoints" : [ 41.5, 123.0, 85.5, 123.0 ]
								}

							}
, 							{
								"patchline" : 								{
									"source" : [ "obj-7", 0 ],
									"destination" : [ "obj-6", 0 ],
									"hidden" : 0,
									"midpoints" : [  ]
								}

							}
, 							{
								"patchline" : 								{
									"source" : [ "obj-4", 0 ],
									"destination" : [ "obj-5", 0 ],
									"hidden" : 0,
									"midpoints" : [ 85.5, 84.0, 63.0, 84.0, 63.0, 207.0, 85.0, 207.0 ]
								}

							}
, 							{
								"patchline" : 								{
									"source" : [ "obj-3", 0 ],
									"destination" : [ "obj-5", 0 ],
									"hidden" : 0,
									"midpoints" : [ 85.5, 114.0, 63.0, 114.0, 63.0, 207.0, 85.0, 207.0 ]
								}

							}
, 							{
								"patchline" : 								{
									"source" : [ "obj-2", 0 ],
									"destination" : [ "obj-5", 0 ],
									"hidden" : 0,
									"midpoints" : [ 85.5, 144.0, 63.0, 144.0, 63.0, 207.0, 85.0, 207.0 ]
								}

							}
 ]
					}
,
					"saved_object_attributes" : 					{
						"fontface" : 0,
						"fontsize" : 12.0,
						"default_fontface" : 0,
						"default_fontname" : "Arial",
						"fontname" : "Arial",
						"default_fontsize" : 12.0,
						"globalpatchername" : ""
					}

				}

			}
, 			{
				"box" : 				{
					"maxclass" : "newobj",
					"text" : "p math",
					"numoutlets" : 1,
					"fontsize" : 9.0,
					"outlettype" : [ "jit_matrix" ],
					"patching_rect" : [ 507.0, 529.0, 53.0, 17.0 ],
					"id" : "obj-32",
					"fontname" : "Arial",
					"numinlets" : 4,
					"patcher" : 					{
						"fileversion" : 1,
						"rect" : [ 920.0, 44.0, 371.0, 246.0 ],
						"bglocked" : 0,
						"defrect" : [ 920.0, 44.0, 371.0, 246.0 ],
						"openrect" : [ 0.0, 0.0, 0.0, 0.0 ],
						"openinpresentation" : 0,
						"default_fontsize" : 12.0,
						"default_fontface" : 0,
						"default_fontname" : "Arial",
						"gridonopen" : 0,
						"gridsize" : [ 15.0, 15.0 ],
						"gridsnaponopen" : 0,
						"toolbarvisible" : 1,
						"boxanimatetime" : 200,
						"imprint" : 0,
						"enablehscroll" : 1,
						"enablevscroll" : 1,
						"devicewidth" : 0.0,
						"boxes" : [ 							{
								"box" : 								{
									"maxclass" : "newobj",
									"text" : "t b l",
									"numoutlets" : 2,
									"fontsize" : 9.0,
									"outlettype" : [ "bang", "" ],
									"patching_rect" : [ 320.0, 79.0, 32.5, 17.0 ],
									"id" : "obj-18",
									"fontname" : "Arial",
									"numinlets" : 1
								}

							}
, 							{
								"box" : 								{
									"maxclass" : "newobj",
									"text" : "loadmess setall 0 0 0 0",
									"numoutlets" : 1,
									"fontsize" : 9.0,
									"outlettype" : [ "" ],
									"patching_rect" : [ 320.0, 50.0, 103.0, 17.0 ],
									"id" : "obj-10",
									"fontname" : "Arial",
									"numinlets" : 1
								}

							}
, 							{
								"box" : 								{
									"maxclass" : "newobj",
									"text" : "jit.matrix 4 char 320 240",
									"numoutlets" : 2,
									"fontsize" : 9.0,
									"outlettype" : [ "jit_matrix", "" ],
									"patching_rect" : [ 320.0, 105.0, 107.0, 17.0 ],
									"id" : "obj-11",
									"fontname" : "Arial",
									"numinlets" : 1
								}

							}
, 							{
								"box" : 								{
									"maxclass" : "newobj",
									"text" : "prepend op",
									"numoutlets" : 1,
									"fontsize" : 9.0,
									"outlettype" : [ "" ],
									"patching_rect" : [ 242.0, 79.0, 72.0, 17.0 ],
									"id" : "obj-1",
									"fontname" : "Arial",
									"numinlets" : 1
								}

							}
, 							{
								"box" : 								{
									"maxclass" : "inlet",
									"numoutlets" : 1,
									"outlettype" : [ "" ],
									"patching_rect" : [ 242.0, 45.0, 15.0, 15.0 ],
									"id" : "obj-2",
									"numinlets" : 0,
									"comment" : ""
								}

							}
, 							{
								"box" : 								{
									"maxclass" : "inlet",
									"numoutlets" : 1,
									"outlettype" : [ "float" ],
									"patching_rect" : [ 158.0, 45.0, 15.0, 15.0 ],
									"id" : "obj-3",
									"numinlets" : 0,
									"comment" : ""
								}

							}
, 							{
								"box" : 								{
									"maxclass" : "message",
									"text" : "scale $1",
									"numoutlets" : 1,
									"fontsize" : 9.0,
									"outlettype" : [ "" ],
									"patching_rect" : [ 158.0, 84.0, 45.0, 15.0 ],
									"id" : "obj-4",
									"fontname" : "Arial",
									"numinlets" : 2
								}

							}
, 							{
								"box" : 								{
									"maxclass" : "newobj",
									"text" : "jit.scalebias",
									"numoutlets" : 2,
									"fontsize" : 9.0,
									"outlettype" : [ "jit_matrix", "" ],
									"patching_rect" : [ 132.0, 106.0, 64.0, 17.0 ],
									"id" : "obj-5",
									"fontname" : "Arial",
									"numinlets" : 1
								}

							}
, 							{
								"box" : 								{
									"maxclass" : "newobj",
									"text" : "jit.op @op pass @val 1.",
									"numoutlets" : 2,
									"fontsize" : 9.0,
									"outlettype" : [ "jit_matrix", "" ],
									"hidden" : 1,
									"patching_rect" : [ 33.0, 144.0, 118.0, 17.0 ],
									"id" : "obj-6",
									"fontname" : "Arial",
									"numinlets" : 2
								}

							}
, 							{
								"box" : 								{
									"maxclass" : "outlet",
									"numoutlets" : 0,
									"patching_rect" : [ 33.0, 204.0, 15.0, 15.0 ],
									"id" : "obj-7",
									"numinlets" : 1,
									"comment" : "out"
								}

							}
, 							{
								"box" : 								{
									"maxclass" : "inlet",
									"numoutlets" : 1,
									"outlettype" : [ "" ],
									"patching_rect" : [ 33.0, 43.0, 15.0, 15.0 ],
									"id" : "obj-8",
									"numinlets" : 0,
									"comment" : "A"
								}

							}
, 							{
								"box" : 								{
									"maxclass" : "inlet",
									"numoutlets" : 1,
									"outlettype" : [ "" ],
									"patching_rect" : [ 132.0, 45.0, 15.0, 15.0 ],
									"id" : "obj-9",
									"numinlets" : 0,
									"comment" : "B"
								}

							}
 ],
						"lines" : [ 							{
								"patchline" : 								{
									"source" : [ "obj-11", 0 ],
									"destination" : [ "obj-6", 1 ],
									"hidden" : 0,
									"midpoints" : [ 329.5, 140.5, 141.5, 140.5 ]
								}

							}
, 							{
								"patchline" : 								{
									"source" : [ "obj-10", 0 ],
									"destination" : [ "obj-18", 0 ],
									"hidden" : 0,
									"midpoints" : [  ]
								}

							}
, 							{
								"patchline" : 								{
									"source" : [ "obj-18", 0 ],
									"destination" : [ "obj-11", 0 ],
									"hidden" : 0,
									"midpoints" : [  ]
								}

							}
, 							{
								"patchline" : 								{
									"source" : [ "obj-18", 1 ],
									"destination" : [ "obj-11", 0 ],
									"hidden" : 0,
									"midpoints" : [ 343.0, 100.0, 329.5, 100.0 ]
								}

							}
, 							{
								"patchline" : 								{
									"source" : [ "obj-2", 0 ],
									"destination" : [ "obj-1", 0 ],
									"hidden" : 0,
									"midpoints" : [  ]
								}

							}
, 							{
								"patchline" : 								{
									"source" : [ "obj-3", 0 ],
									"destination" : [ "obj-4", 0 ],
									"hidden" : 0,
									"midpoints" : [  ]
								}

							}
, 							{
								"patchline" : 								{
									"source" : [ "obj-4", 0 ],
									"destination" : [ "obj-5", 0 ],
									"hidden" : 0,
									"midpoints" : [ 167.5, 102.0, 141.5, 102.0 ]
								}

							}
, 							{
								"patchline" : 								{
									"source" : [ "obj-5", 0 ],
									"destination" : [ "obj-6", 1 ],
									"hidden" : 0,
									"midpoints" : [  ]
								}

							}
, 							{
								"patchline" : 								{
									"source" : [ "obj-1", 0 ],
									"destination" : [ "obj-6", 0 ],
									"hidden" : 0,
									"midpoints" : [ 251.5, 135.0, 42.5, 135.0 ]
								}

							}
, 							{
								"patchline" : 								{
									"source" : [ "obj-9", 0 ],
									"destination" : [ "obj-5", 0 ],
									"hidden" : 0,
									"midpoints" : [  ]
								}

							}
, 							{
								"patchline" : 								{
									"source" : [ "obj-8", 0 ],
									"destination" : [ "obj-6", 0 ],
									"hidden" : 0,
									"midpoints" : [  ]
								}

							}
, 							{
								"patchline" : 								{
									"source" : [ "obj-6", 0 ],
									"destination" : [ "obj-7", 0 ],
									"hidden" : 0,
									"midpoints" : [  ]
								}

							}
 ]
					}
,
					"saved_object_attributes" : 					{
						"fontface" : 0,
						"fontsize" : 12.0,
						"default_fontface" : 0,
						"default_fontname" : "Arial",
						"fontname" : "Arial",
						"default_fontsize" : 12.0,
						"globalpatchername" : ""
					}

				}

			}
, 			{
				"box" : 				{
					"maxclass" : "newobj",
					"text" : "p xfade",
					"numoutlets" : 1,
					"fontsize" : 9.0,
					"outlettype" : [ "jit_matrix" ],
					"patching_rect" : [ 336.0, 530.0, 41.0, 17.0 ],
					"id" : "obj-33",
					"fontname" : "Arial",
					"numinlets" : 3,
					"patcher" : 					{
						"fileversion" : 1,
						"rect" : [ 986.0, 136.0, 278.0, 283.0 ],
						"bglocked" : 0,
						"defrect" : [ 986.0, 136.0, 278.0, 283.0 ],
						"openrect" : [ 0.0, 0.0, 0.0, 0.0 ],
						"openinpresentation" : 0,
						"default_fontsize" : 12.0,
						"default_fontface" : 0,
						"default_fontname" : "Arial",
						"gridonopen" : 0,
						"gridsize" : [ 15.0, 15.0 ],
						"gridsnaponopen" : 0,
						"toolbarvisible" : 1,
						"boxanimatetime" : 200,
						"imprint" : 0,
						"enablehscroll" : 1,
						"enablevscroll" : 1,
						"devicewidth" : 0.0,
						"boxes" : [ 							{
								"box" : 								{
									"maxclass" : "newobj",
									"text" : "pipe 100",
									"numoutlets" : 1,
									"fontsize" : 9.0,
									"outlettype" : [ "" ],
									"patching_rect" : [ 5.0, 137.0, 45.0, 17.0 ],
									"id" : "obj-13",
									"fontname" : "Arial",
									"numinlets" : 2
								}

							}
, 							{
								"box" : 								{
									"maxclass" : "newobj",
									"text" : "loadmess setall 0 0 0 0",
									"numoutlets" : 1,
									"fontsize" : 9.0,
									"outlettype" : [ "" ],
									"patching_rect" : [ 155.0, 28.0, 103.0, 17.0 ],
									"id" : "obj-19",
									"fontname" : "Arial",
									"numinlets" : 1
								}

							}
, 							{
								"box" : 								{
									"maxclass" : "newobj",
									"text" : "jit.matrix @thru 1",
									"numoutlets" : 2,
									"fontsize" : 9.0,
									"outlettype" : [ "jit_matrix", "" ],
									"patching_rect" : [ 102.0, 171.0, 79.0, 17.0 ],
									"id" : "obj-5",
									"fontname" : "Arial",
									"numinlets" : 1
								}

							}
, 							{
								"box" : 								{
									"maxclass" : "newobj",
									"text" : "resolution.maxpat",
									"numoutlets" : 2,
									"fontsize" : 9.0,
									"outlettype" : [ "", "" ],
									"patching_rect" : [ 79.0, 125.0, 82.0, 17.0 ],
									"id" : "obj-4",
									"fontname" : "Arial",
									"numinlets" : 0
								}

							}
, 							{
								"box" : 								{
									"maxclass" : "newobj",
									"text" : "prepend xfade",
									"numoutlets" : 1,
									"fontsize" : 9.0,
									"outlettype" : [ "" ],
									"patching_rect" : [ 5.0, 163.0, 68.0, 17.0 ],
									"id" : "obj-20",
									"fontname" : "Arial",
									"numinlets" : 1
								}

							}
, 							{
								"box" : 								{
									"maxclass" : "outlet",
									"numoutlets" : 0,
									"patching_rect" : [ 5.0, 246.0, 15.0, 15.0 ],
									"id" : "obj-1",
									"numinlets" : 1,
									"comment" : ""
								}

							}
, 							{
								"box" : 								{
									"maxclass" : "newobj",
									"text" : "gate 2 2",
									"numoutlets" : 2,
									"fontsize" : 9.0,
									"outlettype" : [ "", "" ],
									"patching_rect" : [ 167.0, 119.0, 43.0, 17.0 ],
									"id" : "obj-2",
									"fontname" : "Arial",
									"numinlets" : 2
								}

							}
, 							{
								"box" : 								{
									"maxclass" : "newobj",
									"text" : "gate 2 0",
									"numoutlets" : 2,
									"fontsize" : 9.0,
									"outlettype" : [ "", "" ],
									"patching_rect" : [ 214.0, 119.0, 43.0, 17.0 ],
									"id" : "obj-3",
									"fontname" : "Arial",
									"numinlets" : 2
								}

							}
, 							{
								"box" : 								{
									"maxclass" : "inlet",
									"numoutlets" : 1,
									"outlettype" : [ "float" ],
									"patching_rect" : [ 26.0, 4.0, 15.0, 15.0 ],
									"id" : "obj-6",
									"numinlets" : 0,
									"comment" : "xfade amt"
								}

							}
, 							{
								"box" : 								{
									"maxclass" : "inlet",
									"numoutlets" : 1,
									"outlettype" : [ "" ],
									"patching_rect" : [ 238.0, 74.0, 15.0, 15.0 ],
									"id" : "obj-7",
									"numinlets" : 0,
									"comment" : "B"
								}

							}
, 							{
								"box" : 								{
									"maxclass" : "inlet",
									"numoutlets" : 1,
									"outlettype" : [ "" ],
									"patching_rect" : [ 191.0, 73.0, 15.0, 15.0 ],
									"id" : "obj-8",
									"numinlets" : 0,
									"comment" : "A"
								}

							}
, 							{
								"box" : 								{
									"maxclass" : "newobj",
									"text" : "jit.xfade",
									"numoutlets" : 2,
									"fontsize" : 9.0,
									"outlettype" : [ "jit_matrix", "" ],
									"patching_rect" : [ 5.0, 208.0, 49.0, 17.0 ],
									"id" : "obj-9",
									"fontname" : "Arial",
									"numinlets" : 2
								}

							}
, 							{
								"box" : 								{
									"maxclass" : "newobj",
									"text" : "t f 1 1",
									"numoutlets" : 3,
									"fontsize" : 9.0,
									"outlettype" : [ "float", "int", "int" ],
									"patching_rect" : [ 95.0, 51.0, 46.0, 17.0 ],
									"id" : "obj-10",
									"fontname" : "Arial",
									"numinlets" : 1
								}

							}
, 							{
								"box" : 								{
									"maxclass" : "newobj",
									"text" : "change",
									"numoutlets" : 3,
									"fontsize" : 9.0,
									"outlettype" : [ "", "int", "int" ],
									"patching_rect" : [ 69.0, 85.0, 40.0, 17.0 ],
									"id" : "obj-11",
									"fontname" : "Arial",
									"numinlets" : 1
								}

							}
, 							{
								"box" : 								{
									"maxclass" : "newobj",
									"text" : "change",
									"numoutlets" : 3,
									"fontsize" : 9.0,
									"outlettype" : [ "", "int", "int" ],
									"patching_rect" : [ 26.0, 85.0, 40.0, 17.0 ],
									"id" : "obj-12",
									"fontname" : "Arial",
									"numinlets" : 1
								}

							}
, 							{
								"box" : 								{
									"maxclass" : "newobj",
									"text" : "t 0 2",
									"numoutlets" : 2,
									"fontsize" : 9.0,
									"outlettype" : [ "int", "int" ],
									"patching_rect" : [ 58.0, 51.0, 30.0, 17.0 ],
									"id" : "obj-14",
									"fontname" : "Arial",
									"numinlets" : 1
								}

							}
, 							{
								"box" : 								{
									"maxclass" : "newobj",
									"text" : "t 2 0",
									"numoutlets" : 2,
									"fontsize" : 9.0,
									"outlettype" : [ "int", "int" ],
									"patching_rect" : [ 26.0, 50.0, 32.5, 17.0 ],
									"id" : "obj-15",
									"fontname" : "Arial",
									"numinlets" : 1
								}

							}
, 							{
								"box" : 								{
									"maxclass" : "newobj",
									"text" : "sel 0. 1.",
									"numoutlets" : 3,
									"fontsize" : 9.0,
									"outlettype" : [ "bang", "bang", "" ],
									"patching_rect" : [ 26.0, 23.0, 45.0, 17.0 ],
									"id" : "obj-18",
									"fontname" : "Arial",
									"numinlets" : 1
								}

							}
 ],
						"lines" : [ 							{
								"patchline" : 								{
									"source" : [ "obj-13", 0 ],
									"destination" : [ "obj-20", 0 ],
									"hidden" : 0,
									"midpoints" : [  ]
								}

							}
, 							{
								"patchline" : 								{
									"source" : [ "obj-10", 0 ],
									"destination" : [ "obj-13", 0 ],
									"hidden" : 0,
									"midpoints" : [ 104.5, 118.0, 14.5, 118.0 ]
								}

							}
, 							{
								"patchline" : 								{
									"source" : [ "obj-3", 0 ],
									"destination" : [ "obj-9", 1 ],
									"hidden" : 0,
									"midpoints" : [ 223.5, 203.0, 44.5, 203.0 ]
								}

							}
, 							{
								"patchline" : 								{
									"source" : [ "obj-4", 0 ],
									"destination" : [ "obj-9", 0 ],
									"hidden" : 0,
									"midpoints" : [ 88.5, 193.0, 14.5, 193.0 ]
								}

							}
, 							{
								"patchline" : 								{
									"source" : [ "obj-20", 0 ],
									"destination" : [ "obj-9", 0 ],
									"hidden" : 0,
									"midpoints" : [  ]
								}

							}
, 							{
								"patchline" : 								{
									"source" : [ "obj-9", 0 ],
									"destination" : [ "obj-1", 0 ],
									"hidden" : 0,
									"midpoints" : [  ]
								}

							}
, 							{
								"patchline" : 								{
									"source" : [ "obj-14", 0 ],
									"destination" : [ "obj-12", 0 ],
									"hidden" : 0,
									"midpoints" : [  ]
								}

							}
, 							{
								"patchline" : 								{
									"source" : [ "obj-18", 1 ],
									"destination" : [ "obj-14", 0 ],
									"hidden" : 0,
									"midpoints" : [ 48.5, 46.0, 67.5, 46.0 ]
								}

							}
, 							{
								"patchline" : 								{
									"source" : [ "obj-14", 1 ],
									"destination" : [ "obj-11", 0 ],
									"hidden" : 0,
									"midpoints" : [  ]
								}

							}
, 							{
								"patchline" : 								{
									"source" : [ "obj-12", 0 ],
									"destination" : [ "obj-2", 0 ],
									"hidden" : 0,
									"midpoints" : [ 35.5, 113.0, 176.5, 113.0 ]
								}

							}
, 							{
								"patchline" : 								{
									"source" : [ "obj-2", 1 ],
									"destination" : [ "obj-1", 0 ],
									"hidden" : 0,
									"midpoints" : [ 200.5, 232.5, 14.0, 232.5 ]
								}

							}
, 							{
								"patchline" : 								{
									"source" : [ "obj-8", 0 ],
									"destination" : [ "obj-2", 1 ],
									"hidden" : 0,
									"midpoints" : [  ]
								}

							}
, 							{
								"patchline" : 								{
									"source" : [ "obj-6", 0 ],
									"destination" : [ "obj-18", 0 ],
									"hidden" : 0,
									"midpoints" : [  ]
								}

							}
, 							{
								"patchline" : 								{
									"source" : [ "obj-15", 0 ],
									"destination" : [ "obj-12", 0 ],
									"hidden" : 0,
									"midpoints" : [  ]
								}

							}
, 							{
								"patchline" : 								{
									"source" : [ "obj-18", 0 ],
									"destination" : [ "obj-15", 0 ],
									"hidden" : 0,
									"midpoints" : [  ]
								}

							}
, 							{
								"patchline" : 								{
									"source" : [ "obj-15", 1 ],
									"destination" : [ "obj-11", 0 ],
									"hidden" : 0,
									"midpoints" : [  ]
								}

							}
, 							{
								"patchline" : 								{
									"source" : [ "obj-7", 0 ],
									"destination" : [ "obj-3", 1 ],
									"hidden" : 0,
									"midpoints" : [  ]
								}

							}
, 							{
								"patchline" : 								{
									"source" : [ "obj-3", 1 ],
									"destination" : [ "obj-1", 0 ],
									"hidden" : 0,
									"midpoints" : [ 247.5, 238.0, 14.0, 238.0 ]
								}

							}
, 							{
								"patchline" : 								{
									"source" : [ "obj-11", 0 ],
									"destination" : [ "obj-3", 0 ],
									"hidden" : 0,
									"midpoints" : [ 78.5, 108.0, 223.5, 108.0 ]
								}

							}
, 							{
								"patchline" : 								{
									"source" : [ "obj-18", 2 ],
									"destination" : [ "obj-10", 0 ],
									"hidden" : 0,
									"midpoints" : [ 61.5, 43.0, 104.5, 43.0 ]
								}

							}
, 							{
								"patchline" : 								{
									"source" : [ "obj-10", 2 ],
									"destination" : [ "obj-12", 0 ],
									"hidden" : 0,
									"midpoints" : [  ]
								}

							}
, 							{
								"patchline" : 								{
									"source" : [ "obj-10", 1 ],
									"destination" : [ "obj-11", 0 ],
									"hidden" : 0,
									"midpoints" : [  ]
								}

							}
, 							{
								"patchline" : 								{
									"source" : [ "obj-19", 0 ],
									"destination" : [ "obj-5", 0 ],
									"hidden" : 0,
									"midpoints" : [ 164.5, 148.914673, 111.5, 148.914673 ]
								}

							}
, 							{
								"patchline" : 								{
									"source" : [ "obj-2", 0 ],
									"destination" : [ "obj-5", 0 ],
									"hidden" : 0,
									"midpoints" : [ 176.5, 158.5, 111.5, 158.5 ]
								}

							}
, 							{
								"patchline" : 								{
									"source" : [ "obj-5", 0 ],
									"destination" : [ "obj-9", 0 ],
									"hidden" : 0,
									"midpoints" : [ 111.5, 197.5, 14.5, 197.5 ]
								}

							}
 ]
					}
,
					"saved_object_attributes" : 					{
						"fontface" : 0,
						"fontsize" : 12.0,
						"default_fontface" : 0,
						"default_fontname" : "Arial",
						"fontname" : "Arial",
						"default_fontsize" : 12.0,
						"globalpatchername" : ""
					}

				}

			}
, 			{
				"box" : 				{
					"maxclass" : "newobj",
					"text" : "gate 5 1",
					"numoutlets" : 5,
					"fontsize" : 9.0,
					"outlettype" : [ "", "", "", "", "" ],
					"patching_rect" : [ 389.0, 436.0, 73.0, 17.0 ],
					"id" : "obj-34",
					"fontname" : "Arial",
					"numinlets" : 2
				}

			}
, 			{
				"box" : 				{
					"maxclass" : "newobj",
					"text" : "gate 4 1",
					"numoutlets" : 4,
					"fontsize" : 9.0,
					"outlettype" : [ "", "", "", "" ],
					"patching_rect" : [ 319.0, 437.0, 59.5, 17.0 ],
					"id" : "obj-35",
					"fontname" : "Arial",
					"numinlets" : 2
				}

			}
, 			{
				"box" : 				{
					"maxclass" : "newobj",
					"text" : "p chromakey",
					"numoutlets" : 1,
					"fontsize" : 9.0,
					"outlettype" : [ "jit_matrix" ],
					"patching_rect" : [ 403.0, 530.0, 92.0, 17.0 ],
					"id" : "obj-36",
					"fontname" : "Arial",
					"numinlets" : 6,
					"patcher" : 					{
						"fileversion" : 1,
						"rect" : [ 314.0, 329.0, 687.0, 194.0 ],
						"bglocked" : 0,
						"defrect" : [ 314.0, 329.0, 687.0, 194.0 ],
						"openrect" : [ 0.0, 0.0, 0.0, 0.0 ],
						"openinpresentation" : 0,
						"default_fontsize" : 12.0,
						"default_fontface" : 0,
						"default_fontname" : "Arial",
						"gridonopen" : 0,
						"gridsize" : [ 15.0, 15.0 ],
						"gridsnaponopen" : 0,
						"toolbarvisible" : 1,
						"boxanimatetime" : 200,
						"imprint" : 0,
						"enablehscroll" : 1,
						"enablevscroll" : 1,
						"devicewidth" : 0.0,
						"boxes" : [ 							{
								"box" : 								{
									"maxclass" : "newobj",
									"text" : "t b l",
									"numoutlets" : 2,
									"fontsize" : 9.0,
									"outlettype" : [ "bang", "" ],
									"patching_rect" : [ 425.0, 74.0, 32.5, 17.0 ],
									"id" : "obj-1",
									"fontname" : "Arial",
									"numinlets" : 1
								}

							}
, 							{
								"box" : 								{
									"maxclass" : "newobj",
									"text" : "loadmess setall 0 0 0 0",
									"numoutlets" : 1,
									"fontsize" : 9.0,
									"outlettype" : [ "" ],
									"patching_rect" : [ 425.0, 45.0, 103.0, 17.0 ],
									"id" : "obj-2",
									"fontname" : "Arial",
									"numinlets" : 1
								}

							}
, 							{
								"box" : 								{
									"maxclass" : "newobj",
									"text" : "jit.matrix 4 char 320 240",
									"numoutlets" : 2,
									"fontsize" : 9.0,
									"outlettype" : [ "jit_matrix", "" ],
									"patching_rect" : [ 425.0, 100.0, 107.0, 17.0 ],
									"id" : "obj-7",
									"fontname" : "Arial",
									"numinlets" : 1
								}

							}
, 							{
								"box" : 								{
									"maxclass" : "newobj",
									"text" : "t b",
									"numoutlets" : 1,
									"fontsize" : 12.0,
									"outlettype" : [ "bang" ],
									"patching_rect" : [ 77.0, 69.0, 24.0, 20.0 ],
									"id" : "obj-19",
									"fontname" : "Arial",
									"numinlets" : 1
								}

							}
, 							{
								"box" : 								{
									"maxclass" : "newobj",
									"text" : "pack color 1. 0. 0. 0.",
									"numoutlets" : 1,
									"fontsize" : 12.0,
									"outlettype" : [ "" ],
									"patching_rect" : [ 77.0, 93.0, 131.0, 20.0 ],
									"id" : "obj-18",
									"fontname" : "Arial",
									"numinlets" : 5
								}

							}
, 							{
								"box" : 								{
									"maxclass" : "newobj",
									"text" : "unpack 0. 0. 0. 0.",
									"numoutlets" : 4,
									"fontsize" : 12.0,
									"outlettype" : [ "float", "float", "float", "float" ],
									"patching_rect" : [ 133.0, 32.0, 103.0, 20.0 ],
									"id" : "obj-17",
									"fontname" : "Arial",
									"numinlets" : 1
								}

							}
, 							{
								"box" : 								{
									"maxclass" : "newobj",
									"text" : "select 0 1",
									"numoutlets" : 3,
									"fontsize" : 12.0,
									"outlettype" : [ "bang", "bang", "" ],
									"patching_rect" : [ 325.0, 57.0, 62.0, 20.0 ],
									"id" : "obj-27",
									"fontname" : "Arial",
									"numinlets" : 1
								}

							}
, 							{
								"box" : 								{
									"maxclass" : "outlet",
									"numoutlets" : 0,
									"patching_rect" : [ 11.0, 168.0, 15.0, 15.0 ],
									"id" : "obj-3",
									"numinlets" : 1,
									"comment" : "out"
								}

							}
, 							{
								"box" : 								{
									"maxclass" : "inlet",
									"numoutlets" : 1,
									"outlettype" : [ "" ],
									"patching_rect" : [ 11.0, 16.0, 15.0, 15.0 ],
									"id" : "obj-4",
									"numinlets" : 0,
									"comment" : "A"
								}

							}
, 							{
								"box" : 								{
									"maxclass" : "inlet",
									"numoutlets" : 1,
									"outlettype" : [ "" ],
									"patching_rect" : [ 63.0, 16.0, 15.0, 15.0 ],
									"id" : "obj-5",
									"numinlets" : 0,
									"comment" : "B"
								}

							}
, 							{
								"box" : 								{
									"maxclass" : "inlet",
									"numoutlets" : 1,
									"outlettype" : [ "" ],
									"patching_rect" : [ 133.0, 16.0, 15.0, 15.0 ],
									"id" : "obj-6",
									"numinlets" : 0,
									"comment" : "color"
								}

							}
, 							{
								"box" : 								{
									"maxclass" : "inlet",
									"numoutlets" : 1,
									"outlettype" : [ "int" ],
									"patching_rect" : [ 325.0, 16.0, 15.0, 15.0 ],
									"id" : "obj-8",
									"numinlets" : 0,
									"comment" : "min"
								}

							}
, 							{
								"box" : 								{
									"maxclass" : "inlet",
									"numoutlets" : 1,
									"outlettype" : [ "float" ],
									"patching_rect" : [ 269.0, 16.0, 15.0, 15.0 ],
									"id" : "obj-9",
									"numinlets" : 0,
									"comment" : "fade"
								}

							}
, 							{
								"box" : 								{
									"maxclass" : "inlet",
									"numoutlets" : 1,
									"outlettype" : [ "float" ],
									"patching_rect" : [ 234.0, 16.0, 15.0, 15.0 ],
									"id" : "obj-10",
									"numinlets" : 0,
									"comment" : "Tol"
								}

							}
, 							{
								"box" : 								{
									"maxclass" : "message",
									"text" : "mode 1",
									"numoutlets" : 1,
									"fontsize" : 9.0,
									"outlettype" : [ "" ],
									"patching_rect" : [ 370.0, 100.0, 40.0, 15.0 ],
									"id" : "obj-11",
									"fontname" : "Arial",
									"numinlets" : 2
								}

							}
, 							{
								"box" : 								{
									"maxclass" : "message",
									"text" : "mode 0",
									"numoutlets" : 1,
									"fontsize" : 9.0,
									"outlettype" : [ "" ],
									"patching_rect" : [ 325.0, 100.0, 40.0, 15.0 ],
									"id" : "obj-12",
									"fontname" : "Arial",
									"numinlets" : 2
								}

							}
, 							{
								"box" : 								{
									"maxclass" : "message",
									"text" : "fade $1",
									"numoutlets" : 1,
									"fontsize" : 9.0,
									"outlettype" : [ "" ],
									"patching_rect" : [ 269.0, 94.0, 42.0, 15.0 ],
									"id" : "obj-14",
									"fontname" : "Arial",
									"numinlets" : 2
								}

							}
, 							{
								"box" : 								{
									"maxclass" : "message",
									"text" : "tol $1",
									"numoutlets" : 1,
									"fontsize" : 9.0,
									"outlettype" : [ "" ],
									"patching_rect" : [ 234.0, 95.0, 35.0, 15.0 ],
									"id" : "obj-20",
									"fontname" : "Arial",
									"numinlets" : 2
								}

							}
, 							{
								"box" : 								{
									"maxclass" : "newobj",
									"text" : "jit.chromakey",
									"numoutlets" : 2,
									"fontsize" : 9.0,
									"outlettype" : [ "jit_matrix", "" ],
									"patching_rect" : [ 11.0, 140.0, 71.0, 17.0 ],
									"id" : "obj-26",
									"fontname" : "Arial",
									"numinlets" : 2
								}

							}
 ],
						"lines" : [ 							{
								"patchline" : 								{
									"source" : [ "obj-7", 0 ],
									"destination" : [ "obj-26", 1 ],
									"hidden" : 0,
									"midpoints" : [ 434.5, 134.0, 72.5, 134.0 ]
								}

							}
, 							{
								"patchline" : 								{
									"source" : [ "obj-2", 0 ],
									"destination" : [ "obj-1", 0 ],
									"hidden" : 0,
									"midpoints" : [  ]
								}

							}
, 							{
								"patchline" : 								{
									"source" : [ "obj-1", 0 ],
									"destination" : [ "obj-7", 0 ],
									"hidden" : 0,
									"midpoints" : [  ]
								}

							}
, 							{
								"patchline" : 								{
									"source" : [ "obj-1", 1 ],
									"destination" : [ "obj-7", 0 ],
									"hidden" : 0,
									"midpoints" : [ 448.0, 95.0, 434.5, 95.0 ]
								}

							}
, 							{
								"patchline" : 								{
									"source" : [ "obj-8", 0 ],
									"destination" : [ "obj-27", 0 ],
									"hidden" : 0,
									"midpoints" : [  ]
								}

							}
, 							{
								"patchline" : 								{
									"source" : [ "obj-27", 0 ],
									"destination" : [ "obj-12", 0 ],
									"hidden" : 0,
									"midpoints" : [  ]
								}

							}
, 							{
								"patchline" : 								{
									"source" : [ "obj-27", 1 ],
									"destination" : [ "obj-11", 0 ],
									"hidden" : 0,
									"midpoints" : [ 356.0, 87.0, 379.5, 87.0 ]
								}

							}
, 							{
								"patchline" : 								{
									"source" : [ "obj-10", 0 ],
									"destination" : [ "obj-20", 0 ],
									"hidden" : 0,
									"midpoints" : [  ]
								}

							}
, 							{
								"patchline" : 								{
									"source" : [ "obj-11", 0 ],
									"destination" : [ "obj-26", 0 ],
									"hidden" : 0,
									"midpoints" : [ 379.5, 122.0, 20.5, 122.0 ]
								}

							}
, 							{
								"patchline" : 								{
									"source" : [ "obj-12", 0 ],
									"destination" : [ "obj-26", 0 ],
									"hidden" : 0,
									"midpoints" : [ 334.5, 122.0, 20.5, 122.0 ]
								}

							}
, 							{
								"patchline" : 								{
									"source" : [ "obj-9", 0 ],
									"destination" : [ "obj-14", 0 ],
									"hidden" : 0,
									"midpoints" : [  ]
								}

							}
, 							{
								"patchline" : 								{
									"source" : [ "obj-5", 0 ],
									"destination" : [ "obj-26", 1 ],
									"hidden" : 0,
									"midpoints" : [  ]
								}

							}
, 							{
								"patchline" : 								{
									"source" : [ "obj-26", 0 ],
									"destination" : [ "obj-3", 0 ],
									"hidden" : 0,
									"midpoints" : [  ]
								}

							}
, 							{
								"patchline" : 								{
									"source" : [ "obj-4", 0 ],
									"destination" : [ "obj-26", 0 ],
									"hidden" : 0,
									"midpoints" : [  ]
								}

							}
, 							{
								"patchline" : 								{
									"source" : [ "obj-20", 0 ],
									"destination" : [ "obj-26", 0 ],
									"hidden" : 0,
									"midpoints" : [ 243.5, 124.0, 20.5, 124.0 ]
								}

							}
, 							{
								"patchline" : 								{
									"source" : [ "obj-14", 0 ],
									"destination" : [ "obj-26", 0 ],
									"hidden" : 0,
									"midpoints" : [ 278.5, 124.0, 20.5, 124.0 ]
								}

							}
, 							{
								"patchline" : 								{
									"source" : [ "obj-6", 0 ],
									"destination" : [ "obj-17", 0 ],
									"hidden" : 0,
									"midpoints" : [  ]
								}

							}
, 							{
								"patchline" : 								{
									"source" : [ "obj-17", 2 ],
									"destination" : [ "obj-18", 4 ],
									"hidden" : 0,
									"midpoints" : [  ]
								}

							}
, 							{
								"patchline" : 								{
									"source" : [ "obj-17", 1 ],
									"destination" : [ "obj-18", 3 ],
									"hidden" : 0,
									"midpoints" : [  ]
								}

							}
, 							{
								"patchline" : 								{
									"source" : [ "obj-17", 0 ],
									"destination" : [ "obj-18", 2 ],
									"hidden" : 0,
									"midpoints" : [  ]
								}

							}
, 							{
								"patchline" : 								{
									"source" : [ "obj-18", 0 ],
									"destination" : [ "obj-26", 0 ],
									"hidden" : 0,
									"midpoints" : [ 86.5, 126.0, 20.5, 126.0 ]
								}

							}
, 							{
								"patchline" : 								{
									"source" : [ "obj-19", 0 ],
									"destination" : [ "obj-18", 0 ],
									"hidden" : 0,
									"midpoints" : [  ]
								}

							}
, 							{
								"patchline" : 								{
									"source" : [ "obj-17", 0 ],
									"destination" : [ "obj-19", 0 ],
									"hidden" : 0,
									"midpoints" : [ 142.5, 61.0, 86.5, 61.0 ]
								}

							}
 ]
					}
,
					"saved_object_attributes" : 					{
						"fontface" : 0,
						"fontsize" : 12.0,
						"default_fontface" : 0,
						"default_fontname" : "Arial",
						"fontname" : "Arial",
						"default_fontsize" : 12.0,
						"globalpatchername" : ""
					}

				}

			}
, 			{
				"box" : 				{
					"maxclass" : "newobj",
					"text" : "switch 6 1",
					"numoutlets" : 1,
					"fontsize" : 9.0,
					"outlettype" : [ "" ],
					"patching_rect" : [ 356.0, 624.0, 100.0, 17.0 ],
					"id" : "obj-37",
					"fontname" : "Arial",
					"numinlets" : 7
				}

			}
, 			{
				"box" : 				{
					"maxclass" : "newobj",
					"text" : "* 0.01",
					"numoutlets" : 1,
					"fontsize" : 9.0,
					"outlettype" : [ "float" ],
					"patching_rect" : [ 235.0, 453.0, 39.0, 17.0 ],
					"id" : "obj-38",
					"fontname" : "Arial",
					"numinlets" : 2
				}

			}
, 			{
				"box" : 				{
					"maxclass" : "panel",
					"numoutlets" : 0,
					"presentation_rect" : [ 8.0, 17.0, 280.0, 197.0 ],
					"bgcolor" : [ 1.0, 1.0, 1.0, 1.0 ],
					"patching_rect" : [ 591.0, 28.0, 65.0, 45.0 ],
					"presentation" : 1,
					"id" : "obj-39",
					"border" : 1,
					"rounded" : 12,
					"numinlets" : 1
				}

			}
 ],
		"lines" : [ 			{
				"patchline" : 				{
					"source" : [ "obj-23", 0 ],
					"destination" : [ "obj-48", 0 ],
					"hidden" : 0,
					"midpoints" : [ 19.0, 243.0, 54.5, 243.0 ]
				}

			}
, 			{
				"patchline" : 				{
					"source" : [ "obj-23", 0 ],
					"destination" : [ "obj-49", 0 ],
					"hidden" : 0,
					"midpoints" : [ 19.0, 239.0, 72.5, 239.0 ]
				}

			}
, 			{
				"patchline" : 				{
					"source" : [ "obj-17", 0 ],
					"destination" : [ "obj-7", 0 ],
					"hidden" : 0,
					"midpoints" : [ 422.0, 51.5, 502.5, 51.5 ]
				}

			}
, 			{
				"patchline" : 				{
					"source" : [ "obj-28", 0 ],
					"destination" : [ "obj-35", 1 ],
					"hidden" : 0,
					"midpoints" : [ 341.0, 325.5, 369.0, 325.5 ]
				}

			}
, 			{
				"patchline" : 				{
					"source" : [ "obj-29", 0 ],
					"destination" : [ "obj-34", 1 ],
					"hidden" : 0,
					"midpoints" : [  ]
				}

			}
, 			{
				"patchline" : 				{
					"source" : [ "obj-16", 0 ],
					"destination" : [ "obj-25", 0 ],
					"hidden" : 0,
					"midpoints" : [ 214.5, 325.5, 224.5, 325.5 ]
				}

			}
, 			{
				"patchline" : 				{
					"source" : [ "obj-25", 0 ],
					"destination" : [ "obj-35", 0 ],
					"hidden" : 1,
					"color" : [ 1.0, 0.611765, 0.611765, 1.0 ],
					"midpoints" : [ 224.5, 420.0, 328.5, 420.0 ]
				}

			}
, 			{
				"patchline" : 				{
					"source" : [ "obj-25", 0 ],
					"destination" : [ "obj-34", 0 ],
					"hidden" : 1,
					"color" : [ 1.0, 0.611765, 0.611765, 1.0 ],
					"midpoints" : [ 224.5, 413.0, 398.5, 413.0 ]
				}

			}
, 			{
				"patchline" : 				{
					"source" : [ "obj-25", 0 ],
					"destination" : [ "obj-30", 0 ],
					"hidden" : 1,
					"color" : [ 1.0, 0.611765, 0.611765, 1.0 ],
					"midpoints" : [ 224.5, 419.0, 65.5, 419.0 ]
				}

			}
, 			{
				"patchline" : 				{
					"source" : [ "obj-25", 0 ],
					"destination" : [ "obj-52", 1 ],
					"hidden" : 0,
					"midpoints" : [ 224.5, 351.0, 214.0, 351.0 ]
				}

			}
, 			{
				"patchline" : 				{
					"source" : [ "obj-25", 0 ],
					"destination" : [ "obj-45", 0 ],
					"hidden" : 0,
					"midpoints" : [  ]
				}

			}
, 			{
				"patchline" : 				{
					"source" : [ "obj-7", 0 ],
					"destination" : [ "obj-2", 0 ],
					"hidden" : 0,
					"midpoints" : [  ]
				}

			}
, 			{
				"patchline" : 				{
					"source" : [ "obj-42", 1 ],
					"destination" : [ "obj-19", 0 ],
					"hidden" : 0,
					"midpoints" : [ 362.0, 270.0, 510.0, 270.0, 510.0, 408.0, 620.5, 408.0 ]
				}

			}
, 			{
				"patchline" : 				{
					"source" : [ "obj-43", 0 ],
					"destination" : [ "obj-42", 0 ],
					"hidden" : 0,
					"midpoints" : [ 353.5, 191.0, 348.5, 191.0 ]
				}

			}
, 			{
				"patchline" : 				{
					"source" : [ "obj-42", 0 ],
					"destination" : [ "obj-26", 0 ],
					"hidden" : 0,
					"midpoints" : [ 348.5, 231.0, 214.5, 231.0 ]
				}

			}
, 			{
				"patchline" : 				{
					"source" : [ "obj-19", 0 ],
					"destination" : [ "obj-68", 2 ],
					"hidden" : 0,
					"midpoints" : [  ]
				}

			}
, 			{
				"patchline" : 				{
					"source" : [ "obj-59", 0 ],
					"destination" : [ "obj-60", 0 ],
					"hidden" : 0,
					"midpoints" : [  ]
				}

			}
, 			{
				"patchline" : 				{
					"source" : [ "obj-60", 0 ],
					"destination" : [ "obj-34", 0 ],
					"hidden" : 0,
					"midpoints" : [ 59.5, 388.0, 398.5, 388.0 ]
				}

			}
, 			{
				"patchline" : 				{
					"source" : [ "obj-34", 3 ],
					"destination" : [ "obj-68", 1 ],
					"hidden" : 0,
					"midpoints" : [ 439.0, 513.0, 607.0, 513.0 ]
				}

			}
, 			{
				"patchline" : 				{
					"source" : [ "obj-71", 0 ],
					"destination" : [ "obj-51", 0 ],
					"hidden" : 0,
					"midpoints" : [ 124.5, 135.0, 93.5, 135.0 ]
				}

			}
, 			{
				"patchline" : 				{
					"source" : [ "obj-44", 0 ],
					"destination" : [ "obj-71", 0 ],
					"hidden" : 0,
					"midpoints" : [ 327.5, 201.0, 162.0, 201.0, 162.0, 114.0, 124.5, 114.0 ]
				}

			}
, 			{
				"patchline" : 				{
					"source" : [ "obj-44", 0 ],
					"destination" : [ "obj-55", 0 ],
					"hidden" : 0,
					"midpoints" : [ 327.5, 201.0, 138.0, 201.0, 138.0, 162.0, 93.5, 162.0 ]
				}

			}
, 			{
				"patchline" : 				{
					"source" : [ "obj-35", 3 ],
					"destination" : [ "obj-68", 0 ],
					"hidden" : 0,
					"midpoints" : [ 369.0, 513.0, 593.5, 513.0 ]
				}

			}
, 			{
				"patchline" : 				{
					"source" : [ "obj-35", 0 ],
					"destination" : [ "obj-33", 2 ],
					"hidden" : 1,
					"midpoints" : [ 328.5, 497.0, 367.5, 497.0 ]
				}

			}
, 			{
				"patchline" : 				{
					"source" : [ "obj-35", 1 ],
					"destination" : [ "obj-36", 1 ],
					"hidden" : 1,
					"midpoints" : [ 342.0, 497.0, 427.100006, 497.0 ]
				}

			}
, 			{
				"patchline" : 				{
					"source" : [ "obj-35", 2 ],
					"destination" : [ "obj-32", 1 ],
					"hidden" : 0,
					"midpoints" : [ 355.5, 497.0, 527.833313, 497.0 ]
				}

			}
, 			{
				"patchline" : 				{
					"source" : [ "obj-52", 0 ],
					"destination" : [ "obj-34", 0 ],
					"hidden" : 0,
					"midpoints" : [ 200.5, 384.0, 398.5, 384.0 ]
				}

			}
, 			{
				"patchline" : 				{
					"source" : [ "obj-34", 2 ],
					"destination" : [ "obj-32", 0 ],
					"hidden" : 0,
					"midpoints" : [ 425.5, 497.0, 516.5, 497.0 ]
				}

			}
, 			{
				"patchline" : 				{
					"source" : [ "obj-34", 1 ],
					"destination" : [ "obj-36", 0 ],
					"hidden" : 1,
					"midpoints" : [ 412.0, 497.0, 412.5, 497.0 ]
				}

			}
, 			{
				"patchline" : 				{
					"source" : [ "obj-34", 0 ],
					"destination" : [ "obj-33", 1 ],
					"hidden" : 1,
					"midpoints" : [ 398.5, 497.0, 356.5, 497.0 ]
				}

			}
, 			{
				"patchline" : 				{
					"source" : [ "obj-6", 0 ],
					"destination" : [ "obj-32", 3 ],
					"hidden" : 1,
					"midpoints" : [ 534.5, 325.0, 550.5, 325.0 ]
				}

			}
, 			{
				"patchline" : 				{
					"source" : [ "obj-31", 0 ],
					"destination" : [ "obj-51", 0 ],
					"hidden" : 0,
					"midpoints" : [ 44.5, 138.0, 93.5, 138.0 ]
				}

			}
, 			{
				"patchline" : 				{
					"source" : [ "obj-30", 0 ],
					"destination" : [ "obj-15", 0 ],
					"hidden" : 0,
					"midpoints" : [ 65.5, 669.5, 940.5, 669.5 ]
				}

			}
, 			{
				"patchline" : 				{
					"source" : [ "obj-38", 0 ],
					"destination" : [ "obj-36", 4 ],
					"hidden" : 0,
					"midpoints" : [ 244.5, 520.0, 470.899994, 520.0 ]
				}

			}
, 			{
				"patchline" : 				{
					"source" : [ "obj-10", 0 ],
					"destination" : [ "obj-11", 0 ],
					"hidden" : 0,
					"midpoints" : [  ]
				}

			}
, 			{
				"patchline" : 				{
					"source" : [ "obj-10", 0 ],
					"destination" : [ "obj-13", 0 ],
					"hidden" : 0,
					"midpoints" : [  ]
				}

			}
, 			{
				"patchline" : 				{
					"source" : [ "obj-14", 0 ],
					"destination" : [ "obj-15", 0 ],
					"hidden" : 0,
					"midpoints" : [  ]
				}

			}
, 			{
				"patchline" : 				{
					"source" : [ "obj-13", 0 ],
					"destination" : [ "obj-15", 0 ],
					"hidden" : 0,
					"midpoints" : [  ]
				}

			}
, 			{
				"patchline" : 				{
					"source" : [ "obj-12", 0 ],
					"destination" : [ "obj-15", 0 ],
					"hidden" : 0,
					"midpoints" : [  ]
				}

			}
, 			{
				"patchline" : 				{
					"source" : [ "obj-11", 0 ],
					"destination" : [ "obj-15", 0 ],
					"hidden" : 0,
					"midpoints" : [  ]
				}

			}
, 			{
				"patchline" : 				{
					"source" : [ "obj-9", 0 ],
					"destination" : [ "obj-10", 0 ],
					"hidden" : 0,
					"midpoints" : [  ]
				}

			}
, 			{
				"patchline" : 				{
					"source" : [ "obj-8", 0 ],
					"destination" : [ "obj-9", 0 ],
					"hidden" : 0,
					"midpoints" : [  ]
				}

			}
, 			{
				"patchline" : 				{
					"source" : [ "obj-10", 1 ],
					"destination" : [ "obj-12", 0 ],
					"hidden" : 0,
					"midpoints" : [  ]
				}

			}
, 			{
				"patchline" : 				{
					"source" : [ "obj-10", 1 ],
					"destination" : [ "obj-14", 0 ],
					"hidden" : 0,
					"midpoints" : [  ]
				}

			}
, 			{
				"patchline" : 				{
					"source" : [ "obj-38", 0 ],
					"destination" : [ "obj-32", 2 ],
					"hidden" : 0,
					"midpoints" : [ 244.5, 493.0, 539.166687, 493.0 ]
				}

			}
, 			{
				"patchline" : 				{
					"source" : [ "obj-2", 0 ],
					"destination" : [ "obj-4", 0 ],
					"hidden" : 0,
					"midpoints" : [  ]
				}

			}
, 			{
				"patchline" : 				{
					"source" : [ "obj-38", 0 ],
					"destination" : [ "obj-33", 0 ],
					"hidden" : 1,
					"midpoints" : [ 244.5, 507.0, 345.5, 507.0 ]
				}

			}
, 			{
				"patchline" : 				{
					"source" : [ "obj-20", 0 ],
					"destination" : [ "obj-21", 0 ],
					"hidden" : 1,
					"midpoints" : [ 386.0, 92.0, 249.5, 92.0 ]
				}

			}
, 			{
				"patchline" : 				{
					"source" : [ "obj-21", 0 ],
					"destination" : [ "obj-38", 0 ],
					"hidden" : 1,
					"midpoints" : [ 249.5, 355.0, 244.5, 355.0 ]
				}

			}
, 			{
				"patchline" : 				{
					"source" : [ "obj-29", 0 ],
					"destination" : [ "obj-3", 0 ],
					"hidden" : 0,
					"midpoints" : [ 452.0, 235.0, 352.0, 235.0 ]
				}

			}
, 			{
				"patchline" : 				{
					"source" : [ "obj-53", 0 ],
					"destination" : [ "obj-54", 1 ],
					"hidden" : 0,
					"midpoints" : [  ]
				}

			}
, 			{
				"patchline" : 				{
					"source" : [ "obj-51", 0 ],
					"destination" : [ "obj-55", 0 ],
					"hidden" : 0,
					"midpoints" : [  ]
				}

			}
, 			{
				"patchline" : 				{
					"source" : [ "obj-55", 0 ],
					"destination" : [ "obj-54", 0 ],
					"hidden" : 0,
					"midpoints" : [  ]
				}

			}
, 			{
				"patchline" : 				{
					"source" : [ "obj-54", 0 ],
					"destination" : [ "obj-56", 0 ],
					"hidden" : 0,
					"midpoints" : [  ]
				}

			}
, 			{
				"patchline" : 				{
					"source" : [ "obj-56", 0 ],
					"destination" : [ "obj-26", 0 ],
					"hidden" : 0,
					"midpoints" : [ 93.5, 240.0, 214.5, 240.0 ]
				}

			}
, 			{
				"patchline" : 				{
					"source" : [ "obj-5", 2 ],
					"destination" : [ "obj-36", 5 ],
					"hidden" : 0,
					"midpoints" : [ 827.5, 470.0, 485.5, 470.0 ]
				}

			}
, 			{
				"patchline" : 				{
					"source" : [ "obj-40", 0 ],
					"destination" : [ "obj-5", 1 ],
					"hidden" : 0,
					"midpoints" : [  ]
				}

			}
, 			{
				"patchline" : 				{
					"source" : [ "obj-5", 1 ],
					"destination" : [ "obj-36", 2 ],
					"hidden" : 0,
					"midpoints" : [ 704.0, 465.0, 441.700012, 465.0 ]
				}

			}
, 			{
				"patchline" : 				{
					"source" : [ "obj-5", 0 ],
					"destination" : [ "obj-36", 3 ],
					"hidden" : 0,
					"midpoints" : [ 580.5, 465.0, 456.299988, 465.0 ]
				}

			}
, 			{
				"patchline" : 				{
					"source" : [ "obj-41", 0 ],
					"destination" : [ "obj-43", 0 ],
					"hidden" : 0,
					"midpoints" : [  ]
				}

			}
, 			{
				"patchline" : 				{
					"source" : [ "obj-43", 1 ],
					"destination" : [ "obj-26", 0 ],
					"hidden" : 0,
					"midpoints" : [ 376.5, 221.0, 214.5, 221.0 ]
				}

			}
, 			{
				"patchline" : 				{
					"source" : [ "obj-43", 0 ],
					"destination" : [ "obj-44", 0 ],
					"hidden" : 0,
					"midpoints" : [ 353.5, 177.0, 330.0, 177.0, 330.0, 180.0, 327.5, 180.0 ]
				}

			}
, 			{
				"patchline" : 				{
					"source" : [ "obj-53", 0 ],
					"destination" : [ "obj-50", 0 ],
					"hidden" : 0,
					"midpoints" : [ 117.0, 53.0, 129.5, 53.0 ]
				}

			}
, 			{
				"patchline" : 				{
					"source" : [ "obj-50", 0 ],
					"destination" : [ "obj-49", 0 ],
					"hidden" : 0,
					"midpoints" : [ 129.5, 237.0, 72.5, 237.0 ]
				}

			}
, 			{
				"patchline" : 				{
					"source" : [ "obj-50", 1 ],
					"destination" : [ "obj-49", 1 ],
					"hidden" : 0,
					"midpoints" : [ 143.0, 234.0, 170.5, 234.0 ]
				}

			}
, 			{
				"patchline" : 				{
					"source" : [ "obj-50", 0 ],
					"destination" : [ "obj-48", 0 ],
					"hidden" : 0,
					"midpoints" : [ 129.5, 234.0, 57.0, 234.0, 57.0, 246.0, 54.5, 246.0 ]
				}

			}
, 			{
				"patchline" : 				{
					"source" : [ "obj-50", 1 ],
					"destination" : [ "obj-48", 1 ],
					"hidden" : 0,
					"midpoints" : [ 143.0, 246.0, 152.5, 246.0 ]
				}

			}
, 			{
				"patchline" : 				{
					"source" : [ "obj-59", 1 ],
					"destination" : [ "obj-52", 0 ],
					"hidden" : 0,
					"midpoints" : [ 74.5, 357.5, 200.5, 357.5 ]
				}

			}
, 			{
				"patchline" : 				{
					"source" : [ "obj-49", 0 ],
					"destination" : [ "obj-61", 1 ],
					"hidden" : 0,
					"midpoints" : [  ]
				}

			}
, 			{
				"patchline" : 				{
					"source" : [ "obj-61", 0 ],
					"destination" : [ "obj-59", 0 ],
					"hidden" : 0,
					"midpoints" : [  ]
				}

			}
, 			{
				"patchline" : 				{
					"source" : [ "obj-110", 0 ],
					"destination" : [ "obj-62", 0 ],
					"hidden" : 0,
					"midpoints" : [  ]
				}

			}
, 			{
				"patchline" : 				{
					"source" : [ "obj-48", 0 ],
					"destination" : [ "obj-61", 1 ],
					"hidden" : 0,
					"midpoints" : [ 54.5, 267.0, 60.0, 267.0, 60.0, 300.0, 73.0, 300.0 ]
				}

			}
, 			{
				"patchline" : 				{
					"source" : [ "obj-62", 0 ],
					"destination" : [ "obj-61", 0 ],
					"hidden" : 0,
					"midpoints" : [ 14.5, 305.0, 59.5, 305.0 ]
				}

			}
, 			{
				"patchline" : 				{
					"source" : [ "obj-31", 0 ],
					"destination" : [ "obj-26", 0 ],
					"hidden" : 0,
					"midpoints" : [ 44.5, 206.0, 192.0, 206.0, 192.0, 231.0, 214.5, 231.0 ]
				}

			}
, 			{
				"patchline" : 				{
					"source" : [ "obj-51", 0 ],
					"destination" : [ "obj-57", 1 ],
					"hidden" : 0,
					"midpoints" : [ 93.5, 162.0, 74.0, 162.0 ]
				}

			}
, 			{
				"patchline" : 				{
					"source" : [ "obj-43", 1 ],
					"destination" : [ "obj-58", 0 ],
					"hidden" : 0,
					"midpoints" : [ 376.5, 183.0, 434.5, 183.0 ]
				}

			}
, 			{
				"patchline" : 				{
					"source" : [ "obj-57", 0 ],
					"destination" : [ "obj-51", 0 ],
					"hidden" : 0,
					"midpoints" : [ 60.5, 186.0, 50.0, 186.0, 50.0, 138.0, 93.5, 138.0 ]
				}

			}
, 			{
				"patchline" : 				{
					"source" : [ "obj-58", 0 ],
					"destination" : [ "obj-57", 0 ],
					"hidden" : 0,
					"midpoints" : [ 434.5, 206.0, 446.0, 206.0, 446.0, 70.0, 60.5, 70.0 ]
				}

			}
, 			{
				"patchline" : 				{
					"source" : [ "obj-63", 0 ],
					"destination" : [ "obj-67", 0 ],
					"hidden" : 0,
					"midpoints" : [  ]
				}

			}
, 			{
				"patchline" : 				{
					"source" : [ "obj-67", 0 ],
					"destination" : [ "obj-66", 0 ],
					"hidden" : 0,
					"midpoints" : [  ]
				}

			}
, 			{
				"patchline" : 				{
					"source" : [ "obj-63", 1 ],
					"destination" : [ "obj-70", 0 ],
					"hidden" : 0,
					"midpoints" : [  ]
				}

			}
, 			{
				"patchline" : 				{
					"source" : [ "obj-70", 0 ],
					"destination" : [ "obj-66", 0 ],
					"hidden" : 0,
					"midpoints" : [ 292.5, 361.0, 270.5, 361.0 ]
				}

			}
, 			{
				"patchline" : 				{
					"source" : [ "obj-55", 0 ],
					"destination" : [ "obj-18", 0 ],
					"hidden" : 0,
					"midpoints" : [ 93.5, 186.0, 81.0, 186.0, 81.0, 204.0, 192.0, 204.0, 192.0, 174.0, 214.5, 174.0 ]
				}

			}
, 			{
				"patchline" : 				{
					"source" : [ "obj-18", 0 ],
					"destination" : [ "obj-26", 0 ],
					"hidden" : 0,
					"midpoints" : [  ]
				}

			}
, 			{
				"patchline" : 				{
					"source" : [ "obj-22", 0 ],
					"destination" : [ "obj-18", 1 ],
					"hidden" : 0,
					"midpoints" : [ 234.0, 121.0, 238.5, 121.0 ]
				}

			}
, 			{
				"patchline" : 				{
					"source" : [ "obj-56", 0 ],
					"destination" : [ "obj-21", 0 ],
					"hidden" : 0,
					"midpoints" : [ 93.5, 234.0, 192.0, 234.0, 192.0, 273.0, 249.5, 273.0 ]
				}

			}
, 			{
				"patchline" : 				{
					"source" : [ "obj-37", 0 ],
					"destination" : [ "obj-27", 0 ],
					"hidden" : 0,
					"midpoints" : [  ]
				}

			}
, 			{
				"patchline" : 				{
					"source" : [ "obj-33", 0 ],
					"destination" : [ "obj-37", 1 ],
					"hidden" : 1,
					"midpoints" : [ 345.5, 566.0, 379.0, 566.0 ]
				}

			}
, 			{
				"patchline" : 				{
					"source" : [ "obj-36", 0 ],
					"destination" : [ "obj-37", 2 ],
					"hidden" : 1,
					"midpoints" : [ 412.5, 558.0, 392.5, 558.0 ]
				}

			}
, 			{
				"patchline" : 				{
					"source" : [ "obj-32", 0 ],
					"destination" : [ "obj-37", 3 ],
					"hidden" : 0,
					"midpoints" : [ 516.5, 566.0, 406.0, 566.0 ]
				}

			}
, 			{
				"patchline" : 				{
					"source" : [ "obj-34", 4 ],
					"destination" : [ "obj-37", 5 ],
					"hidden" : 0,
					"midpoints" : [ 452.5, 516.0, 390.0, 516.0, 390.0, 553.0, 433.0, 553.0 ]
				}

			}
, 			{
				"patchline" : 				{
					"source" : [ "obj-68", 0 ],
					"destination" : [ "obj-37", 4 ],
					"hidden" : 0,
					"midpoints" : [ 593.5, 573.0, 419.5, 573.0 ]
				}

			}
, 			{
				"patchline" : 				{
					"source" : [ "obj-28", 0 ],
					"destination" : [ "obj-37", 6 ],
					"hidden" : 0,
					"midpoints" : [ 341.0, 60.0, 480.0, 60.0, 480.0, 265.0, 515.0, 265.0, 515.0, 420.0, 495.0, 420.0, 495.0, 508.0, 446.5, 508.0 ]
				}

			}
, 			{
				"patchline" : 				{
					"source" : [ "obj-45", 0 ],
					"destination" : [ "obj-37", 0 ],
					"hidden" : 0,
					"midpoints" : [ 224.5, 614.5, 365.5, 614.5 ]
				}

			}
, 			{
				"patchline" : 				{
					"source" : [ "obj-52", 0 ],
					"destination" : [ "obj-45", 0 ],
					"hidden" : 0,
					"midpoints" : [ 200.5, 394.5, 224.5, 394.5 ]
				}

			}
, 			{
				"patchline" : 				{
					"source" : [ "obj-46", 0 ],
					"destination" : [ "obj-69", 0 ],
					"hidden" : 0,
					"midpoints" : [  ]
				}

			}
, 			{
				"patchline" : 				{
					"source" : [ "obj-69", 1 ],
					"destination" : [ "obj-37", 0 ],
					"hidden" : 0,
					"midpoints" : [ 297.5, 595.0, 365.5, 595.0 ]
				}

			}
, 			{
				"patchline" : 				{
					"source" : [ "obj-69", 0 ],
					"destination" : [ "obj-45", 0 ],
					"hidden" : 0,
					"midpoints" : [ 274.5, 577.5, 224.5, 577.5 ]
				}

			}
, 			{
				"patchline" : 				{
					"source" : [ "obj-60", 0 ],
					"destination" : [ "obj-1", 0 ],
					"hidden" : 0,
					"midpoints" : [ 59.5, 399.5, 183.5, 399.5 ]
				}

			}
, 			{
				"patchline" : 				{
					"source" : [ "obj-1", 0 ],
					"destination" : [ "obj-45", 0 ],
					"hidden" : 0,
					"midpoints" : [ 183.5, 574.0, 224.5, 574.0 ]
				}

			}
, 			{
				"patchline" : 				{
					"source" : [ "obj-46", 0 ],
					"destination" : [ "obj-1", 1 ],
					"hidden" : 0,
					"midpoints" : [ 274.0, 543.5, 244.5, 543.5 ]
				}

			}
, 			{
				"patchline" : 				{
					"source" : [ "obj-26", 0 ],
					"destination" : [ "obj-16", 0 ],
					"hidden" : 0,
					"midpoints" : [  ]
				}

			}
, 			{
				"patchline" : 				{
					"source" : [ "obj-16", 1 ],
					"destination" : [ "obj-63", 0 ],
					"hidden" : 0,
					"midpoints" : [ 228.0, 319.0, 269.5, 319.0 ]
				}

			}
 ]
	}

}
