{
	"patcher" : 	{
		"fileversion" : 1,
		"rect" : [ 41.0, 44.0, 1132.0, 829.0 ],
		"bglocked" : 0,
		"defrect" : [ 41.0, 44.0, 1132.0, 829.0 ],
		"openrect" : [ 0.0, 0.0, 0.0, 0.0 ],
		"openinpresentation" : 0,
		"default_fontsize" : 12.0,
		"default_fontface" : 0,
		"default_fontname" : "Arial",
		"gridonopen" : 0,
		"gridsize" : [ 15.0, 5.0 ],
		"gridsnaponopen" : 0,
		"toolbarvisible" : 1,
		"boxanimatetime" : 200,
		"imprint" : 0,
		"metadata" : [  ],
		"boxes" : [ 			{
				"box" : 				{
					"maxclass" : "message",
					"text" : "outputmatrix $1",
					"id" : "obj-107",
					"fontsize" : 11.595187,
					"numinlets" : 2,
					"numoutlets" : 1,
					"patching_rect" : [ 430.0, 356.0, 90.0, 18.0 ],
					"outlettype" : [ "" ],
					"fontname" : "Arial"
				}

			}
, 			{
				"box" : 				{
					"maxclass" : "message",
					"text" : "index $1",
					"id" : "obj-108",
					"fontsize" : 11.595187,
					"numinlets" : 2,
					"numoutlets" : 1,
					"patching_rect" : [ 368.0, 356.0, 54.0, 18.0 ],
					"outlettype" : [ "" ],
					"fontname" : "Arial"
				}

			}
, 			{
				"box" : 				{
					"maxclass" : "newobj",
					"text" : "jit.matrixset 10 4 char 256 1",
					"id" : "obj-106",
					"fontsize" : 9.0,
					"numinlets" : 1,
					"numoutlets" : 2,
					"patching_rect" : [ 360.0, 391.0, 121.0, 17.0 ],
					"outlettype" : [ "jit_matrix", "" ],
					"fontname" : "Arial"
				}

			}
, 			{
				"box" : 				{
					"maxclass" : "newobj",
					"text" : "p traitement_rvb",
					"id" : "obj-105",
					"fontsize" : 12.0,
					"numinlets" : 1,
					"numoutlets" : 1,
					"patching_rect" : [ 167.0, 402.0, 97.0, 20.0 ],
					"outlettype" : [ "jit_matrix" ],
					"fontname" : "Arial",
					"patcher" : 					{
						"fileversion" : 1,
						"rect" : [ 66.0, 69.0, 335.0, 483.0 ],
						"bglocked" : 0,
						"defrect" : [ 66.0, 69.0, 335.0, 483.0 ],
						"openrect" : [ 0.0, 0.0, 0.0, 0.0 ],
						"openinpresentation" : 0,
						"default_fontsize" : 12.0,
						"default_fontface" : 0,
						"default_fontname" : "Arial",
						"gridonopen" : 0,
						"gridsize" : [ 15.0, 15.0 ],
						"gridsnaponopen" : 0,
						"toolbarvisible" : 1,
						"boxanimatetime" : 200,
						"imprint" : 0,
						"metadata" : [  ],
						"boxes" : [ 							{
								"box" : 								{
									"maxclass" : "flonum",
									"id" : "obj-100",
									"fontsize" : 11.595187,
									"numinlets" : 1,
									"triscale" : 0.9,
									"numoutlets" : 2,
									"patching_rect" : [ 15.650696, 221.0, 50.0, 20.0 ],
									"outlettype" : [ "float", "bang" ],
									"fontname" : "Arial"
								}

							}
, 							{
								"box" : 								{
									"maxclass" : "number",
									"id" : "obj-50",
									"fontsize" : 12.0,
									"numinlets" : 1,
									"numoutlets" : 2,
									"patching_rect" : [ 104.0, 181.0, 50.0, 20.0 ],
									"outlettype" : [ "int", "bang" ],
									"fontname" : "Arial"
								}

							}
, 							{
								"box" : 								{
									"maxclass" : "umenu",
									"id" : "obj-48",
									"fontsize" : 11.595187,
									"numinlets" : 1,
									"items" : [ "min", ",", "!%", ",", "<p", ",", "<=p" ],
									"numoutlets" : 3,
									"types" : [  ],
									"patching_rect" : [ 101.0, 221.0, 60.0, 20.0 ],
									"outlettype" : [ "int", "", "" ],
									"fontname" : "Arial"
								}

							}
, 							{
								"box" : 								{
									"maxclass" : "newobj",
									"text" : "prepend op",
									"id" : "obj-28",
									"fontsize" : 11.595187,
									"numinlets" : 1,
									"numoutlets" : 1,
									"patching_rect" : [ 121.5, 244.560974, 72.0, 20.0 ],
									"outlettype" : [ "" ],
									"fontname" : "Arial"
								}

							}
, 							{
								"box" : 								{
									"maxclass" : "newobj",
									"text" : "jit.op @op !%",
									"id" : "obj-39",
									"fontsize" : 9.0,
									"numinlets" : 2,
									"numoutlets" : 2,
									"patching_rect" : [ 60.0, 297.0, 64.0, 17.0 ],
									"outlettype" : [ "jit_matrix", "" ],
									"fontname" : "Arial"
								}

							}
, 							{
								"box" : 								{
									"maxclass" : "newobj",
									"text" : "jit.matrix 1 long 256",
									"id" : "obj-98",
									"fontsize" : 9.0,
									"numinlets" : 1,
									"numoutlets" : 2,
									"patching_rect" : [ 62.0, 149.0, 89.0, 17.0 ],
									"outlettype" : [ "jit_matrix", "" ],
									"fontname" : "Arial"
								}

							}
, 							{
								"box" : 								{
									"maxclass" : "flonum",
									"id" : "obj-97",
									"fontsize" : 11.595187,
									"numinlets" : 1,
									"triscale" : 0.9,
									"numoutlets" : 2,
									"patching_rect" : [ 62.0, 34.0, 50.0, 20.0 ],
									"outlettype" : [ "float", "bang" ],
									"fontname" : "Arial"
								}

							}
, 							{
								"box" : 								{
									"maxclass" : "message",
									"text" : "dim $1 1",
									"id" : "obj-96",
									"fontsize" : 11.595187,
									"numinlets" : 2,
									"numoutlets" : 1,
									"patching_rect" : [ 62.0, 63.662048, 55.0, 18.0 ],
									"outlettype" : [ "" ],
									"fontname" : "Arial"
								}

							}
, 							{
								"box" : 								{
									"maxclass" : "flonum",
									"id" : "obj-89",
									"fontsize" : 11.595187,
									"numinlets" : 1,
									"triscale" : 0.9,
									"numoutlets" : 2,
									"patching_rect" : [ 211.650696, 45.0, 50.0, 20.0 ],
									"outlettype" : [ "float", "bang" ],
									"fontname" : "Arial"
								}

							}
, 							{
								"box" : 								{
									"maxclass" : "message",
									"text" : "slide_down $1",
									"id" : "obj-91",
									"fontsize" : 11.595187,
									"numinlets" : 2,
									"numoutlets" : 1,
									"patching_rect" : [ 211.650696, 68.662048, 83.0, 18.0 ],
									"outlettype" : [ "" ],
									"fontname" : "Arial"
								}

							}
, 							{
								"box" : 								{
									"maxclass" : "flonum",
									"id" : "obj-92",
									"fontsize" : 11.595187,
									"numinlets" : 1,
									"triscale" : 0.9,
									"numoutlets" : 2,
									"patching_rect" : [ 137.0, 45.0, 50.0, 20.0 ],
									"outlettype" : [ "float", "bang" ],
									"fontname" : "Arial"
								}

							}
, 							{
								"box" : 								{
									"maxclass" : "message",
									"text" : "slide_up $1",
									"id" : "obj-22",
									"fontsize" : 11.595187,
									"numinlets" : 2,
									"numoutlets" : 1,
									"patching_rect" : [ 137.0, 68.662048, 68.0, 18.0 ],
									"outlettype" : [ "" ],
									"fontname" : "Arial"
								}

							}
, 							{
								"box" : 								{
									"maxclass" : "newobj",
									"text" : "jit.slide",
									"id" : "obj-86",
									"fontsize" : 9.0,
									"numinlets" : 1,
									"numoutlets" : 2,
									"patching_rect" : [ 62.0, 121.0, 38.0, 17.0 ],
									"outlettype" : [ "jit_matrix", "" ],
									"fontname" : "Arial"
								}

							}
, 							{
								"box" : 								{
									"maxclass" : "newobj",
									"text" : "jit.matrix 1 long 8",
									"id" : "obj-84",
									"fontsize" : 9.0,
									"numinlets" : 1,
									"numoutlets" : 2,
									"patching_rect" : [ 62.0, 90.0, 79.0, 17.0 ],
									"outlettype" : [ "jit_matrix", "" ],
									"fontname" : "Arial"
								}

							}
, 							{
								"box" : 								{
									"maxclass" : "inlet",
									"id" : "obj-101",
									"numinlets" : 0,
									"numoutlets" : 1,
									"patching_rect" : [ 29.0, 33.0, 25.0, 25.0 ],
									"outlettype" : [ "jit_matrix" ],
									"comment" : ""
								}

							}
, 							{
								"box" : 								{
									"maxclass" : "outlet",
									"id" : "obj-102",
									"numinlets" : 1,
									"numoutlets" : 0,
									"patching_rect" : [ 59.0, 365.0, 25.0, 25.0 ],
									"comment" : ""
								}

							}
 ],
						"lines" : [ 							{
								"patchline" : 								{
									"source" : [ "obj-89", 0 ],
									"destination" : [ "obj-91", 0 ],
									"hidden" : 0,
									"midpoints" : [  ]
								}

							}
, 							{
								"patchline" : 								{
									"source" : [ "obj-92", 0 ],
									"destination" : [ "obj-22", 0 ],
									"hidden" : 0,
									"midpoints" : [  ]
								}

							}
, 							{
								"patchline" : 								{
									"source" : [ "obj-22", 0 ],
									"destination" : [ "obj-86", 0 ],
									"hidden" : 0,
									"midpoints" : [ 146.5, 118.0, 71.5, 118.0 ]
								}

							}
, 							{
								"patchline" : 								{
									"source" : [ "obj-91", 0 ],
									"destination" : [ "obj-86", 0 ],
									"hidden" : 0,
									"midpoints" : [ 221.150696, 118.0, 71.5, 118.0 ]
								}

							}
, 							{
								"patchline" : 								{
									"source" : [ "obj-97", 0 ],
									"destination" : [ "obj-96", 0 ],
									"hidden" : 0,
									"midpoints" : [  ]
								}

							}
, 							{
								"patchline" : 								{
									"source" : [ "obj-86", 0 ],
									"destination" : [ "obj-98", 0 ],
									"hidden" : 0,
									"midpoints" : [  ]
								}

							}
, 							{
								"patchline" : 								{
									"source" : [ "obj-96", 0 ],
									"destination" : [ "obj-84", 0 ],
									"hidden" : 0,
									"midpoints" : [  ]
								}

							}
, 							{
								"patchline" : 								{
									"source" : [ "obj-84", 0 ],
									"destination" : [ "obj-86", 0 ],
									"hidden" : 0,
									"midpoints" : [  ]
								}

							}
, 							{
								"patchline" : 								{
									"source" : [ "obj-50", 0 ],
									"destination" : [ "obj-48", 0 ],
									"hidden" : 0,
									"midpoints" : [  ]
								}

							}
, 							{
								"patchline" : 								{
									"source" : [ "obj-48", 1 ],
									"destination" : [ "obj-28", 0 ],
									"hidden" : 0,
									"midpoints" : [  ]
								}

							}
, 							{
								"patchline" : 								{
									"source" : [ "obj-28", 0 ],
									"destination" : [ "obj-39", 1 ],
									"hidden" : 0,
									"midpoints" : [ 131.0, 284.0, 114.5, 284.0 ]
								}

							}
, 							{
								"patchline" : 								{
									"source" : [ "obj-98", 0 ],
									"destination" : [ "obj-39", 0 ],
									"hidden" : 0,
									"midpoints" : [  ]
								}

							}
, 							{
								"patchline" : 								{
									"source" : [ "obj-100", 0 ],
									"destination" : [ "obj-39", 0 ],
									"hidden" : 0,
									"midpoints" : [  ]
								}

							}
, 							{
								"patchline" : 								{
									"source" : [ "obj-101", 0 ],
									"destination" : [ "obj-84", 0 ],
									"hidden" : 0,
									"midpoints" : [  ]
								}

							}
, 							{
								"patchline" : 								{
									"source" : [ "obj-39", 0 ],
									"destination" : [ "obj-102", 0 ],
									"hidden" : 0,
									"midpoints" : [  ]
								}

							}
 ]
					}
,
					"saved_object_attributes" : 					{
						"default_fontsize" : 12.0,
						"globalpatchername" : "",
						"fontface" : 0,
						"fontsize" : 12.0,
						"default_fontface" : 0,
						"default_fontname" : "Arial",
						"fontname" : "Arial"
					}

				}

			}
, 			{
				"box" : 				{
					"maxclass" : "newobj",
					"text" : "p traitement_rvb",
					"id" : "obj-104",
					"fontsize" : 12.0,
					"numinlets" : 1,
					"numoutlets" : 1,
					"patching_rect" : [ 154.0, 375.0, 97.0, 20.0 ],
					"outlettype" : [ "jit_matrix" ],
					"fontname" : "Arial",
					"patcher" : 					{
						"fileversion" : 1,
						"rect" : [ 66.0, 69.0, 335.0, 483.0 ],
						"bglocked" : 0,
						"defrect" : [ 66.0, 69.0, 335.0, 483.0 ],
						"openrect" : [ 0.0, 0.0, 0.0, 0.0 ],
						"openinpresentation" : 0,
						"default_fontsize" : 12.0,
						"default_fontface" : 0,
						"default_fontname" : "Arial",
						"gridonopen" : 0,
						"gridsize" : [ 15.0, 15.0 ],
						"gridsnaponopen" : 0,
						"toolbarvisible" : 1,
						"boxanimatetime" : 200,
						"imprint" : 0,
						"metadata" : [  ],
						"boxes" : [ 							{
								"box" : 								{
									"maxclass" : "flonum",
									"id" : "obj-100",
									"fontsize" : 11.595187,
									"numinlets" : 1,
									"triscale" : 0.9,
									"numoutlets" : 2,
									"patching_rect" : [ 15.650696, 221.0, 50.0, 20.0 ],
									"outlettype" : [ "float", "bang" ],
									"fontname" : "Arial"
								}

							}
, 							{
								"box" : 								{
									"maxclass" : "number",
									"id" : "obj-50",
									"fontsize" : 12.0,
									"numinlets" : 1,
									"numoutlets" : 2,
									"patching_rect" : [ 104.0, 181.0, 50.0, 20.0 ],
									"outlettype" : [ "int", "bang" ],
									"fontname" : "Arial"
								}

							}
, 							{
								"box" : 								{
									"maxclass" : "umenu",
									"id" : "obj-48",
									"fontsize" : 11.595187,
									"numinlets" : 1,
									"items" : [ "min", ",", "!%", ",", "<p", ",", "<=p" ],
									"numoutlets" : 3,
									"types" : [  ],
									"patching_rect" : [ 101.0, 221.0, 60.0, 20.0 ],
									"outlettype" : [ "int", "", "" ],
									"fontname" : "Arial"
								}

							}
, 							{
								"box" : 								{
									"maxclass" : "newobj",
									"text" : "prepend op",
									"id" : "obj-28",
									"fontsize" : 11.595187,
									"numinlets" : 1,
									"numoutlets" : 1,
									"patching_rect" : [ 121.5, 244.560974, 72.0, 20.0 ],
									"outlettype" : [ "" ],
									"fontname" : "Arial"
								}

							}
, 							{
								"box" : 								{
									"maxclass" : "newobj",
									"text" : "jit.op @op !%",
									"id" : "obj-39",
									"fontsize" : 9.0,
									"numinlets" : 2,
									"numoutlets" : 2,
									"patching_rect" : [ 60.0, 297.0, 64.0, 17.0 ],
									"outlettype" : [ "jit_matrix", "" ],
									"fontname" : "Arial"
								}

							}
, 							{
								"box" : 								{
									"maxclass" : "newobj",
									"text" : "jit.matrix 1 long 256",
									"id" : "obj-98",
									"fontsize" : 9.0,
									"numinlets" : 1,
									"numoutlets" : 2,
									"patching_rect" : [ 62.0, 149.0, 89.0, 17.0 ],
									"outlettype" : [ "jit_matrix", "" ],
									"fontname" : "Arial"
								}

							}
, 							{
								"box" : 								{
									"maxclass" : "flonum",
									"id" : "obj-97",
									"fontsize" : 11.595187,
									"numinlets" : 1,
									"triscale" : 0.9,
									"numoutlets" : 2,
									"patching_rect" : [ 62.0, 34.0, 50.0, 20.0 ],
									"outlettype" : [ "float", "bang" ],
									"fontname" : "Arial"
								}

							}
, 							{
								"box" : 								{
									"maxclass" : "message",
									"text" : "dim $1 1",
									"id" : "obj-96",
									"fontsize" : 11.595187,
									"numinlets" : 2,
									"numoutlets" : 1,
									"patching_rect" : [ 62.0, 63.662048, 55.0, 18.0 ],
									"outlettype" : [ "" ],
									"fontname" : "Arial"
								}

							}
, 							{
								"box" : 								{
									"maxclass" : "flonum",
									"id" : "obj-89",
									"fontsize" : 11.595187,
									"numinlets" : 1,
									"triscale" : 0.9,
									"numoutlets" : 2,
									"patching_rect" : [ 211.650696, 45.0, 50.0, 20.0 ],
									"outlettype" : [ "float", "bang" ],
									"fontname" : "Arial"
								}

							}
, 							{
								"box" : 								{
									"maxclass" : "message",
									"text" : "slide_down $1",
									"id" : "obj-91",
									"fontsize" : 11.595187,
									"numinlets" : 2,
									"numoutlets" : 1,
									"patching_rect" : [ 211.650696, 68.662048, 83.0, 18.0 ],
									"outlettype" : [ "" ],
									"fontname" : "Arial"
								}

							}
, 							{
								"box" : 								{
									"maxclass" : "flonum",
									"id" : "obj-92",
									"fontsize" : 11.595187,
									"numinlets" : 1,
									"triscale" : 0.9,
									"numoutlets" : 2,
									"patching_rect" : [ 137.0, 45.0, 50.0, 20.0 ],
									"outlettype" : [ "float", "bang" ],
									"fontname" : "Arial"
								}

							}
, 							{
								"box" : 								{
									"maxclass" : "message",
									"text" : "slide_up $1",
									"id" : "obj-22",
									"fontsize" : 11.595187,
									"numinlets" : 2,
									"numoutlets" : 1,
									"patching_rect" : [ 137.0, 68.662048, 68.0, 18.0 ],
									"outlettype" : [ "" ],
									"fontname" : "Arial"
								}

							}
, 							{
								"box" : 								{
									"maxclass" : "newobj",
									"text" : "jit.slide",
									"id" : "obj-86",
									"fontsize" : 9.0,
									"numinlets" : 1,
									"numoutlets" : 2,
									"patching_rect" : [ 62.0, 121.0, 38.0, 17.0 ],
									"outlettype" : [ "jit_matrix", "" ],
									"fontname" : "Arial"
								}

							}
, 							{
								"box" : 								{
									"maxclass" : "newobj",
									"text" : "jit.matrix 1 long 8",
									"id" : "obj-84",
									"fontsize" : 9.0,
									"numinlets" : 1,
									"numoutlets" : 2,
									"patching_rect" : [ 62.0, 90.0, 79.0, 17.0 ],
									"outlettype" : [ "jit_matrix", "" ],
									"fontname" : "Arial"
								}

							}
, 							{
								"box" : 								{
									"maxclass" : "inlet",
									"id" : "obj-101",
									"numinlets" : 0,
									"numoutlets" : 1,
									"patching_rect" : [ 29.0, 33.0, 25.0, 25.0 ],
									"outlettype" : [ "jit_matrix" ],
									"comment" : ""
								}

							}
, 							{
								"box" : 								{
									"maxclass" : "outlet",
									"id" : "obj-102",
									"numinlets" : 1,
									"numoutlets" : 0,
									"patching_rect" : [ 59.0, 365.0, 25.0, 25.0 ],
									"comment" : ""
								}

							}
 ],
						"lines" : [ 							{
								"patchline" : 								{
									"source" : [ "obj-39", 0 ],
									"destination" : [ "obj-102", 0 ],
									"hidden" : 0,
									"midpoints" : [  ]
								}

							}
, 							{
								"patchline" : 								{
									"source" : [ "obj-101", 0 ],
									"destination" : [ "obj-84", 0 ],
									"hidden" : 0,
									"midpoints" : [  ]
								}

							}
, 							{
								"patchline" : 								{
									"source" : [ "obj-100", 0 ],
									"destination" : [ "obj-39", 0 ],
									"hidden" : 0,
									"midpoints" : [  ]
								}

							}
, 							{
								"patchline" : 								{
									"source" : [ "obj-98", 0 ],
									"destination" : [ "obj-39", 0 ],
									"hidden" : 0,
									"midpoints" : [  ]
								}

							}
, 							{
								"patchline" : 								{
									"source" : [ "obj-28", 0 ],
									"destination" : [ "obj-39", 1 ],
									"hidden" : 0,
									"midpoints" : [ 131.0, 284.0, 114.5, 284.0 ]
								}

							}
, 							{
								"patchline" : 								{
									"source" : [ "obj-48", 1 ],
									"destination" : [ "obj-28", 0 ],
									"hidden" : 0,
									"midpoints" : [  ]
								}

							}
, 							{
								"patchline" : 								{
									"source" : [ "obj-50", 0 ],
									"destination" : [ "obj-48", 0 ],
									"hidden" : 0,
									"midpoints" : [  ]
								}

							}
, 							{
								"patchline" : 								{
									"source" : [ "obj-84", 0 ],
									"destination" : [ "obj-86", 0 ],
									"hidden" : 0,
									"midpoints" : [  ]
								}

							}
, 							{
								"patchline" : 								{
									"source" : [ "obj-96", 0 ],
									"destination" : [ "obj-84", 0 ],
									"hidden" : 0,
									"midpoints" : [  ]
								}

							}
, 							{
								"patchline" : 								{
									"source" : [ "obj-86", 0 ],
									"destination" : [ "obj-98", 0 ],
									"hidden" : 0,
									"midpoints" : [  ]
								}

							}
, 							{
								"patchline" : 								{
									"source" : [ "obj-97", 0 ],
									"destination" : [ "obj-96", 0 ],
									"hidden" : 0,
									"midpoints" : [  ]
								}

							}
, 							{
								"patchline" : 								{
									"source" : [ "obj-91", 0 ],
									"destination" : [ "obj-86", 0 ],
									"hidden" : 0,
									"midpoints" : [ 221.150696, 118.0, 71.5, 118.0 ]
								}

							}
, 							{
								"patchline" : 								{
									"source" : [ "obj-22", 0 ],
									"destination" : [ "obj-86", 0 ],
									"hidden" : 0,
									"midpoints" : [ 146.5, 118.0, 71.5, 118.0 ]
								}

							}
, 							{
								"patchline" : 								{
									"source" : [ "obj-92", 0 ],
									"destination" : [ "obj-22", 0 ],
									"hidden" : 0,
									"midpoints" : [  ]
								}

							}
, 							{
								"patchline" : 								{
									"source" : [ "obj-89", 0 ],
									"destination" : [ "obj-91", 0 ],
									"hidden" : 0,
									"midpoints" : [  ]
								}

							}
 ]
					}
,
					"saved_object_attributes" : 					{
						"default_fontsize" : 12.0,
						"globalpatchername" : "",
						"fontface" : 0,
						"fontsize" : 12.0,
						"default_fontface" : 0,
						"default_fontname" : "Arial",
						"fontname" : "Arial"
					}

				}

			}
, 			{
				"box" : 				{
					"maxclass" : "newobj",
					"text" : "p traitement_rvb",
					"id" : "obj-103",
					"fontsize" : 12.0,
					"numinlets" : 1,
					"numoutlets" : 1,
					"patching_rect" : [ 141.0, 348.0, 97.0, 20.0 ],
					"outlettype" : [ "jit_matrix" ],
					"fontname" : "Arial",
					"patcher" : 					{
						"fileversion" : 1,
						"rect" : [ 66.0, 69.0, 335.0, 483.0 ],
						"bglocked" : 0,
						"defrect" : [ 66.0, 69.0, 335.0, 483.0 ],
						"openrect" : [ 0.0, 0.0, 0.0, 0.0 ],
						"openinpresentation" : 0,
						"default_fontsize" : 12.0,
						"default_fontface" : 0,
						"default_fontname" : "Arial",
						"gridonopen" : 0,
						"gridsize" : [ 15.0, 15.0 ],
						"gridsnaponopen" : 0,
						"toolbarvisible" : 1,
						"boxanimatetime" : 200,
						"imprint" : 0,
						"metadata" : [  ],
						"boxes" : [ 							{
								"box" : 								{
									"maxclass" : "flonum",
									"id" : "obj-100",
									"fontsize" : 11.595187,
									"numinlets" : 1,
									"triscale" : 0.9,
									"numoutlets" : 2,
									"patching_rect" : [ 15.650696, 221.0, 50.0, 20.0 ],
									"outlettype" : [ "float", "bang" ],
									"fontname" : "Arial"
								}

							}
, 							{
								"box" : 								{
									"maxclass" : "number",
									"id" : "obj-50",
									"fontsize" : 12.0,
									"numinlets" : 1,
									"numoutlets" : 2,
									"patching_rect" : [ 104.0, 181.0, 50.0, 20.0 ],
									"outlettype" : [ "int", "bang" ],
									"fontname" : "Arial"
								}

							}
, 							{
								"box" : 								{
									"maxclass" : "umenu",
									"id" : "obj-48",
									"fontsize" : 11.595187,
									"numinlets" : 1,
									"items" : [ "min", ",", "!%", ",", "<p", ",", "<=p" ],
									"numoutlets" : 3,
									"types" : [  ],
									"patching_rect" : [ 101.0, 221.0, 60.0, 20.0 ],
									"outlettype" : [ "int", "", "" ],
									"fontname" : "Arial"
								}

							}
, 							{
								"box" : 								{
									"maxclass" : "newobj",
									"text" : "prepend op",
									"id" : "obj-28",
									"fontsize" : 11.595187,
									"numinlets" : 1,
									"numoutlets" : 1,
									"patching_rect" : [ 121.5, 244.560974, 72.0, 20.0 ],
									"outlettype" : [ "" ],
									"fontname" : "Arial"
								}

							}
, 							{
								"box" : 								{
									"maxclass" : "newobj",
									"text" : "jit.op @op !%",
									"id" : "obj-39",
									"fontsize" : 9.0,
									"numinlets" : 2,
									"numoutlets" : 2,
									"patching_rect" : [ 60.0, 297.0, 64.0, 17.0 ],
									"outlettype" : [ "jit_matrix", "" ],
									"fontname" : "Arial"
								}

							}
, 							{
								"box" : 								{
									"maxclass" : "newobj",
									"text" : "jit.matrix 1 long 256",
									"id" : "obj-98",
									"fontsize" : 9.0,
									"numinlets" : 1,
									"numoutlets" : 2,
									"patching_rect" : [ 62.0, 149.0, 89.0, 17.0 ],
									"outlettype" : [ "jit_matrix", "" ],
									"fontname" : "Arial"
								}

							}
, 							{
								"box" : 								{
									"maxclass" : "flonum",
									"id" : "obj-97",
									"fontsize" : 11.595187,
									"numinlets" : 1,
									"triscale" : 0.9,
									"numoutlets" : 2,
									"patching_rect" : [ 62.0, 34.0, 50.0, 20.0 ],
									"outlettype" : [ "float", "bang" ],
									"fontname" : "Arial"
								}

							}
, 							{
								"box" : 								{
									"maxclass" : "message",
									"text" : "dim $1 1",
									"id" : "obj-96",
									"fontsize" : 11.595187,
									"numinlets" : 2,
									"numoutlets" : 1,
									"patching_rect" : [ 62.0, 63.662048, 55.0, 18.0 ],
									"outlettype" : [ "" ],
									"fontname" : "Arial"
								}

							}
, 							{
								"box" : 								{
									"maxclass" : "flonum",
									"id" : "obj-89",
									"fontsize" : 11.595187,
									"numinlets" : 1,
									"triscale" : 0.9,
									"numoutlets" : 2,
									"patching_rect" : [ 211.650696, 45.0, 50.0, 20.0 ],
									"outlettype" : [ "float", "bang" ],
									"fontname" : "Arial"
								}

							}
, 							{
								"box" : 								{
									"maxclass" : "message",
									"text" : "slide_down $1",
									"id" : "obj-91",
									"fontsize" : 11.595187,
									"numinlets" : 2,
									"numoutlets" : 1,
									"patching_rect" : [ 211.650696, 68.662048, 83.0, 18.0 ],
									"outlettype" : [ "" ],
									"fontname" : "Arial"
								}

							}
, 							{
								"box" : 								{
									"maxclass" : "flonum",
									"id" : "obj-92",
									"fontsize" : 11.595187,
									"numinlets" : 1,
									"triscale" : 0.9,
									"numoutlets" : 2,
									"patching_rect" : [ 137.0, 45.0, 50.0, 20.0 ],
									"outlettype" : [ "float", "bang" ],
									"fontname" : "Arial"
								}

							}
, 							{
								"box" : 								{
									"maxclass" : "message",
									"text" : "slide_up $1",
									"id" : "obj-22",
									"fontsize" : 11.595187,
									"numinlets" : 2,
									"numoutlets" : 1,
									"patching_rect" : [ 137.0, 68.662048, 68.0, 18.0 ],
									"outlettype" : [ "" ],
									"fontname" : "Arial"
								}

							}
, 							{
								"box" : 								{
									"maxclass" : "newobj",
									"text" : "jit.slide",
									"id" : "obj-86",
									"fontsize" : 9.0,
									"numinlets" : 1,
									"numoutlets" : 2,
									"patching_rect" : [ 62.0, 121.0, 38.0, 17.0 ],
									"outlettype" : [ "jit_matrix", "" ],
									"fontname" : "Arial"
								}

							}
, 							{
								"box" : 								{
									"maxclass" : "newobj",
									"text" : "jit.matrix 1 long 8",
									"id" : "obj-84",
									"fontsize" : 9.0,
									"numinlets" : 1,
									"numoutlets" : 2,
									"patching_rect" : [ 62.0, 90.0, 79.0, 17.0 ],
									"outlettype" : [ "jit_matrix", "" ],
									"fontname" : "Arial"
								}

							}
, 							{
								"box" : 								{
									"maxclass" : "inlet",
									"id" : "obj-101",
									"numinlets" : 0,
									"numoutlets" : 1,
									"patching_rect" : [ 29.0, 33.0, 25.0, 25.0 ],
									"outlettype" : [ "jit_matrix" ],
									"comment" : ""
								}

							}
, 							{
								"box" : 								{
									"maxclass" : "outlet",
									"id" : "obj-102",
									"numinlets" : 1,
									"numoutlets" : 0,
									"patching_rect" : [ 59.0, 365.0, 25.0, 25.0 ],
									"comment" : ""
								}

							}
 ],
						"lines" : [ 							{
								"patchline" : 								{
									"source" : [ "obj-89", 0 ],
									"destination" : [ "obj-91", 0 ],
									"hidden" : 0,
									"midpoints" : [  ]
								}

							}
, 							{
								"patchline" : 								{
									"source" : [ "obj-92", 0 ],
									"destination" : [ "obj-22", 0 ],
									"hidden" : 0,
									"midpoints" : [  ]
								}

							}
, 							{
								"patchline" : 								{
									"source" : [ "obj-22", 0 ],
									"destination" : [ "obj-86", 0 ],
									"hidden" : 0,
									"midpoints" : [ 146.5, 118.0, 71.5, 118.0 ]
								}

							}
, 							{
								"patchline" : 								{
									"source" : [ "obj-91", 0 ],
									"destination" : [ "obj-86", 0 ],
									"hidden" : 0,
									"midpoints" : [ 221.150696, 118.0, 71.5, 118.0 ]
								}

							}
, 							{
								"patchline" : 								{
									"source" : [ "obj-97", 0 ],
									"destination" : [ "obj-96", 0 ],
									"hidden" : 0,
									"midpoints" : [  ]
								}

							}
, 							{
								"patchline" : 								{
									"source" : [ "obj-86", 0 ],
									"destination" : [ "obj-98", 0 ],
									"hidden" : 0,
									"midpoints" : [  ]
								}

							}
, 							{
								"patchline" : 								{
									"source" : [ "obj-96", 0 ],
									"destination" : [ "obj-84", 0 ],
									"hidden" : 0,
									"midpoints" : [  ]
								}

							}
, 							{
								"patchline" : 								{
									"source" : [ "obj-84", 0 ],
									"destination" : [ "obj-86", 0 ],
									"hidden" : 0,
									"midpoints" : [  ]
								}

							}
, 							{
								"patchline" : 								{
									"source" : [ "obj-50", 0 ],
									"destination" : [ "obj-48", 0 ],
									"hidden" : 0,
									"midpoints" : [  ]
								}

							}
, 							{
								"patchline" : 								{
									"source" : [ "obj-48", 1 ],
									"destination" : [ "obj-28", 0 ],
									"hidden" : 0,
									"midpoints" : [  ]
								}

							}
, 							{
								"patchline" : 								{
									"source" : [ "obj-28", 0 ],
									"destination" : [ "obj-39", 1 ],
									"hidden" : 0,
									"midpoints" : [ 131.0, 284.0, 114.5, 284.0 ]
								}

							}
, 							{
								"patchline" : 								{
									"source" : [ "obj-98", 0 ],
									"destination" : [ "obj-39", 0 ],
									"hidden" : 0,
									"midpoints" : [  ]
								}

							}
, 							{
								"patchline" : 								{
									"source" : [ "obj-100", 0 ],
									"destination" : [ "obj-39", 0 ],
									"hidden" : 0,
									"midpoints" : [  ]
								}

							}
, 							{
								"patchline" : 								{
									"source" : [ "obj-101", 0 ],
									"destination" : [ "obj-84", 0 ],
									"hidden" : 0,
									"midpoints" : [  ]
								}

							}
, 							{
								"patchline" : 								{
									"source" : [ "obj-39", 0 ],
									"destination" : [ "obj-102", 0 ],
									"hidden" : 0,
									"midpoints" : [  ]
								}

							}
 ]
					}
,
					"saved_object_attributes" : 					{
						"default_fontsize" : 12.0,
						"globalpatchername" : "",
						"fontface" : 0,
						"fontsize" : 12.0,
						"default_fontface" : 0,
						"default_fontname" : "Arial",
						"fontname" : "Arial"
					}

				}

			}
, 			{
				"box" : 				{
					"maxclass" : "toggle",
					"id" : "obj-72",
					"numinlets" : 1,
					"numoutlets" : 1,
					"patching_rect" : [ 391.0, 44.0, 20.0, 20.0 ],
					"outlettype" : [ "int" ]
				}

			}
, 			{
				"box" : 				{
					"maxclass" : "message",
					"text" : "write",
					"id" : "obj-25",
					"fontsize" : 12.0,
					"numinlets" : 2,
					"numoutlets" : 1,
					"patching_rect" : [ 926.0, 400.0, 36.0, 18.0 ],
					"outlettype" : [ "" ],
					"fontname" : "Arial"
				}

			}
, 			{
				"box" : 				{
					"maxclass" : "message",
					"text" : "read matri_convol",
					"id" : "obj-133",
					"fontsize" : 12.0,
					"numinlets" : 2,
					"numoutlets" : 1,
					"patching_rect" : [ 906.0, 454.0, 106.0, 18.0 ],
					"outlettype" : [ "" ],
					"fontname" : "Arial"
				}

			}
, 			{
				"box" : 				{
					"maxclass" : "number",
					"id" : "obj-127",
					"fontsize" : 12.0,
					"numinlets" : 1,
					"numoutlets" : 2,
					"patching_rect" : [ 142.0, 681.0, 50.0, 20.0 ],
					"outlettype" : [ "int", "bang" ],
					"fontname" : "Arial"
				}

			}
, 			{
				"box" : 				{
					"maxclass" : "umenu",
					"id" : "obj-14",
					"fontsize" : 11.595187,
					"numinlets" : 1,
					"items" : [ "pass", ",", "*", ",", "/", ",", "+", ",", "\\-", ",", "+m", ",", "-m", ",", "%", ",", "min", ",", "max", ",", "abs", ",", "avg", ",", "absdiff", ",", "wrap", ",", "fold", ",", "!pass", ",", "!/", ",", "!-", ",", "!%", ",", "&", ",", "|", ",", "^", ",", "~", ",", ">>", ",", "<<", ",", "&&", ",", "||", ",", "!", ",", ">", ",", "<", ",", ">=", ",", "<=", ",", "==", ",", "!=", ",", ">p", ",", "<p", ",", ">=p", ",", "<=p", ",", "==p", ",", "!=p", ",", "sin", ",", "cos", ",", "tan", ",", "asin", ",", "acos", ",", "atan", ",", "atan2", ",", "sinh", ",", "cosh", ",", "tanh", ",", "asinh", ",", "acosh", ",", "atanh", ",", "exp", ",", "exp2", ",", "ln", ",", "log2", ",", "log10", ",", "hypot", ",", "pow", ",", "sqrt", ",", "ceil", ",", "floor", ",", "round", ",", "trunc", ",", "ignore" ],
					"numoutlets" : 3,
					"types" : [  ],
					"patching_rect" : [ 140.0, 705.0, 60.0, 20.0 ],
					"outlettype" : [ "int", "", "" ],
					"fontname" : "Arial"
				}

			}
, 			{
				"box" : 				{
					"maxclass" : "newobj",
					"text" : "prepend op",
					"id" : "obj-125",
					"fontsize" : 11.595187,
					"numinlets" : 1,
					"numoutlets" : 1,
					"patching_rect" : [ 160.5, 728.560974, 72.0, 20.0 ],
					"outlettype" : [ "" ],
					"fontname" : "Arial"
				}

			}
, 			{
				"box" : 				{
					"maxclass" : "newobj",
					"text" : "t l l",
					"id" : "obj-124",
					"fontsize" : 9.0,
					"numinlets" : 1,
					"numoutlets" : 2,
					"patching_rect" : [ 94.0, 725.0, 32.5, 17.0 ],
					"outlettype" : [ "", "" ],
					"fontname" : "Arial"
				}

			}
, 			{
				"box" : 				{
					"maxclass" : "newobj",
					"text" : "jit.op @op avg",
					"id" : "obj-123",
					"fontsize" : 9.0,
					"numinlets" : 2,
					"numoutlets" : 2,
					"patching_rect" : [ 93.0, 750.0, 68.0, 17.0 ],
					"outlettype" : [ "jit_matrix", "" ],
					"fontname" : "Arial"
				}

			}
, 			{
				"box" : 				{
					"maxclass" : "newobj",
					"text" : "p op_list",
					"id" : "obj-122",
					"fontsize" : 11.595187,
					"numinlets" : 0,
					"numoutlets" : 0,
					"patching_rect" : [ 937.0, 136.0, 54.0, 20.0 ],
					"fontname" : "Arial",
					"patcher" : 					{
						"fileversion" : 1,
						"rect" : [ 954.0, 44.0, 461.0, 645.0 ],
						"bglocked" : 0,
						"defrect" : [ 954.0, 44.0, 461.0, 645.0 ],
						"openrect" : [ 0.0, 0.0, 0.0, 0.0 ],
						"openinpresentation" : 0,
						"default_fontsize" : 10.0,
						"default_fontface" : 0,
						"default_fontname" : "Arial",
						"gridonopen" : 0,
						"gridsize" : [ 15.0, 15.0 ],
						"gridsnaponopen" : 0,
						"toolbarvisible" : 1,
						"boxanimatetime" : 200,
						"imprint" : 0,
						"metadata" : [  ],
						"boxes" : [ 							{
								"box" : 								{
									"maxclass" : "comment",
									"text" : ">p: greater than(pass);\r<p: less than(pass);\r>=p: greater than or equal to(pass);\r<=p: less than or equal to(pass);\r==p: equal(pass);\r!=p not equal(pass)",
									"linecount" : 6,
									"id" : "obj-2",
									"fontsize" : 11.595187,
									"numinlets" : 1,
									"numoutlets" : 0,
									"patching_rect" : [ 250.0, 283.0, 194.0, 86.0 ],
									"fontname" : "Arial"
								}

							}
, 							{
								"box" : 								{
									"maxclass" : "comment",
									"text" : "(long/char only)",
									"id" : "obj-3",
									"fontsize" : 11.595187,
									"numinlets" : 1,
									"numoutlets" : 0,
									"patching_rect" : [ 250.0, 40.0, 146.0, 20.0 ],
									"fontname" : "Arial"
								}

							}
, 							{
								"box" : 								{
									"maxclass" : "comment",
									"text" : "(float32/float64 only, unary unless otherwise mentioned)",
									"linecount" : 2,
									"id" : "obj-4",
									"fontsize" : 11.595187,
									"numinlets" : 1,
									"numoutlets" : 0,
									"patching_rect" : [ 250.0, 387.0, 156.0, 33.0 ],
									"fontname" : "Arial"
								}

							}
, 							{
								"box" : 								{
									"maxclass" : "comment",
									"text" : "exp/log/rounding",
									"id" : "obj-5",
									"fontface" : 1,
									"fontsize" : 11.595187,
									"numinlets" : 1,
									"numoutlets" : 0,
									"patching_rect" : [ 250.0, 370.0, 163.0, 20.0 ],
									"fontname" : "Arial"
								}

							}
, 							{
								"box" : 								{
									"maxclass" : "comment",
									"text" : "(float32/float64 only, unary unless otherwise mentioned)",
									"linecount" : 2,
									"id" : "obj-6",
									"fontsize" : 11.595187,
									"numinlets" : 1,
									"numoutlets" : 0,
									"patching_rect" : [ 17.0, 351.0, 156.0, 33.0 ],
									"fontname" : "Arial"
								}

							}
, 							{
								"box" : 								{
									"maxclass" : "comment",
									"text" : "sin: sine;\rcos: cosine;\rtan: tangent;\rasin: arcsine;\racos: arccosine;\ratan: arctangent;\ratan2: arctangent(binary);\rsinh: hyperbolic sine;\rcosh: hyperbolic cosine;\rtanh: hyperbolic tangent;\rasinh: hyperbolic arcsine;\racosh: hyperbolic arccosine;\ratanh: hyperbolic arctangent;\r",
									"linecount" : 13,
									"id" : "obj-7",
									"fontsize" : 11.595187,
									"numinlets" : 1,
									"numoutlets" : 0,
									"patching_rect" : [ 17.0, 385.0, 170.0, 180.0 ],
									"fontname" : "Arial"
								}

							}
, 							{
								"box" : 								{
									"maxclass" : "comment",
									"text" : "&&: logical and;\r||: logical or;\r!: logical not(unary);\r>: greater than;\r<: less than;\r>=: greater than or equal to;\r<=: less than or equal to;\r==: equal;\r!=: not equal",
									"linecount" : 9,
									"id" : "obj-8",
									"fontsize" : 11.595187,
									"numinlets" : 1,
									"numoutlets" : 0,
									"patching_rect" : [ 250.0, 160.0, 164.0, 126.0 ],
									"fontname" : "Arial"
								}

							}
, 							{
								"box" : 								{
									"maxclass" : "comment",
									"text" : "logical",
									"id" : "obj-9",
									"fontface" : 1,
									"fontsize" : 11.595187,
									"numinlets" : 1,
									"numoutlets" : 0,
									"patching_rect" : [ 250.0, 141.0, 110.0, 20.0 ],
									"fontname" : "Arial"
								}

							}
, 							{
								"box" : 								{
									"maxclass" : "comment",
									"text" : "exp: e to the x;\rexp2: 2 to the x;\rln: log base e;\rlog2: log base 2;\rlog10: log base 10;\rhypot: hypotenuse(binary);\rpow: x to the y(binary);\rsqrt: square root;\rceil: integer ceiling;\rfloor: integer floor;\rround: round to nearest integer;\rtrunc: truncate to integer",
									"linecount" : 12,
									"id" : "obj-10",
									"fontsize" : 11.595187,
									"numinlets" : 1,
									"numoutlets" : 0,
									"patching_rect" : [ 250.0, 417.0, 174.0, 166.0 ],
									"fontname" : "Arial"
								}

							}
, 							{
								"box" : 								{
									"maxclass" : "comment",
									"text" : "bitwise",
									"id" : "obj-11",
									"fontface" : 1,
									"fontsize" : 11.595187,
									"numinlets" : 1,
									"numoutlets" : 0,
									"patching_rect" : [ 250.0, 19.0, 146.0, 20.0 ],
									"fontname" : "Arial"
								}

							}
, 							{
								"box" : 								{
									"maxclass" : "comment",
									"text" : "&: bitwise and;\r|: bitwise or;\r^: bitwise xor;\r~: bitwise compliment(unary);\r>>: right shift;\r<<: left shift",
									"linecount" : 6,
									"id" : "obj-12",
									"fontsize" : 11.595187,
									"numinlets" : 1,
									"numoutlets" : 0,
									"patching_rect" : [ 250.0, 57.0, 163.0, 86.0 ],
									"fontname" : "Arial"
								}

							}
, 							{
								"box" : 								{
									"maxclass" : "comment",
									"text" : "pass: pass left input, no operator;\r*: multiplication;\r/: division;\r+: addition;\r-: subtraction;\r+m: addition modulo(char only);\r-m: subtraction modulo(char only);\r%: modulo;\rmin: minimum;\rmax: maximum;\rabs: absolute value(unary);\ravg: average;\rabsdiff: absolute value of difference;\r!pass: pass right input, no operator;\r!/: right input/left input(filpped);\r!-: right input-left input(filpped);\r!%:right input/left input(filpped);\rignore: leave previous output value;\rfold: mirrored modulo (float32/float64 only);\rwrap: positive modulo (float32/float64 only);\r",
									"linecount" : 20,
									"id" : "obj-13",
									"fontsize" : 11.595187,
									"numinlets" : 1,
									"numoutlets" : 0,
									"patching_rect" : [ 17.0, 45.0, 235.0, 273.0 ],
									"fontname" : "Arial"
								}

							}
, 							{
								"box" : 								{
									"maxclass" : "comment",
									"text" : "arithmetic",
									"id" : "obj-14",
									"fontface" : 1,
									"fontsize" : 11.595187,
									"numinlets" : 1,
									"numoutlets" : 0,
									"patching_rect" : [ 17.0, 19.0, 109.0, 20.0 ],
									"fontname" : "Arial"
								}

							}
, 							{
								"box" : 								{
									"maxclass" : "comment",
									"text" : "trigonometric",
									"id" : "obj-15",
									"fontface" : 1,
									"fontsize" : 11.595187,
									"numinlets" : 1,
									"numoutlets" : 0,
									"patching_rect" : [ 17.0, 328.0, 162.0, 20.0 ],
									"fontname" : "Arial"
								}

							}
 ],
						"lines" : [  ]
					}
,
					"saved_object_attributes" : 					{
						"default_fontsize" : 10.0,
						"globalpatchername" : "",
						"fontface" : 0,
						"fontsize" : 10.0,
						"default_fontface" : 0,
						"default_fontname" : "Arial",
						"fontname" : "Arial"
					}

				}

			}
, 			{
				"box" : 				{
					"maxclass" : "comment",
					"text" : "1.8",
					"id" : "obj-95",
					"fontsize" : 12.0,
					"numinlets" : 1,
					"numoutlets" : 0,
					"patching_rect" : [ 138.0, 132.0, 36.0, 20.0 ],
					"fontname" : "Arial"
				}

			}
, 			{
				"box" : 				{
					"maxclass" : "comment",
					"text" : "1.35",
					"id" : "obj-93",
					"fontsize" : 12.0,
					"numinlets" : 1,
					"numoutlets" : 0,
					"patching_rect" : [ 293.0, 163.0, 36.0, 20.0 ],
					"fontname" : "Arial"
				}

			}
, 			{
				"box" : 				{
					"maxclass" : "flonum",
					"id" : "obj-74",
					"fontsize" : 11.595187,
					"numinlets" : 1,
					"triscale" : 0.9,
					"numoutlets" : 2,
					"patching_rect" : [ 345.085266, 204.714264, 50.0, 20.0 ],
					"outlettype" : [ "float", "bang" ],
					"fontname" : "Arial"
				}

			}
, 			{
				"box" : 				{
					"maxclass" : "message",
					"text" : "bscale $1",
					"id" : "obj-75",
					"fontsize" : 11.595187,
					"numinlets" : 2,
					"numoutlets" : 1,
					"patching_rect" : [ 345.085266, 229.071411, 58.0, 18.0 ],
					"outlettype" : [ "" ],
					"fontname" : "Arial"
				}

			}
, 			{
				"box" : 				{
					"maxclass" : "flonum",
					"id" : "obj-80",
					"fontsize" : 11.595187,
					"numinlets" : 1,
					"triscale" : 0.9,
					"numoutlets" : 2,
					"patching_rect" : [ 279.282959, 204.714264, 50.0, 20.0 ],
					"outlettype" : [ "float", "bang" ],
					"fontname" : "Arial"
				}

			}
, 			{
				"box" : 				{
					"maxclass" : "message",
					"text" : "gscale $1",
					"id" : "obj-81",
					"fontsize" : 11.595187,
					"numinlets" : 2,
					"numoutlets" : 1,
					"patching_rect" : [ 279.282959, 229.071411, 58.0, 18.0 ],
					"outlettype" : [ "" ],
					"fontname" : "Arial"
				}

			}
, 			{
				"box" : 				{
					"maxclass" : "flonum",
					"id" : "obj-87",
					"fontsize" : 11.595187,
					"numinlets" : 1,
					"triscale" : 0.9,
					"numoutlets" : 2,
					"patching_rect" : [ 215.480591, 204.714264, 50.0, 20.0 ],
					"outlettype" : [ "float", "bang" ],
					"fontname" : "Arial"
				}

			}
, 			{
				"box" : 				{
					"maxclass" : "message",
					"text" : "rscale $1",
					"id" : "obj-88",
					"fontsize" : 11.595187,
					"numinlets" : 2,
					"numoutlets" : 1,
					"patching_rect" : [ 215.480591, 229.071411, 56.0, 18.0 ],
					"outlettype" : [ "" ],
					"fontname" : "Arial"
				}

			}
, 			{
				"box" : 				{
					"maxclass" : "newobj",
					"text" : "jit.scalebias",
					"id" : "obj-90",
					"fontsize" : 11.595187,
					"numinlets" : 1,
					"numoutlets" : 2,
					"patching_rect" : [ 128.0, 259.0, 70.0, 20.0 ],
					"outlettype" : [ "jit_matrix", "" ],
					"fontname" : "Arial"
				}

			}
, 			{
				"box" : 				{
					"maxclass" : "jit.pwindow",
					"id" : "obj-12",
					"onscreen" : 0,
					"numinlets" : 1,
					"numoutlets" : 2,
					"patching_rect" : [ 345.0, 681.0, 285.100006, 215.0 ],
					"depthbuffer" : 0,
					"outlettype" : [ "", "" ]
				}

			}
, 			{
				"box" : 				{
					"maxclass" : "message",
					"text" : "1",
					"id" : "obj-94",
					"fontsize" : 11.595187,
					"numinlets" : 2,
					"numoutlets" : 1,
					"patching_rect" : [ 1092.0, 637.0, 32.5, 18.0 ],
					"outlettype" : [ "" ],
					"fontname" : "Arial"
				}

			}
, 			{
				"box" : 				{
					"maxclass" : "message",
					"text" : "0",
					"id" : "obj-63",
					"fontsize" : 11.595187,
					"numinlets" : 2,
					"numoutlets" : 1,
					"patching_rect" : [ 965.0, 632.0, 32.5, 18.0 ],
					"outlettype" : [ "" ],
					"fontname" : "Arial"
				}

			}
, 			{
				"box" : 				{
					"maxclass" : "newobj",
					"text" : "t b",
					"id" : "obj-62",
					"fontsize" : 11.595187,
					"numinlets" : 1,
					"numoutlets" : 1,
					"patching_rect" : [ 879.0, 647.0, 23.0, 20.0 ],
					"outlettype" : [ "bang" ],
					"fontname" : "Arial"
				}

			}
, 			{
				"box" : 				{
					"maxclass" : "flonum",
					"id" : "obj-59",
					"fontsize" : 11.595187,
					"numinlets" : 1,
					"numoutlets" : 2,
					"patching_rect" : [ 1024.0, 641.0, 50.0, 20.0 ],
					"outlettype" : [ "float", "bang" ],
					"fontname" : "Arial"
				}

			}
, 			{
				"box" : 				{
					"maxclass" : "newobj",
					"text" : "unpack s s 0 0",
					"id" : "obj-56",
					"fontsize" : 11.595187,
					"numinlets" : 1,
					"numoutlets" : 4,
					"patching_rect" : [ 865.0, 617.0, 85.0, 20.0 ],
					"outlettype" : [ "", "", "int", "int" ],
					"fontname" : "Arial"
				}

			}
, 			{
				"box" : 				{
					"maxclass" : "newobj",
					"text" : "pack setcell 0 0 plane 0 val 0.",
					"id" : "obj-55",
					"fontsize" : 11.595187,
					"numinlets" : 7,
					"numoutlets" : 1,
					"patching_rect" : [ 876.0, 688.0, 163.0, 20.0 ],
					"outlettype" : [ "" ],
					"fontname" : "Arial"
				}

			}
, 			{
				"box" : 				{
					"maxclass" : "button",
					"id" : "obj-52",
					"numinlets" : 1,
					"numoutlets" : 1,
					"patching_rect" : [ 689.0, 610.0, 20.0, 20.0 ],
					"outlettype" : [ "bang" ]
				}

			}
, 			{
				"box" : 				{
					"maxclass" : "message",
					"text" : "setcell 1 1 plane 0 val 0.5",
					"id" : "obj-35",
					"fontsize" : 11.595187,
					"numinlets" : 2,
					"numoutlets" : 1,
					"patching_rect" : [ 967.0, 600.0, 141.0, 18.0 ],
					"outlettype" : [ "" ],
					"fontname" : "Arial"
				}

			}
, 			{
				"box" : 				{
					"maxclass" : "message",
					"text" : "setall 0",
					"id" : "obj-36",
					"fontsize" : 11.595187,
					"numinlets" : 2,
					"numoutlets" : 1,
					"patching_rect" : [ 721.0, 615.0, 47.0, 18.0 ],
					"outlettype" : [ "" ],
					"fontname" : "Arial"
				}

			}
, 			{
				"box" : 				{
					"maxclass" : "newobj",
					"text" : "jit.matrix 1 float32 3 3",
					"id" : "obj-45",
					"fontsize" : 11.595187,
					"numinlets" : 1,
					"numoutlets" : 2,
					"patching_rect" : [ 725.0, 641.0, 121.0, 20.0 ],
					"outlettype" : [ "jit_matrix", "" ],
					"fontname" : "Arial"
				}

			}
, 			{
				"box" : 				{
					"maxclass" : "button",
					"id" : "obj-44",
					"numinlets" : 1,
					"numoutlets" : 1,
					"patching_rect" : [ 816.0, 466.0, 20.0, 20.0 ],
					"outlettype" : [ "bang" ]
				}

			}
, 			{
				"box" : 				{
					"maxclass" : "jit.cellblock",
					"id" : "obj-40",
					"gridlinecolor" : [ 0.0, 0.0, 0.0, 1.0 ],
					"rowheight" : 17,
					"selmode" : 5,
					"hcellcolor" : [ 0.836576, 0.836576, 0.933852, 1.0 ],
					"precision" : 4,
					"fontsize" : 11.595187,
					"numinlets" : 2,
					"vscroll" : 0,
					"colwidth" : 45,
					"bgcolor" : [ 0.992218, 0.992218, 0.992218, 1.0 ],
					"numoutlets" : 4,
					"hscroll" : 0,
					"patching_rect" : [ 815.0, 518.0, 148.0, 67.0 ],
					"outlettype" : [ "list", "", "", "" ],
					"rows" : 3,
					"cols" : 3,
					"fontname" : "Arial",
					"bordercolor" : [ 0.0, 0.0, 0.0, 1.0 ]
				}

			}
, 			{
				"box" : 				{
					"maxclass" : "message",
					"text" : "setall $1, bang",
					"id" : "obj-43",
					"fontsize" : 11.595187,
					"numinlets" : 2,
					"numoutlets" : 1,
					"patching_rect" : [ 666.0, 549.0, 86.0, 18.0 ],
					"outlettype" : [ "" ],
					"fontname" : "Arial"
				}

			}
, 			{
				"box" : 				{
					"maxclass" : "newobj",
					"text" : "loadbang",
					"id" : "obj-49",
					"fontsize" : 11.595187,
					"numinlets" : 1,
					"numoutlets" : 1,
					"patching_rect" : [ 486.0, 479.0, 56.0, 20.0 ],
					"outlettype" : [ "bang" ],
					"fontname" : "Arial"
				}

			}
, 			{
				"box" : 				{
					"maxclass" : "jit.cellblock",
					"id" : "obj-53",
					"gridlinecolor" : [ 0.0, 0.0, 0.0, 1.0 ],
					"rowheight" : 17,
					"selmode" : 5,
					"hcellcolor" : [ 0.836576, 0.836576, 0.933852, 1.0 ],
					"precision" : 4,
					"fontsize" : 11.595187,
					"numinlets" : 2,
					"vscroll" : 0,
					"colwidth" : 45,
					"bgcolor" : [ 0.992218, 0.992218, 0.992218, 1.0 ],
					"numoutlets" : 4,
					"hscroll" : 0,
					"patching_rect" : [ 514.0, 510.0, 136.0, 52.0 ],
					"outlettype" : [ "list", "", "", "" ],
					"rows" : 3,
					"cols" : 3,
					"fontname" : "Arial",
					"bordercolor" : [ 0.0, 0.0, 0.0, 1.0 ]
				}

			}
, 			{
				"box" : 				{
					"maxclass" : "button",
					"id" : "obj-54",
					"numinlets" : 1,
					"numoutlets" : 1,
					"patching_rect" : [ 486.0, 499.0, 20.0, 20.0 ],
					"outlettype" : [ "bang" ]
				}

			}
, 			{
				"box" : 				{
					"maxclass" : "newobj",
					"text" : "t b",
					"id" : "obj-57",
					"fontsize" : 11.595187,
					"numinlets" : 1,
					"numoutlets" : 1,
					"patching_rect" : [ 463.0, 570.0, 21.0, 20.0 ],
					"outlettype" : [ "bang" ],
					"fontname" : "Arial"
				}

			}
, 			{
				"box" : 				{
					"maxclass" : "newobj",
					"text" : "jit.matrix 1 float32 3 3",
					"id" : "obj-58",
					"fontsize" : 11.595187,
					"numinlets" : 1,
					"numoutlets" : 2,
					"patching_rect" : [ 486.0, 590.0, 119.0, 20.0 ],
					"outlettype" : [ "jit_matrix", "" ],
					"fontname" : "Arial"
				}

			}
, 			{
				"box" : 				{
					"maxclass" : "comment",
					"text" : "supports: any type/planecount.",
					"id" : "obj-21",
					"fontsize" : 11.595187,
					"numinlets" : 1,
					"numoutlets" : 0,
					"patching_rect" : [ 511.0, 645.0, 166.0, 20.0 ],
					"fontname" : "Arial"
				}

			}
, 			{
				"box" : 				{
					"maxclass" : "number",
					"id" : "obj-60",
					"fontsize" : 11.595187,
					"minimum" : 0,
					"numinlets" : 1,
					"maximum" : 2,
					"triscale" : 0.9,
					"numoutlets" : 2,
					"patching_rect" : [ 360.0, 552.0, 50.0, 20.0 ],
					"outlettype" : [ "int", "bang" ],
					"fontname" : "Arial"
				}

			}
, 			{
				"box" : 				{
					"maxclass" : "message",
					"text" : "boundmode $1",
					"id" : "obj-61",
					"fontsize" : 11.595187,
					"numinlets" : 2,
					"numoutlets" : 1,
					"patching_rect" : [ 360.0, 578.0, 86.0, 18.0 ],
					"outlettype" : [ "" ],
					"fontname" : "Arial"
				}

			}
, 			{
				"box" : 				{
					"maxclass" : "flonum",
					"id" : "obj-64",
					"fontsize" : 11.595187,
					"numinlets" : 1,
					"triscale" : 0.9,
					"numoutlets" : 2,
					"patching_rect" : [ 666.0, 524.0, 50.0, 20.0 ],
					"outlettype" : [ "float", "bang" ],
					"fontname" : "Arial"
				}

			}
, 			{
				"box" : 				{
					"maxclass" : "number",
					"id" : "obj-66",
					"fontsize" : 11.595187,
					"numinlets" : 1,
					"triscale" : 0.9,
					"numoutlets" : 2,
					"patching_rect" : [ 301.0, 552.0, 45.0, 20.0 ],
					"outlettype" : [ "int", "bang" ],
					"fontname" : "Arial"
				}

			}
, 			{
				"box" : 				{
					"maxclass" : "number",
					"id" : "obj-67",
					"fontsize" : 11.595187,
					"numinlets" : 1,
					"triscale" : 0.9,
					"numoutlets" : 2,
					"patching_rect" : [ 255.0, 552.0, 45.0, 20.0 ],
					"outlettype" : [ "int", "bang" ],
					"fontname" : "Arial"
				}

			}
, 			{
				"box" : 				{
					"maxclass" : "newobj",
					"text" : "pak origin 0 0",
					"id" : "obj-68",
					"fontsize" : 11.595187,
					"numinlets" : 3,
					"numoutlets" : 1,
					"patching_rect" : [ 209.0, 578.0, 111.0, 20.0 ],
					"outlettype" : [ "" ],
					"fontname" : "Arial"
				}

			}
, 			{
				"box" : 				{
					"maxclass" : "newobj",
					"text" : "jit.convolve",
					"id" : "obj-70",
					"fontsize" : 11.595187,
					"numinlets" : 2,
					"numoutlets" : 2,
					"patching_rect" : [ 115.0, 639.0, 68.0, 20.0 ],
					"outlettype" : [ "jit_matrix", "" ],
					"fontname" : "Arial"
				}

			}
, 			{
				"box" : 				{
					"maxclass" : "comment",
					"text" : "0=clip(default);\r1=wrap;\r2=ignore",
					"linecount" : 3,
					"id" : "obj-71",
					"fontsize" : 11.595187,
					"numinlets" : 1,
					"numoutlets" : 0,
					"patching_rect" : [ 360.0, 504.0, 100.0, 46.0 ],
					"fontname" : "Arial"
				}

			}
, 			{
				"box" : 				{
					"maxclass" : "comment",
					"text" : "set all",
					"id" : "obj-73",
					"fontsize" : 11.595187,
					"numinlets" : 1,
					"numoutlets" : 0,
					"patching_rect" : [ 665.0, 504.0, 41.0, 20.0 ],
					"fontname" : "Arial"
				}

			}
, 			{
				"box" : 				{
					"maxclass" : "flonum",
					"id" : "obj-34",
					"fontsize" : 12.0,
					"numinlets" : 1,
					"numoutlets" : 2,
					"patching_rect" : [ 140.0, 152.0, 50.0, 20.0 ],
					"outlettype" : [ "float", "bang" ],
					"fontname" : "Arial"
				}

			}
, 			{
				"box" : 				{
					"maxclass" : "flonum",
					"id" : "obj-23",
					"fontsize" : 12.0,
					"numinlets" : 1,
					"numoutlets" : 2,
					"patching_rect" : [ 220.0, 152.0, 50.0, 20.0 ],
					"outlettype" : [ "float", "bang" ],
					"fontname" : "Arial"
				}

			}
, 			{
				"box" : 				{
					"maxclass" : "jit.pwindow",
					"id" : "obj-16",
					"onscreen" : 0,
					"numinlets" : 1,
					"numoutlets" : 2,
					"patching_rect" : [ 189.0, 93.0, 60.0, 40.0 ],
					"depthbuffer" : 0,
					"outlettype" : [ "", "" ]
				}

			}
, 			{
				"box" : 				{
					"maxclass" : "message",
					"text" : "close",
					"id" : "obj-83",
					"fontsize" : 12.0,
					"numinlets" : 2,
					"numoutlets" : 1,
					"patching_rect" : [ 257.0, 31.0, 39.0, 18.0 ],
					"outlettype" : [ "" ],
					"fontname" : "Arial"
				}

			}
, 			{
				"box" : 				{
					"maxclass" : "newobj",
					"text" : "qlim 100",
					"id" : "obj-82",
					"fontsize" : 9.0,
					"numinlets" : 2,
					"numoutlets" : 1,
					"patching_rect" : [ 92.0, 182.0, 45.0, 17.0 ],
					"outlettype" : [ "" ],
					"fontname" : "Arial"
				}

			}
, 			{
				"box" : 				{
					"maxclass" : "newobj",
					"text" : "jit.brcosa",
					"id" : "obj-78",
					"fontsize" : 9.0,
					"numinlets" : 1,
					"numoutlets" : 2,
					"patching_rect" : [ 129.0, 210.0, 47.0, 17.0 ],
					"outlettype" : [ "jit_matrix", "" ],
					"fontname" : "Arial"
				}

			}
, 			{
				"box" : 				{
					"maxclass" : "jit.pwindow",
					"id" : "obj-69",
					"onscreen" : 0,
					"numinlets" : 1,
					"numoutlets" : 2,
					"patching_rect" : [ 234.0, 653.0, 242.0, 24.0 ],
					"depthbuffer" : 0,
					"outlettype" : [ "", "" ]
				}

			}
, 			{
				"box" : 				{
					"maxclass" : "message",
					"text" : "min, !%, <p, <= p",
					"id" : "obj-51",
					"fontsize" : 12.0,
					"numinlets" : 2,
					"numoutlets" : 1,
					"patching_rect" : [ 917.0, 159.0, 102.0, 18.0 ],
					"outlettype" : [ "" ],
					"fontname" : "Arial"
				}

			}
, 			{
				"box" : 				{
					"maxclass" : "newobj",
					"text" : "jit.matrix 4 char 256 1",
					"id" : "obj-47",
					"fontsize" : 9.0,
					"numinlets" : 1,
					"numoutlets" : 2,
					"patching_rect" : [ 125.0, 484.0, 97.0, 17.0 ],
					"outlettype" : [ "jit_matrix", "" ],
					"fontname" : "Arial"
				}

			}
, 			{
				"box" : 				{
					"maxclass" : "newobj",
					"text" : "jit.charmap",
					"id" : "obj-46",
					"fontsize" : 9.0,
					"numinlets" : 2,
					"numoutlets" : 2,
					"patching_rect" : [ 77.0, 565.0, 55.0, 17.0 ],
					"outlettype" : [ "jit_matrix", "" ],
					"fontname" : "Arial"
				}

			}
, 			{
				"box" : 				{
					"maxclass" : "newobj",
					"text" : "jit.pack 4",
					"id" : "obj-41",
					"fontsize" : 9.0,
					"numinlets" : 4,
					"numoutlets" : 2,
					"patching_rect" : [ 125.0, 456.0, 59.5, 17.0 ],
					"outlettype" : [ "jit_matrix", "" ],
					"fontname" : "Arial"
				}

			}
, 			{
				"box" : 				{
					"maxclass" : "message",
					"text" : "open",
					"id" : "obj-24",
					"fontsize" : 12.0,
					"numinlets" : 2,
					"numoutlets" : 1,
					"patching_rect" : [ 206.0, 31.0, 37.0, 18.0 ],
					"outlettype" : [ "" ],
					"fontname" : "Arial"
				}

			}
, 			{
				"box" : 				{
					"maxclass" : "message",
					"text" : "_POWER_ $1",
					"id" : "obj-20",
					"fontsize" : 12.0,
					"numinlets" : 2,
					"numoutlets" : 1,
					"patching_rect" : [ 367.0, 71.0, 86.0, 18.0 ],
					"outlettype" : [ "" ],
					"fontname" : "Arial"
				}

			}
, 			{
				"box" : 				{
					"maxclass" : "toggle",
					"id" : "obj-18",
					"numinlets" : 1,
					"numoutlets" : 1,
					"patching_rect" : [ 153.0, 7.0, 20.0, 20.0 ],
					"outlettype" : [ "int" ]
				}

			}
, 			{
				"box" : 				{
					"maxclass" : "newobj",
					"text" : "metro 40",
					"id" : "obj-10",
					"fontsize" : 9.0,
					"numinlets" : 2,
					"numoutlets" : 1,
					"patching_rect" : [ 147.0, 37.0, 46.0, 17.0 ],
					"outlettype" : [ "bang" ],
					"fontname" : "Arial"
				}

			}
, 			{
				"box" : 				{
					"maxclass" : "newobj",
					"text" : "jit.qt.grab 320 240",
					"id" : "obj-8",
					"fontsize" : 9.0,
					"numinlets" : 1,
					"numoutlets" : 2,
					"patching_rect" : [ 146.0, 62.0, 83.0, 17.0 ],
					"outlettype" : [ "jit_matrix", "" ],
					"fontname" : "Arial"
				}

			}
, 			{
				"box" : 				{
					"maxclass" : "newobj",
					"text" : "jit.unpack 4",
					"id" : "obj-2",
					"fontsize" : 9.0,
					"numinlets" : 1,
					"numoutlets" : 5,
					"patching_rect" : [ 127.0, 318.0, 73.0, 17.0 ],
					"outlettype" : [ "jit_matrix", "jit_matrix", "jit_matrix", "jit_matrix", "" ],
					"fontname" : "Arial"
				}

			}
, 			{
				"box" : 				{
					"maxclass" : "newobj",
					"text" : "jit.histogram 4 long 256 @autoclear 1 @normalize 0",
					"id" : "obj-1",
					"fontsize" : 9.0,
					"numinlets" : 1,
					"numoutlets" : 2,
					"patching_rect" : [ 128.0, 288.0, 218.0, 17.0 ],
					"outlettype" : [ "jit_matrix", "" ],
					"fontname" : "Arial"
				}

			}
, 			{
				"box" : 				{
					"maxclass" : "newobj",
					"text" : "jit.matrix 4 char 320 240 @interp 1",
					"id" : "obj-32",
					"fontsize" : 9.0,
					"numinlets" : 1,
					"numoutlets" : 2,
					"patching_rect" : [ 644.0, 149.0, 148.0, 17.0 ],
					"outlettype" : [ "jit_matrix", "" ],
					"fontname" : "Arial"
				}

			}
, 			{
				"box" : 				{
					"maxclass" : "newobj",
					"text" : "resolution.maxpat",
					"id" : "obj-33",
					"fontsize" : 9.0,
					"numinlets" : 0,
					"numoutlets" : 2,
					"patching_rect" : [ 742.0, 86.0, 82.0, 17.0 ],
					"outlettype" : [ "", "" ],
					"fontname" : "Arial"
				}

			}
, 			{
				"box" : 				{
					"maxclass" : "newobj",
					"text" : "select 1",
					"id" : "obj-31",
					"fontsize" : 9.0,
					"numinlets" : 2,
					"numoutlets" : 2,
					"patching_rect" : [ 503.0, 183.0, 42.0, 17.0 ],
					"outlettype" : [ "bang", "" ],
					"fontname" : "Arial"
				}

			}
, 			{
				"box" : 				{
					"maxclass" : "newobj",
					"text" : "t 1",
					"id" : "obj-29",
					"fontsize" : 9.0,
					"numinlets" : 1,
					"numoutlets" : 1,
					"patching_rect" : [ 560.0, 206.0, 21.0, 17.0 ],
					"outlettype" : [ "int" ],
					"fontname" : "Arial"
				}

			}
, 			{
				"box" : 				{
					"maxclass" : "newobj",
					"text" : "p resol_auto",
					"id" : "obj-30",
					"fontsize" : 12.0,
					"numinlets" : 2,
					"numoutlets" : 1,
					"patching_rect" : [ 560.0, 225.5, 77.0, 20.0 ],
					"outlettype" : [ "" ],
					"fontname" : "Arial",
					"patcher" : 					{
						"fileversion" : 1,
						"rect" : [ 67.0, 69.0, 198.0, 348.0 ],
						"bglocked" : 0,
						"defrect" : [ 67.0, 69.0, 198.0, 348.0 ],
						"openrect" : [ 0.0, 0.0, 0.0, 0.0 ],
						"openinpresentation" : 0,
						"default_fontsize" : 12.0,
						"default_fontface" : 0,
						"default_fontname" : "Arial",
						"gridonopen" : 0,
						"gridsize" : [ 15.0, 15.0 ],
						"gridsnaponopen" : 0,
						"toolbarvisible" : 1,
						"boxanimatetime" : 200,
						"imprint" : 0,
						"metadata" : [  ],
						"boxes" : [ 							{
								"box" : 								{
									"maxclass" : "newobj",
									"text" : "prepend dim",
									"id" : "obj-9",
									"fontsize" : 9.0,
									"numinlets" : 1,
									"numoutlets" : 1,
									"patching_rect" : [ 85.0, 247.5, 61.0, 17.0 ],
									"outlettype" : [ "" ],
									"fontname" : "Arial"
								}

							}
, 							{
								"box" : 								{
									"maxclass" : "newobj",
									"text" : "t 0",
									"id" : "obj-6",
									"fontsize" : 9.0,
									"numinlets" : 1,
									"numoutlets" : 1,
									"patching_rect" : [ 50.0, 106.5, 21.0, 17.0 ],
									"outlettype" : [ "int" ],
									"fontname" : "Arial"
								}

							}
, 							{
								"box" : 								{
									"maxclass" : "newobj",
									"text" : "gate",
									"id" : "obj-3",
									"fontsize" : 9.0,
									"numinlets" : 2,
									"numoutlets" : 1,
									"patching_rect" : [ 86.0, 105.5, 32.5, 17.0 ],
									"outlettype" : [ "" ],
									"fontname" : "Arial"
								}

							}
, 							{
								"box" : 								{
									"maxclass" : "newobj",
									"text" : "route dim",
									"id" : "obj-2",
									"fontsize" : 9.0,
									"numinlets" : 1,
									"numoutlets" : 2,
									"patching_rect" : [ 86.0, 146.5, 48.0, 17.0 ],
									"outlettype" : [ "", "" ],
									"fontname" : "Arial"
								}

							}
, 							{
								"box" : 								{
									"maxclass" : "newobj",
									"text" : "jit.matrixinfo",
									"id" : "obj-1",
									"fontsize" : 9.0,
									"numinlets" : 1,
									"numoutlets" : 1,
									"patching_rect" : [ 86.0, 126.5, 59.0, 17.0 ],
									"outlettype" : [ "" ],
									"fontname" : "Arial"
								}

							}
, 							{
								"box" : 								{
									"maxclass" : "inlet",
									"id" : "obj-10",
									"numinlets" : 0,
									"numoutlets" : 1,
									"patching_rect" : [ 77.0, 40.0, 25.0, 25.0 ],
									"outlettype" : [ "int" ],
									"comment" : ""
								}

							}
, 							{
								"box" : 								{
									"maxclass" : "inlet",
									"id" : "obj-11",
									"numinlets" : 0,
									"numoutlets" : 1,
									"patching_rect" : [ 104.0, 40.0, 25.0, 25.0 ],
									"outlettype" : [ "" ],
									"comment" : ""
								}

							}
, 							{
								"box" : 								{
									"maxclass" : "outlet",
									"id" : "obj-12",
									"numinlets" : 1,
									"numoutlets" : 0,
									"patching_rect" : [ 83.0, 295.5, 25.0, 25.0 ],
									"comment" : ""
								}

							}
 ],
						"lines" : [ 							{
								"patchline" : 								{
									"source" : [ "obj-11", 0 ],
									"destination" : [ "obj-3", 1 ],
									"hidden" : 0,
									"midpoints" : [  ]
								}

							}
, 							{
								"patchline" : 								{
									"source" : [ "obj-9", 0 ],
									"destination" : [ "obj-12", 0 ],
									"hidden" : 0,
									"midpoints" : [  ]
								}

							}
, 							{
								"patchline" : 								{
									"source" : [ "obj-10", 0 ],
									"destination" : [ "obj-3", 0 ],
									"hidden" : 0,
									"midpoints" : [  ]
								}

							}
, 							{
								"patchline" : 								{
									"source" : [ "obj-1", 0 ],
									"destination" : [ "obj-2", 0 ],
									"hidden" : 0,
									"midpoints" : [  ]
								}

							}
, 							{
								"patchline" : 								{
									"source" : [ "obj-3", 0 ],
									"destination" : [ "obj-1", 0 ],
									"hidden" : 0,
									"midpoints" : [  ]
								}

							}
, 							{
								"patchline" : 								{
									"source" : [ "obj-3", 0 ],
									"destination" : [ "obj-6", 0 ],
									"hidden" : 0,
									"midpoints" : [ 95.5, 122.5, 72.0, 122.5, 72.0, 101.5, 59.5, 101.5 ]
								}

							}
, 							{
								"patchline" : 								{
									"source" : [ "obj-6", 0 ],
									"destination" : [ "obj-3", 0 ],
									"hidden" : 0,
									"midpoints" : [ 59.5, 125.5, 81.0, 125.5, 81.0, 101.5, 95.5, 101.5 ]
								}

							}
, 							{
								"patchline" : 								{
									"source" : [ "obj-2", 0 ],
									"destination" : [ "obj-9", 0 ],
									"hidden" : 0,
									"midpoints" : [  ]
								}

							}
 ]
					}
,
					"saved_object_attributes" : 					{
						"default_fontsize" : 12.0,
						"globalpatchername" : "",
						"fontface" : 0,
						"fontsize" : 12.0,
						"default_fontface" : 0,
						"default_fontname" : "Arial",
						"fontname" : "Arial"
					}

				}

			}
, 			{
				"box" : 				{
					"maxclass" : "newobj",
					"text" : "+ 1",
					"id" : "obj-4",
					"fontsize" : 9.0,
					"numinlets" : 2,
					"numoutlets" : 1,
					"patching_rect" : [ 49.0, 113.0, 27.0, 17.0 ],
					"outlettype" : [ "int" ],
					"fontname" : "Arial"
				}

			}
, 			{
				"box" : 				{
					"maxclass" : "newobj",
					"text" : "gate 2 1",
					"id" : "obj-5",
					"fontsize" : 9.0,
					"numinlets" : 2,
					"numoutlets" : 2,
					"patching_rect" : [ 49.0, 138.0, 47.0, 17.0 ],
					"outlettype" : [ "", "" ],
					"fontname" : "Arial"
				}

			}
, 			{
				"box" : 				{
					"maxclass" : "inlet",
					"id" : "obj-6",
					"numinlets" : 0,
					"numoutlets" : 1,
					"patching_rect" : [ 77.0, 112.0, 15.0, 15.0 ],
					"outlettype" : [ "" ],
					"comment" : "video"
				}

			}
, 			{
				"box" : 				{
					"maxclass" : "newobj",
					"text" : "route var1 var2 var3 var4 _CONTROL_ _POWER_ _SWITCH_",
					"id" : "obj-7",
					"fontsize" : 9.0,
					"numinlets" : 1,
					"numoutlets" : 8,
					"patching_rect" : [ 310.0, 133.0, 289.0, 17.0 ],
					"outlettype" : [ "", "", "", "", "", "", "", "" ],
					"fontname" : "Arial"
				}

			}
, 			{
				"box" : 				{
					"maxclass" : "outlet",
					"id" : "obj-9",
					"numinlets" : 1,
					"numoutlets" : 0,
					"patching_rect" : [ 174.0, 815.0, 15.0, 15.0 ],
					"comment" : ""
				}

			}
, 			{
				"box" : 				{
					"maxclass" : "inlet",
					"id" : "obj-15",
					"numinlets" : 0,
					"numoutlets" : 1,
					"patching_rect" : [ 310.0, 95.0, 15.0, 15.0 ],
					"outlettype" : [ "" ],
					"comment" : "var 1 (def horyz ou vert de 1  32), var 2 (mode de 0  6)"
				}

			}
, 			{
				"box" : 				{
					"maxclass" : "message",
					"text" : "saturation $1",
					"id" : "obj-17",
					"fontsize" : 12.0,
					"numinlets" : 2,
					"numoutlets" : 1,
					"patching_rect" : [ 140.0, 180.0, 78.0, 18.0 ],
					"outlettype" : [ "" ],
					"fontname" : "Arial"
				}

			}
, 			{
				"box" : 				{
					"maxclass" : "message",
					"text" : "contrast $1",
					"id" : "obj-19",
					"fontsize" : 12.0,
					"numinlets" : 2,
					"numoutlets" : 1,
					"patching_rect" : [ 221.0, 180.0, 68.0, 18.0 ],
					"outlettype" : [ "" ],
					"fontname" : "Arial"
				}

			}
, 			{
				"box" : 				{
					"maxclass" : "message",
					"text" : "write matri_convol",
					"id" : "obj-13",
					"fontsize" : 12.0,
					"numinlets" : 2,
					"numoutlets" : 1,
					"patching_rect" : [ 946.0, 479.0, 107.0, 18.0 ],
					"outlettype" : [ "" ],
					"fontname" : "Arial"
				}

			}
 ],
		"lines" : [ 			{
				"patchline" : 				{
					"source" : [ "obj-41", 0 ],
					"destination" : [ "obj-106", 0 ],
					"hidden" : 0,
					"midpoints" : [  ]
				}

			}
, 			{
				"patchline" : 				{
					"source" : [ "obj-47", 0 ],
					"destination" : [ "obj-69", 0 ],
					"hidden" : 0,
					"midpoints" : [  ]
				}

			}
, 			{
				"patchline" : 				{
					"source" : [ "obj-47", 0 ],
					"destination" : [ "obj-46", 1 ],
					"hidden" : 0,
					"midpoints" : [  ]
				}

			}
, 			{
				"patchline" : 				{
					"source" : [ "obj-41", 0 ],
					"destination" : [ "obj-47", 0 ],
					"hidden" : 0,
					"midpoints" : [  ]
				}

			}
, 			{
				"patchline" : 				{
					"source" : [ "obj-105", 0 ],
					"destination" : [ "obj-41", 3 ],
					"hidden" : 0,
					"midpoints" : [  ]
				}

			}
, 			{
				"patchline" : 				{
					"source" : [ "obj-2", 3 ],
					"destination" : [ "obj-105", 0 ],
					"hidden" : 0,
					"midpoints" : [  ]
				}

			}
, 			{
				"patchline" : 				{
					"source" : [ "obj-104", 0 ],
					"destination" : [ "obj-41", 2 ],
					"hidden" : 0,
					"midpoints" : [  ]
				}

			}
, 			{
				"patchline" : 				{
					"source" : [ "obj-2", 2 ],
					"destination" : [ "obj-104", 0 ],
					"hidden" : 0,
					"midpoints" : [  ]
				}

			}
, 			{
				"patchline" : 				{
					"source" : [ "obj-2", 1 ],
					"destination" : [ "obj-103", 0 ],
					"hidden" : 0,
					"midpoints" : [  ]
				}

			}
, 			{
				"patchline" : 				{
					"source" : [ "obj-103", 0 ],
					"destination" : [ "obj-41", 1 ],
					"hidden" : 0,
					"midpoints" : [  ]
				}

			}
, 			{
				"patchline" : 				{
					"source" : [ "obj-72", 0 ],
					"destination" : [ "obj-20", 0 ],
					"hidden" : 0,
					"midpoints" : [  ]
				}

			}
, 			{
				"patchline" : 				{
					"source" : [ "obj-25", 0 ],
					"destination" : [ "obj-40", 0 ],
					"hidden" : 0,
					"midpoints" : [  ]
				}

			}
, 			{
				"patchline" : 				{
					"source" : [ "obj-44", 0 ],
					"destination" : [ "obj-40", 0 ],
					"hidden" : 0,
					"midpoints" : [  ]
				}

			}
, 			{
				"patchline" : 				{
					"source" : [ "obj-133", 0 ],
					"destination" : [ "obj-40", 0 ],
					"hidden" : 0,
					"midpoints" : [  ]
				}

			}
, 			{
				"patchline" : 				{
					"source" : [ "obj-70", 0 ],
					"destination" : [ "obj-124", 0 ],
					"hidden" : 0,
					"midpoints" : [  ]
				}

			}
, 			{
				"patchline" : 				{
					"source" : [ "obj-127", 0 ],
					"destination" : [ "obj-14", 0 ],
					"hidden" : 0,
					"midpoints" : [  ]
				}

			}
, 			{
				"patchline" : 				{
					"source" : [ "obj-125", 0 ],
					"destination" : [ "obj-123", 0 ],
					"hidden" : 0,
					"midpoints" : [  ]
				}

			}
, 			{
				"patchline" : 				{
					"source" : [ "obj-14", 1 ],
					"destination" : [ "obj-125", 0 ],
					"hidden" : 0,
					"midpoints" : [  ]
				}

			}
, 			{
				"patchline" : 				{
					"source" : [ "obj-124", 1 ],
					"destination" : [ "obj-123", 0 ],
					"hidden" : 0,
					"midpoints" : [  ]
				}

			}
, 			{
				"patchline" : 				{
					"source" : [ "obj-124", 0 ],
					"destination" : [ "obj-123", 1 ],
					"hidden" : 0,
					"midpoints" : [  ]
				}

			}
, 			{
				"patchline" : 				{
					"source" : [ "obj-123", 0 ],
					"destination" : [ "obj-12", 0 ],
					"hidden" : 0,
					"midpoints" : [  ]
				}

			}
, 			{
				"patchline" : 				{
					"source" : [ "obj-78", 0 ],
					"destination" : [ "obj-90", 0 ],
					"hidden" : 0,
					"midpoints" : [  ]
				}

			}
, 			{
				"patchline" : 				{
					"source" : [ "obj-88", 0 ],
					"destination" : [ "obj-90", 0 ],
					"hidden" : 0,
					"midpoints" : [ 224.980591, 255.0, 137.5, 255.0 ]
				}

			}
, 			{
				"patchline" : 				{
					"source" : [ "obj-81", 0 ],
					"destination" : [ "obj-90", 0 ],
					"hidden" : 0,
					"midpoints" : [ 288.782959, 255.0, 137.5, 255.0 ]
				}

			}
, 			{
				"patchline" : 				{
					"source" : [ "obj-75", 0 ],
					"destination" : [ "obj-90", 0 ],
					"hidden" : 0,
					"midpoints" : [ 354.585266, 255.0, 137.5, 255.0 ]
				}

			}
, 			{
				"patchline" : 				{
					"source" : [ "obj-87", 0 ],
					"destination" : [ "obj-88", 0 ],
					"hidden" : 0,
					"midpoints" : [  ]
				}

			}
, 			{
				"patchline" : 				{
					"source" : [ "obj-80", 0 ],
					"destination" : [ "obj-81", 0 ],
					"hidden" : 0,
					"midpoints" : [  ]
				}

			}
, 			{
				"patchline" : 				{
					"source" : [ "obj-74", 0 ],
					"destination" : [ "obj-75", 0 ],
					"hidden" : 0,
					"midpoints" : [  ]
				}

			}
, 			{
				"patchline" : 				{
					"source" : [ "obj-46", 0 ],
					"destination" : [ "obj-70", 0 ],
					"hidden" : 0,
					"midpoints" : [  ]
				}

			}
, 			{
				"patchline" : 				{
					"source" : [ "obj-13", 0 ],
					"destination" : [ "obj-40", 0 ],
					"hidden" : 0,
					"midpoints" : [  ]
				}

			}
, 			{
				"patchline" : 				{
					"source" : [ "obj-5", 1 ],
					"destination" : [ "obj-82", 0 ],
					"hidden" : 0,
					"midpoints" : [  ]
				}

			}
, 			{
				"patchline" : 				{
					"source" : [ "obj-5", 1 ],
					"destination" : [ "obj-46", 0 ],
					"hidden" : 0,
					"midpoints" : [  ]
				}

			}
, 			{
				"patchline" : 				{
					"source" : [ "obj-2", 0 ],
					"destination" : [ "obj-41", 0 ],
					"hidden" : 0,
					"midpoints" : [  ]
				}

			}
, 			{
				"patchline" : 				{
					"source" : [ "obj-24", 0 ],
					"destination" : [ "obj-8", 0 ],
					"hidden" : 0,
					"midpoints" : [  ]
				}

			}
, 			{
				"patchline" : 				{
					"source" : [ "obj-20", 0 ],
					"destination" : [ "obj-7", 0 ],
					"hidden" : 0,
					"midpoints" : [  ]
				}

			}
, 			{
				"patchline" : 				{
					"source" : [ "obj-8", 0 ],
					"destination" : [ "obj-5", 1 ],
					"hidden" : 0,
					"midpoints" : [  ]
				}

			}
, 			{
				"patchline" : 				{
					"source" : [ "obj-10", 0 ],
					"destination" : [ "obj-8", 0 ],
					"hidden" : 0,
					"midpoints" : [  ]
				}

			}
, 			{
				"patchline" : 				{
					"source" : [ "obj-18", 0 ],
					"destination" : [ "obj-10", 0 ],
					"hidden" : 0,
					"midpoints" : [  ]
				}

			}
, 			{
				"patchline" : 				{
					"source" : [ "obj-15", 0 ],
					"destination" : [ "obj-7", 0 ],
					"hidden" : 0,
					"midpoints" : [  ]
				}

			}
, 			{
				"patchline" : 				{
					"source" : [ "obj-6", 0 ],
					"destination" : [ "obj-5", 1 ],
					"hidden" : 0,
					"midpoints" : [  ]
				}

			}
, 			{
				"patchline" : 				{
					"source" : [ "obj-5", 0 ],
					"destination" : [ "obj-9", 0 ],
					"hidden" : 0,
					"midpoints" : [ 58.5, 800.0, 183.0, 800.0 ]
				}

			}
, 			{
				"patchline" : 				{
					"source" : [ "obj-4", 0 ],
					"destination" : [ "obj-5", 0 ],
					"hidden" : 0,
					"midpoints" : [  ]
				}

			}
, 			{
				"patchline" : 				{
					"source" : [ "obj-7", 5 ],
					"destination" : [ "obj-4", 0 ],
					"hidden" : 0,
					"midpoints" : [ 512.357117, 177.0, 128.0, 177.0, 128.0, 95.0, 58.5, 95.0 ]
				}

			}
, 			{
				"patchline" : 				{
					"source" : [ "obj-29", 0 ],
					"destination" : [ "obj-30", 0 ],
					"hidden" : 0,
					"midpoints" : [  ]
				}

			}
, 			{
				"patchline" : 				{
					"source" : [ "obj-6", 0 ],
					"destination" : [ "obj-30", 1 ],
					"hidden" : 0,
					"midpoints" : [ 86.0, 129.0, 176.0, 129.0, 176.0, 180.0, 627.5, 180.0 ]
				}

			}
, 			{
				"patchline" : 				{
					"source" : [ "obj-7", 5 ],
					"destination" : [ "obj-31", 0 ],
					"hidden" : 0,
					"midpoints" : [  ]
				}

			}
, 			{
				"patchline" : 				{
					"source" : [ "obj-31", 0 ],
					"destination" : [ "obj-29", 0 ],
					"hidden" : 0,
					"midpoints" : [ 512.5, 201.0, 569.5, 201.0 ]
				}

			}
, 			{
				"patchline" : 				{
					"source" : [ "obj-33", 1 ],
					"destination" : [ "obj-32", 0 ],
					"hidden" : 0,
					"midpoints" : [ 814.5, 125.0, 719.0, 125.0, 719.0, 134.0, 653.5, 134.0 ]
				}

			}
, 			{
				"patchline" : 				{
					"source" : [ "obj-8", 0 ],
					"destination" : [ "obj-16", 0 ],
					"hidden" : 0,
					"midpoints" : [  ]
				}

			}
, 			{
				"patchline" : 				{
					"source" : [ "obj-82", 0 ],
					"destination" : [ "obj-78", 0 ],
					"hidden" : 0,
					"midpoints" : [  ]
				}

			}
, 			{
				"patchline" : 				{
					"source" : [ "obj-17", 0 ],
					"destination" : [ "obj-78", 0 ],
					"hidden" : 0,
					"midpoints" : [  ]
				}

			}
, 			{
				"patchline" : 				{
					"source" : [ "obj-19", 0 ],
					"destination" : [ "obj-78", 0 ],
					"hidden" : 0,
					"midpoints" : [  ]
				}

			}
, 			{
				"patchline" : 				{
					"source" : [ "obj-34", 0 ],
					"destination" : [ "obj-17", 0 ],
					"hidden" : 0,
					"midpoints" : [  ]
				}

			}
, 			{
				"patchline" : 				{
					"source" : [ "obj-23", 0 ],
					"destination" : [ "obj-19", 0 ],
					"hidden" : 0,
					"midpoints" : [  ]
				}

			}
, 			{
				"patchline" : 				{
					"source" : [ "obj-64", 0 ],
					"destination" : [ "obj-43", 0 ],
					"hidden" : 0,
					"midpoints" : [  ]
				}

			}
, 			{
				"patchline" : 				{
					"source" : [ "obj-58", 0 ],
					"destination" : [ "obj-53", 0 ],
					"hidden" : 0,
					"midpoints" : [ 495.5, 618.0, 655.0, 618.0, 655.0, 504.0, 523.5, 504.0 ]
				}

			}
, 			{
				"patchline" : 				{
					"source" : [ "obj-57", 0 ],
					"destination" : [ "obj-58", 0 ],
					"hidden" : 0,
					"midpoints" : [ 472.5, 588.0, 495.5, 588.0 ]
				}

			}
, 			{
				"patchline" : 				{
					"source" : [ "obj-54", 0 ],
					"destination" : [ "obj-58", 0 ],
					"hidden" : 0,
					"midpoints" : [  ]
				}

			}
, 			{
				"patchline" : 				{
					"source" : [ "obj-43", 0 ],
					"destination" : [ "obj-58", 0 ],
					"hidden" : 0,
					"midpoints" : [ 675.5, 577.0, 495.5, 577.0 ]
				}

			}
, 			{
				"patchline" : 				{
					"source" : [ "obj-49", 0 ],
					"destination" : [ "obj-54", 0 ],
					"hidden" : 0,
					"midpoints" : [  ]
				}

			}
, 			{
				"patchline" : 				{
					"source" : [ "obj-53", 0 ],
					"destination" : [ "obj-57", 0 ],
					"hidden" : 0,
					"midpoints" : [ 523.5, 566.0, 472.5, 566.0 ]
				}

			}
, 			{
				"patchline" : 				{
					"source" : [ "obj-60", 0 ],
					"destination" : [ "obj-61", 0 ],
					"hidden" : 0,
					"midpoints" : [  ]
				}

			}
, 			{
				"patchline" : 				{
					"source" : [ "obj-58", 0 ],
					"destination" : [ "obj-70", 1 ],
					"hidden" : 0,
					"midpoints" : [ 495.5, 623.0, 173.5, 623.0 ]
				}

			}
, 			{
				"patchline" : 				{
					"source" : [ "obj-61", 0 ],
					"destination" : [ "obj-70", 0 ],
					"hidden" : 0,
					"midpoints" : [ 369.5, 606.0, 124.5, 606.0 ]
				}

			}
, 			{
				"patchline" : 				{
					"source" : [ "obj-68", 0 ],
					"destination" : [ "obj-70", 0 ],
					"hidden" : 0,
					"midpoints" : [ 218.5, 606.0, 124.5, 606.0 ]
				}

			}
, 			{
				"patchline" : 				{
					"source" : [ "obj-67", 0 ],
					"destination" : [ "obj-68", 1 ],
					"hidden" : 0,
					"midpoints" : [  ]
				}

			}
, 			{
				"patchline" : 				{
					"source" : [ "obj-66", 0 ],
					"destination" : [ "obj-68", 2 ],
					"hidden" : 0,
					"midpoints" : [  ]
				}

			}
, 			{
				"patchline" : 				{
					"source" : [ "obj-45", 0 ],
					"destination" : [ "obj-70", 1 ],
					"hidden" : 0,
					"midpoints" : [  ]
				}

			}
, 			{
				"patchline" : 				{
					"source" : [ "obj-45", 0 ],
					"destination" : [ "obj-40", 0 ],
					"hidden" : 0,
					"midpoints" : [  ]
				}

			}
, 			{
				"patchline" : 				{
					"source" : [ "obj-36", 0 ],
					"destination" : [ "obj-45", 0 ],
					"hidden" : 0,
					"midpoints" : [  ]
				}

			}
, 			{
				"patchline" : 				{
					"source" : [ "obj-52", 0 ],
					"destination" : [ "obj-45", 0 ],
					"hidden" : 0,
					"midpoints" : [  ]
				}

			}
, 			{
				"patchline" : 				{
					"source" : [ "obj-35", 0 ],
					"destination" : [ "obj-45", 0 ],
					"hidden" : 0,
					"midpoints" : [  ]
				}

			}
, 			{
				"patchline" : 				{
					"source" : [ "obj-40", 2 ],
					"destination" : [ "obj-56", 0 ],
					"hidden" : 0,
					"midpoints" : [  ]
				}

			}
, 			{
				"patchline" : 				{
					"source" : [ "obj-55", 0 ],
					"destination" : [ "obj-45", 0 ],
					"hidden" : 0,
					"midpoints" : [  ]
				}

			}
, 			{
				"patchline" : 				{
					"source" : [ "obj-59", 0 ],
					"destination" : [ "obj-55", 6 ],
					"hidden" : 0,
					"midpoints" : [  ]
				}

			}
, 			{
				"patchline" : 				{
					"source" : [ "obj-56", 2 ],
					"destination" : [ "obj-55", 1 ],
					"hidden" : 0,
					"midpoints" : [  ]
				}

			}
, 			{
				"patchline" : 				{
					"source" : [ "obj-56", 3 ],
					"destination" : [ "obj-55", 2 ],
					"hidden" : 0,
					"midpoints" : [  ]
				}

			}
, 			{
				"patchline" : 				{
					"source" : [ "obj-62", 0 ],
					"destination" : [ "obj-55", 0 ],
					"hidden" : 0,
					"midpoints" : [  ]
				}

			}
, 			{
				"patchline" : 				{
					"source" : [ "obj-56", 1 ],
					"destination" : [ "obj-62", 0 ],
					"hidden" : 0,
					"midpoints" : [  ]
				}

			}
, 			{
				"patchline" : 				{
					"source" : [ "obj-63", 0 ],
					"destination" : [ "obj-55", 6 ],
					"hidden" : 0,
					"midpoints" : [  ]
				}

			}
, 			{
				"patchline" : 				{
					"source" : [ "obj-94", 0 ],
					"destination" : [ "obj-55", 6 ],
					"hidden" : 0,
					"midpoints" : [  ]
				}

			}
, 			{
				"patchline" : 				{
					"source" : [ "obj-83", 0 ],
					"destination" : [ "obj-8", 0 ],
					"hidden" : 0,
					"midpoints" : [  ]
				}

			}
, 			{
				"patchline" : 				{
					"source" : [ "obj-90", 0 ],
					"destination" : [ "obj-1", 0 ],
					"hidden" : 0,
					"midpoints" : [  ]
				}

			}
, 			{
				"patchline" : 				{
					"source" : [ "obj-1", 0 ],
					"destination" : [ "obj-2", 0 ],
					"hidden" : 0,
					"midpoints" : [  ]
				}

			}
 ]
	}

}
