{
	"patcher" : 	{
		"fileversion" : 1,
		"rect" : [ 63.0, 69.0, 911.0, 728.0 ],
		"bglocked" : 0,
		"defrect" : [ 63.0, 69.0, 911.0, 728.0 ],
		"openrect" : [ 0.0, 0.0, 0.0, 0.0 ],
		"openinpresentation" : 0,
		"default_fontsize" : 12.0,
		"default_fontface" : 0,
		"default_fontname" : "Arial",
		"gridonopen" : 0,
		"gridsize" : [ 15.0, 15.0 ],
		"gridsnaponopen" : 0,
		"toolbarvisible" : 1,
		"boxanimatetime" : 200,
		"imprint" : 0,
		"boxes" : [ 			{
				"box" : 				{
					"maxclass" : "newobj",
					"text" : "jit.matrix",
					"numinlets" : 1,
					"hidden" : 1,
					"numoutlets" : 2,
					"fontsize" : 12.0,
					"id" : "obj-16",
					"presentation_rect" : [ 554.898926, 301.95636, 0.0, 0.0 ],
					"outlettype" : [ "jit_matrix", "" ],
					"patching_rect" : [ 561.043335, 306.983612, 55.0, 20.0 ],
					"fontname" : "Arial"
				}

			}
, 			{
				"box" : 				{
					"maxclass" : "newobj",
					"text" : "jit.matrix",
					"numinlets" : 1,
					"hidden" : 1,
					"numoutlets" : 2,
					"fontsize" : 12.0,
					"id" : "obj-15",
					"presentation_rect" : [ 460.498535, 411.438446, 0.0, 0.0 ],
					"outlettype" : [ "jit_matrix", "" ],
					"patching_rect" : [ 478.931732, 418.700012, 55.0, 20.0 ],
					"fontname" : "Arial"
				}

			}
, 			{
				"box" : 				{
					"maxclass" : "newobj",
					"text" : "jit.matrix",
					"numinlets" : 1,
					"hidden" : 1,
					"numoutlets" : 2,
					"fontsize" : 12.0,
					"id" : "obj-14",
					"presentation_rect" : [ 413.019012, 283.523132, 0.0, 0.0 ],
					"outlettype" : [ "jit_matrix", "" ],
					"patching_rect" : [ 382.85556, 418.700012, 55.0, 20.0 ],
					"fontname" : "Arial"
				}

			}
, 			{
				"box" : 				{
					"maxclass" : "newobj",
					"text" : "jit.matrix",
					"numinlets" : 1,
					"hidden" : 1,
					"numoutlets" : 2,
					"fontsize" : 12.0,
					"id" : "obj-12",
					"presentation_rect" : [ 618.018677, 336.029877, 0.0, 0.0 ],
					"outlettype" : [ "jit_matrix", "" ],
					"patching_rect" : [ 618.018677, 336.029877, 55.0, 20.0 ],
					"fontname" : "Arial"
				}

			}
, 			{
				"box" : 				{
					"maxclass" : "newobj",
					"text" : "jit.matrix",
					"numinlets" : 1,
					"hidden" : 1,
					"numoutlets" : 2,
					"fontsize" : 12.0,
					"id" : "obj-9",
					"presentation_rect" : [ 542.051514, 301.397766, 0.0, 0.0 ],
					"outlettype" : [ "jit_matrix", "" ],
					"patching_rect" : [ 536.465698, 288.550385, 55.0, 20.0 ],
					"fontname" : "Arial"
				}

			}
, 			{
				"box" : 				{
					"maxclass" : "newobj",
					"text" : "jit.matrix",
					"numinlets" : 1,
					"hidden" : 1,
					"numoutlets" : 2,
					"fontsize" : 12.0,
					"id" : "obj-8",
					"presentation_rect" : [ 443.182495, 397.473907, 0.0, 0.0 ],
					"outlettype" : [ "jit_matrix", "" ],
					"patching_rect" : [ 433.686584, 382.392181, 55.0, 20.0 ],
					"fontname" : "Arial"
				}

			}
, 			{
				"box" : 				{
					"maxclass" : "newobj",
					"text" : "jit.matrix",
					"numinlets" : 1,
					"hidden" : 1,
					"numoutlets" : 2,
					"fontsize" : 12.0,
					"id" : "obj-7",
					"presentation_rect" : [ 393.468658, 335.471283, 0.0, 0.0 ],
					"outlettype" : [ "jit_matrix", "" ],
					"patching_rect" : [ 420.280609, 284.081726, 55.0, 20.0 ],
					"fontname" : "Arial"
				}

			}
, 			{
				"box" : 				{
					"maxclass" : "newobj",
					"text" : "jit.matrix",
					"numinlets" : 1,
					"hidden" : 1,
					"numoutlets" : 2,
					"fontsize" : 12.0,
					"id" : "obj-5",
					"presentation_rect" : [ 389.0, 269.0, 0.0, 0.0 ],
					"outlettype" : [ "jit_matrix", "" ],
					"patching_rect" : [ 375.035431, 231.574997, 55.0, 20.0 ],
					"fontname" : "Arial"
				}

			}
, 			{
				"box" : 				{
					"maxclass" : "newobj",
					"text" : "jit.matrix",
					"numinlets" : 1,
					"hidden" : 1,
					"numoutlets" : 2,
					"fontsize" : 9.0,
					"id" : "obj-4",
					"presentation_rect" : [ 323.0, 400.0, 0.0, 0.0 ],
					"outlettype" : [ "jit_matrix", "" ],
					"patching_rect" : [ 320.765686, 384.918274, 44.0, 17.0 ],
					"fontname" : "Arial"
				}

			}
, 			{
				"box" : 				{
					"maxclass" : "newobj",
					"text" : "jit.matrix",
					"numinlets" : 1,
					"hidden" : 1,
					"numoutlets" : 2,
					"fontsize" : 12.0,
					"id" : "obj-3",
					"outlettype" : [ "jit_matrix", "" ],
					"patching_rect" : [ 285.738434, 325.523132, 55.0, 20.0 ],
					"fontname" : "Arial"
				}

			}
, 			{
				"box" : 				{
					"maxclass" : "fpic",
					"numinlets" : 1,
					"numoutlets" : 0,
					"id" : "obj-1",
					"autofit" : 1,
					"patching_rect" : [ 217.0, 189.0, 389.0, 250.0 ],
					"pic" : "HDD:/DATAS/Lax 2.0/Manual/Lax.jpg"
				}

			}
 ],
		"lines" : [ 			{
				"patchline" : 				{
					"source" : [ "obj-16", 0 ],
					"destination" : [ "obj-12", 0 ],
					"hidden" : 0,
					"midpoints" : [ 570.543335, 328.493103, 627.518677, 328.493103 ]
				}

			}
, 			{
				"patchline" : 				{
					"source" : [ "obj-15", 0 ],
					"destination" : [ "obj-9", 0 ],
					"hidden" : 0,
					"midpoints" : [ 488.431732, 440.438446, 510.775024, 440.438446, 510.775024, 281.901855, 545.965698, 281.901855 ]
				}

			}
, 			{
				"patchline" : 				{
					"source" : [ "obj-14", 0 ],
					"destination" : [ "obj-5", 0 ],
					"hidden" : 0,
					"midpoints" : [ 392.35556, 442.114197, 374.760254, 442.114197, 374.760254, 221.574997, 384.535431, 221.574997 ]
				}

			}
, 			{
				"patchline" : 				{
					"source" : [ "obj-7", 0 ],
					"destination" : [ "obj-8", 0 ],
					"hidden" : 0,
					"midpoints" : [ 429.780609, 370.666077, 443.186584, 370.666077 ]
				}

			}
, 			{
				"patchline" : 				{
					"source" : [ "obj-3", 0 ],
					"destination" : [ "obj-4", 0 ],
					"hidden" : 0,
					"midpoints" : [ 295.238434, 365.0, 330.265686, 365.0 ]
				}

			}
 ]
	}

}
