{
	"patcher" : 	{
		"fileversion" : 1,
		"rect" : [ 155.0, 89.0, 289.0, 111.0 ],
		"bgcolor" : [ 0.0, 0.0, 0.0, 1.0 ],
		"bglocked" : 0,
		"defrect" : [ 155.0, 89.0, 289.0, 111.0 ],
		"openrect" : [ 0.0, 0.0, 0.0, 0.0 ],
		"openinpresentation" : 0,
		"default_fontsize" : 12.0,
		"default_fontface" : 0,
		"default_fontname" : "Arial",
		"gridonopen" : 0,
		"gridsize" : [ 15.0, 15.0 ],
		"gridsnaponopen" : 0,
		"toolbarvisible" : 1,
		"boxanimatetime" : 200,
		"imprint" : 0,
		"boxes" : [ 			{
				"box" : 				{
					"maxclass" : "newobj",
					"text" : "t b f",
					"fontname" : "Arial",
					"id" : "obj-11",
					"numinlets" : 1,
					"fontsize" : 9.0,
					"numoutlets" : 2,
					"outlettype" : [ "bang", "float" ],
					"patching_rect" : [ 337.0, 176.0, 32.5, 17.0 ]
				}

			}
, 			{
				"box" : 				{
					"maxclass" : "newobj",
					"text" : "dac~",
					"fontname" : "Arial",
					"id" : "obj-6",
					"numinlets" : 2,
					"fontsize" : 12.0,
					"numoutlets" : 0,
					"patching_rect" : [ 227.0, 290.0, 37.0, 20.0 ]
				}

			}
, 			{
				"box" : 				{
					"maxclass" : "newobj",
					"text" : "loadbang",
					"fontname" : "Arial",
					"id" : "obj-20",
					"numinlets" : 1,
					"fontsize" : 9.0,
					"numoutlets" : 1,
					"outlettype" : [ "bang" ],
					"patching_rect" : [ 232.0, 353.0, 48.0, 17.0 ]
				}

			}
, 			{
				"box" : 				{
					"maxclass" : "message",
					"text" : ";\rdsp setdriver ad_rewire",
					"linecount" : 2,
					"fontname" : "Arial",
					"id" : "obj-19",
					"numinlets" : 2,
					"fontsize" : 12.0,
					"numoutlets" : 1,
					"outlettype" : [ "" ],
					"patching_rect" : [ 232.0, 376.0, 135.0, 32.0 ]
				}

			}
, 			{
				"box" : 				{
					"maxclass" : "newobj",
					"text" : "pack bpm 120.",
					"fontname" : "Arial",
					"id" : "obj-3",
					"numinlets" : 2,
					"fontsize" : 9.0,
					"numoutlets" : 1,
					"outlettype" : [ "" ],
					"patching_rect" : [ 337.0, 199.0, 70.0, 17.0 ]
				}

			}
, 			{
				"box" : 				{
					"maxclass" : "newobj",
					"text" : "loadbang",
					"fontname" : "Arial",
					"id" : "obj-17",
					"numinlets" : 1,
					"fontsize" : 9.0,
					"numoutlets" : 1,
					"outlettype" : [ "bang" ],
					"patching_rect" : [ 515.0, 285.0, 48.0, 17.0 ]
				}

			}
, 			{
				"box" : 				{
					"maxclass" : "message",
					"text" : "script show tempo, script show bpm, script show text_tempo",
					"linecount" : 2,
					"fontname" : "Arial",
					"id" : "obj-16",
					"numinlets" : 2,
					"fontsize" : 12.0,
					"numoutlets" : 1,
					"outlettype" : [ "" ],
					"patching_rect" : [ 463.0, 351.0, 239.0, 32.0 ]
				}

			}
, 			{
				"box" : 				{
					"maxclass" : "message",
					"text" : "script hide tempo, script hide bpm, script hide text_tempo",
					"linecount" : 2,
					"fontname" : "Arial",
					"id" : "obj-15",
					"numinlets" : 2,
					"fontsize" : 12.0,
					"numoutlets" : 1,
					"outlettype" : [ "" ],
					"patching_rect" : [ 502.0, 312.0, 255.0, 32.0 ]
				}

			}
, 			{
				"box" : 				{
					"maxclass" : "flonum",
					"varname" : "tempo",
					"presentation" : 1,
					"triangle" : 0,
					"triscale" : 0.9,
					"hidden" : 1,
					"bordercolor" : [ 1.0, 1.0, 1.0, 1.0 ],
					"fontname" : "Arial",
					"id" : "obj-141",
					"numinlets" : 1,
					"presentation_rect" : [ 189.0, 76.0, 47.0, 23.0 ],
					"fontsize" : 14.0,
					"numoutlets" : 2,
					"outlettype" : [ "float", "bang" ],
					"patching_rect" : [ 104.0, 216.0, 47.0, 23.0 ]
				}

			}
, 			{
				"box" : 				{
					"maxclass" : "comment",
					"varname" : "bpm",
					"text" : "bpm",
					"presentation" : 1,
					"hidden" : 1,
					"fontname" : "Bradley Hand ITC TT Bold",
					"id" : "obj-4",
					"numinlets" : 1,
					"presentation_rect" : [ 238.484741, 77.0, 41.0, 21.0 ],
					"fontsize" : 12.0,
					"numoutlets" : 0,
					"patching_rect" : [ 38.484741, 244.0, 56.0, 21.0 ]
				}

			}
, 			{
				"box" : 				{
					"maxclass" : "comment",
					"varname" : "text_tempo",
					"text" : "at tempo",
					"presentation" : 1,
					"hidden" : 1,
					"fontname" : "Bradley Hand ITC TT Bold",
					"id" : "obj-2",
					"numinlets" : 1,
					"presentation_rect" : [ 133.484741, 78.0, 56.0, 21.0 ],
					"fontsize" : 12.0,
					"numoutlets" : 0,
					"patching_rect" : [ 38.484741, 217.0, 56.0, 21.0 ]
				}

			}
, 			{
				"box" : 				{
					"maxclass" : "newobj",
					"text" : "standalone",
					"fontname" : "Arial",
					"id" : "obj-1",
					"numinlets" : 1,
					"fontsize" : 9.0,
					"numoutlets" : 0,
					"patching_rect" : [ 624.0, 28.0, 55.0, 17.0 ],
					"saved_object_attributes" : 					{
						"statusvisible" : 0,
						"allwindowsactive" : 0,
						"noloadbangdefeating" : 0,
						"cantclosetoplevelpatchers" : 1,
						"overdrive" : 1,
						"usesearchpath" : 0,
						"searchformissingfiles" : 1,
						"midisupport" : 1,
						"audiosupport" : 1,
						"preffilename" : "Max 5 Preferences"
					}

				}

			}
, 			{
				"box" : 				{
					"maxclass" : "toggle",
					"hint" : "",
					"prototypename" : "Arial9",
					"presentation" : 1,
					"hidden" : 1,
					"id" : "obj-502",
					"numinlets" : 1,
					"presentation_rect" : [ 23.0, 27.0, 18.0, 18.0 ],
					"numoutlets" : 1,
					"outlettype" : [ "int" ],
					"patching_rect" : [ 137.0, 287.0, 18.0, 18.0 ]
				}

			}
, 			{
				"box" : 				{
					"maxclass" : "comment",
					"hint" : "",
					"text" : "View",
					"presentation" : 1,
					"hidden" : 1,
					"frgb" : [ 1.0, 0.501961, 0.0, 1.0 ],
					"fontname" : "Arial Bold Italic",
					"id" : "obj-503",
					"numinlets" : 1,
					"presentation_rect" : [ 48.0, 27.0, 40.0, 21.0 ],
					"fontsize" : 12.754706,
					"numoutlets" : 0,
					"patching_rect" : [ 127.0, 262.0, 40.0, 21.0 ],
					"textcolor" : [ 1.0, 0.501961, 0.0, 1.0 ]
				}

			}
, 			{
				"box" : 				{
					"maxclass" : "newobj",
					"text" : "p View",
					"fontname" : "Arial",
					"id" : "obj-506",
					"numinlets" : 2,
					"fontsize" : 11.595187,
					"numoutlets" : 1,
					"color" : [ 0.7, 0.7, 0.7, 1.0 ],
					"outlettype" : [ "" ],
					"patching_rect" : [ 137.0, 311.0, 56.0, 20.0 ],
					"patcher" : 					{
						"fileversion" : 1,
						"rect" : [ 783.0, 120.0, 657.0, 488.0 ],
						"bglocked" : 0,
						"defrect" : [ 783.0, 120.0, 657.0, 488.0 ],
						"openrect" : [ 0.0, 0.0, 0.0, 0.0 ],
						"openinpresentation" : 0,
						"default_fontsize" : 9.0,
						"default_fontface" : 0,
						"default_fontname" : "Arial",
						"gridonopen" : 0,
						"gridsize" : [ 15.0, 15.0 ],
						"gridsnaponopen" : 0,
						"toolbarvisible" : 1,
						"boxanimatetime" : 200,
						"imprint" : 0,
						"boxes" : [ 							{
								"box" : 								{
									"maxclass" : "toggle",
									"id" : "obj-17",
									"numinlets" : 1,
									"numoutlets" : 1,
									"outlettype" : [ "int" ],
									"patching_rect" : [ 204.0, 31.0, 20.0, 20.0 ]
								}

							}
, 							{
								"box" : 								{
									"maxclass" : "newobj",
									"text" : "loadmess 0",
									"fontname" : "Arial",
									"id" : "obj-2",
									"numinlets" : 1,
									"fontsize" : 9.0,
									"numoutlets" : 1,
									"outlettype" : [ "" ],
									"patching_rect" : [ 566.0, 16.0, 57.0, 17.0 ]
								}

							}
, 							{
								"box" : 								{
									"maxclass" : "message",
									"text" : "window flags nogrow, window flags nozoom",
									"linecount" : 2,
									"fontname" : "Arial",
									"id" : "obj-29",
									"numinlets" : 2,
									"fontsize" : 10.435669,
									"numoutlets" : 1,
									"outlettype" : [ "" ],
									"patching_rect" : [ 355.0, 322.0, 111.0, 28.0 ]
								}

							}
, 							{
								"box" : 								{
									"maxclass" : "newobj",
									"text" : "t l",
									"fontname" : "Arial",
									"id" : "obj-13",
									"numinlets" : 1,
									"fontsize" : 10.435669,
									"numoutlets" : 1,
									"outlettype" : [ "" ],
									"patching_rect" : [ 466.0, 378.0, 19.0, 18.0 ]
								}

							}
, 							{
								"box" : 								{
									"maxclass" : "inlet",
									"prototypename" : "Arial9",
									"id" : "obj-5",
									"numinlets" : 0,
									"numoutlets" : 1,
									"outlettype" : [ "" ],
									"patching_rect" : [ 466.0, 257.0, 18.0, 18.0 ],
									"comment" : ""
								}

							}
, 							{
								"box" : 								{
									"maxclass" : "toggle",
									"prototypename" : "Arial9",
									"id" : "obj-6",
									"numinlets" : 1,
									"numoutlets" : 1,
									"outlettype" : [ "int" ],
									"patching_rect" : [ 466.0, 279.0, 18.0, 18.0 ]
								}

							}
, 							{
								"box" : 								{
									"maxclass" : "newobj",
									"text" : "sel 1 0",
									"fontname" : "Arial",
									"id" : "obj-8",
									"numinlets" : 1,
									"fontsize" : 10.435669,
									"numoutlets" : 3,
									"outlettype" : [ "bang", "bang", "" ],
									"patching_rect" : [ 466.0, 301.0, 46.0, 18.0 ]
								}

							}
, 							{
								"box" : 								{
									"maxclass" : "message",
									"text" : "savewindow 1",
									"fontname" : "Arial",
									"id" : "obj-1",
									"numinlets" : 2,
									"fontsize" : 10.435669,
									"numoutlets" : 1,
									"outlettype" : [ "" ],
									"patching_rect" : [ 362.0, 428.0, 76.0, 16.0 ]
								}

							}
, 							{
								"box" : 								{
									"maxclass" : "newobj",
									"text" : "qlim",
									"fontname" : "Arial",
									"id" : "obj-63",
									"numinlets" : 2,
									"fontsize" : 10.435669,
									"numoutlets" : 1,
									"outlettype" : [ "" ],
									"patching_rect" : [ 43.0, 301.0, 32.5, 18.0 ]
								}

							}
, 							{
								"box" : 								{
									"maxclass" : "newobj",
									"text" : "qlim",
									"fontname" : "Arial",
									"id" : "obj-62",
									"numinlets" : 2,
									"fontsize" : 10.435669,
									"numoutlets" : 1,
									"outlettype" : [ "" ],
									"patching_rect" : [ 283.0, 301.0, 32.5, 18.0 ]
								}

							}
, 							{
								"box" : 								{
									"maxclass" : "newobj",
									"text" : "t l",
									"fontname" : "Arial",
									"id" : "obj-37",
									"numinlets" : 1,
									"fontsize" : 10.435669,
									"numoutlets" : 1,
									"outlettype" : [ "" ],
									"patching_rect" : [ 43.0, 378.0, 19.0, 18.0 ]
								}

							}
, 							{
								"box" : 								{
									"maxclass" : "message",
									"text" : "window flags nofloat, window exec",
									"fontname" : "Arial",
									"id" : "obj-38",
									"numinlets" : 2,
									"fontsize" : 10.435669,
									"numoutlets" : 1,
									"outlettype" : [ "" ],
									"patching_rect" : [ 466.0, 323.0, 170.0, 16.0 ]
								}

							}
, 							{
								"box" : 								{
									"maxclass" : "message",
									"text" : "window exec",
									"fontname" : "Arial",
									"id" : "obj-39",
									"numinlets" : 2,
									"fontsize" : 10.435669,
									"numoutlets" : 1,
									"outlettype" : [ "" ],
									"patching_rect" : [ 43.0, 323.0, 70.0, 16.0 ]
								}

							}
, 							{
								"box" : 								{
									"maxclass" : "newobj",
									"text" : "t b l b",
									"fontname" : "Arial",
									"id" : "obj-40",
									"numinlets" : 1,
									"fontsize" : 10.435669,
									"numoutlets" : 3,
									"outlettype" : [ "bang", "", "bang" ],
									"patching_rect" : [ 43.0, 279.0, 46.0, 18.0 ]
								}

							}
, 							{
								"box" : 								{
									"maxclass" : "message",
									"text" : "window flags grow, window flags zoom",
									"linecount" : 2,
									"fontname" : "Arial",
									"id" : "obj-42",
									"numinlets" : 2,
									"fontsize" : 10.435669,
									"numoutlets" : 1,
									"outlettype" : [ "" ],
									"patching_rect" : [ 116.0, 316.0, 113.0, 28.0 ]
								}

							}
, 							{
								"box" : 								{
									"maxclass" : "newobj",
									"text" : "prepend window size",
									"fontname" : "Arial",
									"id" : "obj-43",
									"numinlets" : 1,
									"fontsize" : 10.435669,
									"numoutlets" : 1,
									"outlettype" : [ "" ],
									"patching_rect" : [ 43.0, 257.0, 108.0, 18.0 ]
								}

							}
, 							{
								"box" : 								{
									"maxclass" : "comment",
									"text" : "Ymax",
									"fontname" : "Arial",
									"id" : "obj-45",
									"numinlets" : 1,
									"fontsize" : 10.435669,
									"numoutlets" : 0,
									"patching_rect" : [ 208.0, 186.0, 37.0, 18.0 ]
								}

							}
, 							{
								"box" : 								{
									"maxclass" : "comment",
									"text" : "Xmax",
									"fontname" : "Arial",
									"id" : "obj-46",
									"numinlets" : 1,
									"fontsize" : 10.435669,
									"numoutlets" : 0,
									"patching_rect" : [ 157.0, 186.0, 37.0, 18.0 ]
								}

							}
, 							{
								"box" : 								{
									"maxclass" : "comment",
									"text" : "Ymin",
									"fontname" : "Arial",
									"id" : "obj-47",
									"numinlets" : 1,
									"fontsize" : 10.435669,
									"numoutlets" : 0,
									"patching_rect" : [ 105.0, 186.0, 34.0, 18.0 ]
								}

							}
, 							{
								"box" : 								{
									"maxclass" : "comment",
									"text" : "Xmin",
									"fontname" : "Arial",
									"id" : "obj-48",
									"numinlets" : 1,
									"fontsize" : 10.435669,
									"numoutlets" : 0,
									"patching_rect" : [ 54.0, 186.0, 34.0, 18.0 ]
								}

							}
, 							{
								"box" : 								{
									"maxclass" : "comment",
									"text" : "pref.",
									"fontname" : "Arial",
									"id" : "obj-49",
									"numinlets" : 1,
									"fontsize" : 10.435669,
									"numoutlets" : 0,
									"patching_rect" : [ 171.0, 147.0, 31.0, 18.0 ]
								}

							}
, 							{
								"box" : 								{
									"maxclass" : "newobj",
									"text" : "unpack 0 0 0 0",
									"fontname" : "Arial",
									"id" : "obj-51",
									"numinlets" : 1,
									"fontsize" : 10.435669,
									"numoutlets" : 4,
									"outlettype" : [ "int", "int", "int", "int" ],
									"patching_rect" : [ 43.0, 167.0, 173.0, 18.0 ]
								}

							}
, 							{
								"box" : 								{
									"maxclass" : "message",
									"text" : "45 45 770 484",
									"fontname" : "Arial",
									"id" : "obj-52",
									"numinlets" : 2,
									"fontsize" : 10.435669,
									"numoutlets" : 1,
									"outlettype" : [ "" ],
									"patching_rect" : [ 43.0, 147.0, 127.0, 16.0 ]
								}

							}
, 							{
								"box" : 								{
									"maxclass" : "number",
									"fontname" : "Arial",
									"id" : "obj-53",
									"numinlets" : 1,
									"fontsize" : 10.435669,
									"numoutlets" : 2,
									"outlettype" : [ "int", "bang" ],
									"patching_rect" : [ 197.0, 205.0, 50.0, 18.0 ]
								}

							}
, 							{
								"box" : 								{
									"maxclass" : "number",
									"fontname" : "Arial",
									"id" : "obj-54",
									"numinlets" : 1,
									"fontsize" : 10.435669,
									"numoutlets" : 2,
									"outlettype" : [ "int", "bang" ],
									"patching_rect" : [ 146.0, 205.0, 50.0, 18.0 ]
								}

							}
, 							{
								"box" : 								{
									"maxclass" : "newobj",
									"text" : "pak 0 0 0 0",
									"fontname" : "Arial",
									"id" : "obj-55",
									"numinlets" : 4,
									"fontsize" : 10.435669,
									"numoutlets" : 1,
									"outlettype" : [ "" ],
									"patching_rect" : [ 43.0, 227.0, 173.0, 18.0 ]
								}

							}
, 							{
								"box" : 								{
									"maxclass" : "number",
									"fontname" : "Arial",
									"id" : "obj-56",
									"numinlets" : 1,
									"fontsize" : 10.435669,
									"numoutlets" : 2,
									"outlettype" : [ "int", "bang" ],
									"patching_rect" : [ 94.0, 205.0, 51.0, 18.0 ]
								}

							}
, 							{
								"box" : 								{
									"maxclass" : "number",
									"fontname" : "Arial",
									"id" : "obj-57",
									"numinlets" : 1,
									"fontsize" : 10.435669,
									"numoutlets" : 2,
									"outlettype" : [ "int", "bang" ],
									"patching_rect" : [ 43.0, 205.0, 50.0, 18.0 ]
								}

							}
, 							{
								"box" : 								{
									"maxclass" : "newobj",
									"text" : "t l",
									"fontname" : "Arial",
									"id" : "obj-35",
									"numinlets" : 1,
									"fontsize" : 10.435669,
									"numoutlets" : 1,
									"outlettype" : [ "" ],
									"patching_rect" : [ 283.0, 378.0, 19.0, 18.0 ]
								}

							}
, 							{
								"box" : 								{
									"maxclass" : "message",
									"text" : "window flags float, window exec",
									"fontname" : "Arial",
									"id" : "obj-32",
									"numinlets" : 2,
									"fontsize" : 10.435669,
									"numoutlets" : 1,
									"outlettype" : [ "" ],
									"patching_rect" : [ 480.0, 343.0, 158.0, 16.0 ]
								}

							}
, 							{
								"box" : 								{
									"maxclass" : "message",
									"text" : "window exec",
									"fontname" : "Arial",
									"id" : "obj-31",
									"numinlets" : 2,
									"fontsize" : 10.435669,
									"numoutlets" : 1,
									"outlettype" : [ "" ],
									"patching_rect" : [ 283.0, 323.0, 70.0, 16.0 ]
								}

							}
, 							{
								"box" : 								{
									"maxclass" : "newobj",
									"text" : "t b l b",
									"fontname" : "Arial",
									"id" : "obj-30",
									"numinlets" : 1,
									"fontsize" : 10.435669,
									"numoutlets" : 3,
									"outlettype" : [ "bang", "", "bang" ],
									"patching_rect" : [ 283.0, 279.0, 46.0, 18.0 ]
								}

							}
, 							{
								"box" : 								{
									"maxclass" : "newobj",
									"text" : "prepend window size",
									"fontname" : "Arial",
									"id" : "obj-28",
									"numinlets" : 1,
									"fontsize" : 10.435669,
									"numoutlets" : 1,
									"outlettype" : [ "" ],
									"patching_rect" : [ 283.0, 257.0, 108.0, 18.0 ]
								}

							}
, 							{
								"box" : 								{
									"maxclass" : "comment",
									"text" : "Ymax",
									"fontname" : "Arial",
									"id" : "obj-27",
									"numinlets" : 1,
									"fontsize" : 10.435669,
									"numoutlets" : 0,
									"patching_rect" : [ 448.0, 186.0, 37.0, 18.0 ]
								}

							}
, 							{
								"box" : 								{
									"maxclass" : "comment",
									"text" : "Xmax",
									"fontname" : "Arial",
									"id" : "obj-26",
									"numinlets" : 1,
									"fontsize" : 10.435669,
									"numoutlets" : 0,
									"patching_rect" : [ 397.0, 186.0, 37.0, 18.0 ]
								}

							}
, 							{
								"box" : 								{
									"maxclass" : "comment",
									"text" : "Ymin",
									"fontname" : "Arial",
									"id" : "obj-23",
									"numinlets" : 1,
									"fontsize" : 10.435669,
									"numoutlets" : 0,
									"patching_rect" : [ 345.0, 186.0, 34.0, 18.0 ]
								}

							}
, 							{
								"box" : 								{
									"maxclass" : "comment",
									"text" : "Xmin",
									"fontname" : "Arial",
									"id" : "obj-22",
									"numinlets" : 1,
									"fontsize" : 10.435669,
									"numoutlets" : 0,
									"patching_rect" : [ 294.0, 186.0, 34.0, 18.0 ]
								}

							}
, 							{
								"box" : 								{
									"maxclass" : "comment",
									"text" : "pref.",
									"fontname" : "Arial",
									"id" : "obj-20",
									"numinlets" : 1,
									"fontsize" : 10.435669,
									"numoutlets" : 0,
									"patching_rect" : [ 411.0, 147.0, 31.0, 18.0 ]
								}

							}
, 							{
								"box" : 								{
									"maxclass" : "newobj",
									"text" : "unpack 0 0 0 0",
									"fontname" : "Arial",
									"id" : "obj-18",
									"numinlets" : 1,
									"fontsize" : 10.435669,
									"numoutlets" : 4,
									"outlettype" : [ "int", "int", "int", "int" ],
									"patching_rect" : [ 283.0, 167.0, 173.0, 18.0 ]
								}

							}
, 							{
								"box" : 								{
									"maxclass" : "message",
									"text" : "155 89 444 200",
									"fontname" : "Arial",
									"id" : "obj-16",
									"numinlets" : 2,
									"fontsize" : 10.435669,
									"numoutlets" : 1,
									"outlettype" : [ "" ],
									"patching_rect" : [ 283.0, 147.0, 127.0, 16.0 ]
								}

							}
, 							{
								"box" : 								{
									"maxclass" : "number",
									"fontname" : "Arial",
									"id" : "obj-12",
									"numinlets" : 1,
									"fontsize" : 10.435669,
									"numoutlets" : 2,
									"outlettype" : [ "int", "bang" ],
									"patching_rect" : [ 437.0, 205.0, 50.0, 18.0 ]
								}

							}
, 							{
								"box" : 								{
									"maxclass" : "number",
									"fontname" : "Arial",
									"id" : "obj-15",
									"numinlets" : 1,
									"fontsize" : 10.435669,
									"numoutlets" : 2,
									"outlettype" : [ "int", "bang" ],
									"patching_rect" : [ 386.0, 205.0, 50.0, 18.0 ]
								}

							}
, 							{
								"box" : 								{
									"maxclass" : "newobj",
									"text" : "pak 0 0 0 0",
									"fontname" : "Arial",
									"id" : "obj-7",
									"numinlets" : 4,
									"fontsize" : 10.435669,
									"numoutlets" : 1,
									"outlettype" : [ "" ],
									"patching_rect" : [ 283.0, 227.0, 173.0, 18.0 ]
								}

							}
, 							{
								"box" : 								{
									"maxclass" : "number",
									"fontname" : "Arial",
									"id" : "obj-4",
									"numinlets" : 1,
									"fontsize" : 10.435669,
									"numoutlets" : 2,
									"outlettype" : [ "int", "bang" ],
									"patching_rect" : [ 334.0, 205.0, 51.0, 18.0 ]
								}

							}
, 							{
								"box" : 								{
									"maxclass" : "number",
									"fontname" : "Arial",
									"id" : "obj-3",
									"numinlets" : 1,
									"fontsize" : 10.435669,
									"numoutlets" : 2,
									"outlettype" : [ "int", "bang" ],
									"patching_rect" : [ 283.0, 205.0, 50.0, 18.0 ]
								}

							}
, 							{
								"box" : 								{
									"maxclass" : "comment",
									"text" : "view",
									"fontname" : "Arial",
									"id" : "obj-11",
									"numinlets" : 1,
									"fontsize" : 10.435669,
									"numoutlets" : 0,
									"patching_rect" : [ 284.0, 69.0, 31.0, 18.0 ]
								}

							}
, 							{
								"box" : 								{
									"maxclass" : "message",
									"text" : "presentation $1",
									"fontname" : "Arial",
									"id" : "obj-10",
									"numinlets" : 2,
									"fontsize" : 10.435669,
									"numoutlets" : 1,
									"outlettype" : [ "" ],
									"patching_rect" : [ 250.0, 90.0, 82.0, 16.0 ]
								}

							}
, 							{
								"box" : 								{
									"maxclass" : "newobj",
									"text" : "== 0",
									"fontname" : "Arial",
									"id" : "obj-9",
									"numinlets" : 2,
									"fontsize" : 10.435669,
									"numoutlets" : 1,
									"outlettype" : [ "int" ],
									"patching_rect" : [ 250.0, 69.0, 32.5, 18.0 ]
								}

							}
, 							{
								"box" : 								{
									"maxclass" : "inlet",
									"prototypename" : "Arial9",
									"id" : "obj-44",
									"numinlets" : 0,
									"numoutlets" : 1,
									"outlettype" : [ "int" ],
									"patching_rect" : [ 153.0, 17.0, 18.0, 18.0 ],
									"comment" : ""
								}

							}
, 							{
								"box" : 								{
									"maxclass" : "toggle",
									"prototypename" : "Arial9",
									"id" : "obj-41",
									"numinlets" : 1,
									"numoutlets" : 1,
									"outlettype" : [ "int" ],
									"patching_rect" : [ 153.0, 52.0, 18.0, 18.0 ]
								}

							}
, 							{
								"box" : 								{
									"maxclass" : "newobj",
									"text" : "sel 1 0",
									"fontname" : "Arial",
									"id" : "obj-25",
									"numinlets" : 1,
									"fontsize" : 10.435669,
									"numoutlets" : 3,
									"outlettype" : [ "bang", "bang", "" ],
									"patching_rect" : [ 153.0, 74.0, 46.0, 18.0 ]
								}

							}
, 							{
								"box" : 								{
									"maxclass" : "outlet",
									"prototypename" : "Arial9",
									"id" : "obj-21",
									"numinlets" : 1,
									"numoutlets" : 0,
									"patching_rect" : [ 250.0, 443.0, 18.0, 18.0 ],
									"comment" : ""
								}

							}
 ],
						"lines" : [ 							{
								"patchline" : 								{
									"source" : [ "obj-13", 0 ],
									"destination" : [ "obj-21", 0 ],
									"hidden" : 0,
									"midpoints" : [  ]
								}

							}
, 							{
								"patchline" : 								{
									"source" : [ "obj-32", 0 ],
									"destination" : [ "obj-13", 0 ],
									"hidden" : 0,
									"midpoints" : [  ]
								}

							}
, 							{
								"patchline" : 								{
									"source" : [ "obj-38", 0 ],
									"destination" : [ "obj-13", 0 ],
									"hidden" : 0,
									"midpoints" : [  ]
								}

							}
, 							{
								"patchline" : 								{
									"source" : [ "obj-8", 1 ],
									"destination" : [ "obj-32", 0 ],
									"hidden" : 0,
									"midpoints" : [  ]
								}

							}
, 							{
								"patchline" : 								{
									"source" : [ "obj-40", 1 ],
									"destination" : [ "obj-37", 0 ],
									"hidden" : 0,
									"midpoints" : [  ]
								}

							}
, 							{
								"patchline" : 								{
									"source" : [ "obj-40", 2 ],
									"destination" : [ "obj-42", 0 ],
									"hidden" : 0,
									"midpoints" : [  ]
								}

							}
, 							{
								"patchline" : 								{
									"source" : [ "obj-43", 0 ],
									"destination" : [ "obj-40", 0 ],
									"hidden" : 0,
									"midpoints" : [  ]
								}

							}
, 							{
								"patchline" : 								{
									"source" : [ "obj-40", 0 ],
									"destination" : [ "obj-63", 0 ],
									"hidden" : 0,
									"midpoints" : [  ]
								}

							}
, 							{
								"patchline" : 								{
									"source" : [ "obj-8", 0 ],
									"destination" : [ "obj-38", 0 ],
									"hidden" : 0,
									"midpoints" : [  ]
								}

							}
, 							{
								"patchline" : 								{
									"source" : [ "obj-6", 0 ],
									"destination" : [ "obj-8", 0 ],
									"hidden" : 0,
									"midpoints" : [  ]
								}

							}
, 							{
								"patchline" : 								{
									"source" : [ "obj-5", 0 ],
									"destination" : [ "obj-6", 0 ],
									"hidden" : 0,
									"midpoints" : [  ]
								}

							}
, 							{
								"patchline" : 								{
									"source" : [ "obj-28", 0 ],
									"destination" : [ "obj-30", 0 ],
									"hidden" : 0,
									"midpoints" : [  ]
								}

							}
, 							{
								"patchline" : 								{
									"source" : [ "obj-30", 2 ],
									"destination" : [ "obj-29", 0 ],
									"hidden" : 0,
									"midpoints" : [  ]
								}

							}
, 							{
								"patchline" : 								{
									"source" : [ "obj-30", 1 ],
									"destination" : [ "obj-35", 0 ],
									"hidden" : 0,
									"midpoints" : [  ]
								}

							}
, 							{
								"patchline" : 								{
									"source" : [ "obj-30", 0 ],
									"destination" : [ "obj-62", 0 ],
									"hidden" : 0,
									"midpoints" : [  ]
								}

							}
, 							{
								"patchline" : 								{
									"source" : [ "obj-1", 0 ],
									"destination" : [ "obj-21", 0 ],
									"hidden" : 0,
									"midpoints" : [  ]
								}

							}
, 							{
								"patchline" : 								{
									"source" : [ "obj-63", 0 ],
									"destination" : [ "obj-39", 0 ],
									"hidden" : 0,
									"midpoints" : [  ]
								}

							}
, 							{
								"patchline" : 								{
									"source" : [ "obj-62", 0 ],
									"destination" : [ "obj-31", 0 ],
									"hidden" : 0,
									"midpoints" : [  ]
								}

							}
, 							{
								"patchline" : 								{
									"source" : [ "obj-7", 0 ],
									"destination" : [ "obj-28", 0 ],
									"hidden" : 0,
									"midpoints" : [  ]
								}

							}
, 							{
								"patchline" : 								{
									"source" : [ "obj-55", 0 ],
									"destination" : [ "obj-43", 0 ],
									"hidden" : 0,
									"midpoints" : [  ]
								}

							}
, 							{
								"patchline" : 								{
									"source" : [ "obj-37", 0 ],
									"destination" : [ "obj-21", 0 ],
									"hidden" : 0,
									"midpoints" : [  ]
								}

							}
, 							{
								"patchline" : 								{
									"source" : [ "obj-57", 0 ],
									"destination" : [ "obj-55", 0 ],
									"hidden" : 0,
									"midpoints" : [  ]
								}

							}
, 							{
								"patchline" : 								{
									"source" : [ "obj-56", 0 ],
									"destination" : [ "obj-55", 1 ],
									"hidden" : 0,
									"midpoints" : [  ]
								}

							}
, 							{
								"patchline" : 								{
									"source" : [ "obj-54", 0 ],
									"destination" : [ "obj-55", 2 ],
									"hidden" : 0,
									"midpoints" : [  ]
								}

							}
, 							{
								"patchline" : 								{
									"source" : [ "obj-53", 0 ],
									"destination" : [ "obj-55", 3 ],
									"hidden" : 0,
									"midpoints" : [  ]
								}

							}
, 							{
								"patchline" : 								{
									"source" : [ "obj-51", 0 ],
									"destination" : [ "obj-57", 0 ],
									"hidden" : 0,
									"midpoints" : [  ]
								}

							}
, 							{
								"patchline" : 								{
									"source" : [ "obj-51", 1 ],
									"destination" : [ "obj-56", 0 ],
									"hidden" : 0,
									"midpoints" : [  ]
								}

							}
, 							{
								"patchline" : 								{
									"source" : [ "obj-51", 2 ],
									"destination" : [ "obj-54", 0 ],
									"hidden" : 0,
									"midpoints" : [  ]
								}

							}
, 							{
								"patchline" : 								{
									"source" : [ "obj-51", 3 ],
									"destination" : [ "obj-53", 0 ],
									"hidden" : 0,
									"midpoints" : [  ]
								}

							}
, 							{
								"patchline" : 								{
									"source" : [ "obj-52", 0 ],
									"destination" : [ "obj-51", 0 ],
									"hidden" : 0,
									"midpoints" : [  ]
								}

							}
, 							{
								"patchline" : 								{
									"source" : [ "obj-55", 0 ],
									"destination" : [ "obj-52", 1 ],
									"hidden" : 0,
									"midpoints" : [ 52.5, 251.0, 34.0, 251.0, 34.0, 139.0, 160.5, 139.0 ]
								}

							}
, 							{
								"patchline" : 								{
									"source" : [ "obj-39", 0 ],
									"destination" : [ "obj-37", 0 ],
									"hidden" : 0,
									"midpoints" : [  ]
								}

							}
, 							{
								"patchline" : 								{
									"source" : [ "obj-42", 0 ],
									"destination" : [ "obj-37", 0 ],
									"hidden" : 0,
									"midpoints" : [  ]
								}

							}
, 							{
								"patchline" : 								{
									"source" : [ "obj-35", 0 ],
									"destination" : [ "obj-21", 0 ],
									"hidden" : 0,
									"midpoints" : [  ]
								}

							}
, 							{
								"patchline" : 								{
									"source" : [ "obj-29", 0 ],
									"destination" : [ "obj-35", 0 ],
									"hidden" : 0,
									"midpoints" : [  ]
								}

							}
, 							{
								"patchline" : 								{
									"source" : [ "obj-31", 0 ],
									"destination" : [ "obj-35", 0 ],
									"hidden" : 0,
									"midpoints" : [  ]
								}

							}
, 							{
								"patchline" : 								{
									"source" : [ "obj-7", 0 ],
									"destination" : [ "obj-16", 1 ],
									"hidden" : 0,
									"midpoints" : [ 292.5, 251.0, 274.0, 251.0, 274.0, 139.0, 400.5, 139.0 ]
								}

							}
, 							{
								"patchline" : 								{
									"source" : [ "obj-16", 0 ],
									"destination" : [ "obj-18", 0 ],
									"hidden" : 0,
									"midpoints" : [  ]
								}

							}
, 							{
								"patchline" : 								{
									"source" : [ "obj-18", 3 ],
									"destination" : [ "obj-12", 0 ],
									"hidden" : 0,
									"midpoints" : [  ]
								}

							}
, 							{
								"patchline" : 								{
									"source" : [ "obj-18", 2 ],
									"destination" : [ "obj-15", 0 ],
									"hidden" : 0,
									"midpoints" : [  ]
								}

							}
, 							{
								"patchline" : 								{
									"source" : [ "obj-18", 1 ],
									"destination" : [ "obj-4", 0 ],
									"hidden" : 0,
									"midpoints" : [  ]
								}

							}
, 							{
								"patchline" : 								{
									"source" : [ "obj-18", 0 ],
									"destination" : [ "obj-3", 0 ],
									"hidden" : 0,
									"midpoints" : [  ]
								}

							}
, 							{
								"patchline" : 								{
									"source" : [ "obj-12", 0 ],
									"destination" : [ "obj-7", 3 ],
									"hidden" : 0,
									"midpoints" : [  ]
								}

							}
, 							{
								"patchline" : 								{
									"source" : [ "obj-15", 0 ],
									"destination" : [ "obj-7", 2 ],
									"hidden" : 0,
									"midpoints" : [  ]
								}

							}
, 							{
								"patchline" : 								{
									"source" : [ "obj-4", 0 ],
									"destination" : [ "obj-7", 1 ],
									"hidden" : 0,
									"midpoints" : [  ]
								}

							}
, 							{
								"patchline" : 								{
									"source" : [ "obj-3", 0 ],
									"destination" : [ "obj-7", 0 ],
									"hidden" : 0,
									"midpoints" : [  ]
								}

							}
, 							{
								"patchline" : 								{
									"source" : [ "obj-10", 0 ],
									"destination" : [ "obj-21", 0 ],
									"hidden" : 0,
									"midpoints" : [  ]
								}

							}
, 							{
								"patchline" : 								{
									"source" : [ "obj-9", 0 ],
									"destination" : [ "obj-10", 0 ],
									"hidden" : 0,
									"midpoints" : [  ]
								}

							}
, 							{
								"patchline" : 								{
									"source" : [ "obj-41", 0 ],
									"destination" : [ "obj-9", 0 ],
									"hidden" : 0,
									"midpoints" : [  ]
								}

							}
, 							{
								"patchline" : 								{
									"source" : [ "obj-44", 0 ],
									"destination" : [ "obj-41", 0 ],
									"hidden" : 0,
									"midpoints" : [  ]
								}

							}
, 							{
								"patchline" : 								{
									"source" : [ "obj-41", 0 ],
									"destination" : [ "obj-25", 0 ],
									"hidden" : 0,
									"midpoints" : [  ]
								}

							}
, 							{
								"patchline" : 								{
									"source" : [ "obj-2", 0 ],
									"destination" : [ "obj-41", 0 ],
									"hidden" : 0,
									"midpoints" : [ 575.5, 48.0, 162.5, 48.0 ]
								}

							}
, 							{
								"patchline" : 								{
									"source" : [ "obj-17", 0 ],
									"destination" : [ "obj-10", 0 ],
									"hidden" : 0,
									"midpoints" : [  ]
								}

							}
, 							{
								"patchline" : 								{
									"source" : [ "obj-25", 1 ],
									"destination" : [ "obj-16", 0 ],
									"hidden" : 0,
									"midpoints" : [  ]
								}

							}
, 							{
								"patchline" : 								{
									"source" : [ "obj-25", 0 ],
									"destination" : [ "obj-52", 0 ],
									"hidden" : 0,
									"midpoints" : [  ]
								}

							}
 ]
					}
,
					"saved_object_attributes" : 					{
						"default_fontname" : "Arial",
						"fontname" : "Arial",
						"default_fontsize" : 9.0,
						"globalpatchername" : "",
						"fontface" : 0,
						"fontsize" : 9.0,
						"default_fontface" : 0
					}

				}

			}
, 			{
				"box" : 				{
					"maxclass" : "newobj",
					"text" : "thispatcher",
					"fontname" : "Arial",
					"id" : "obj-341",
					"numinlets" : 1,
					"fontsize" : 9.0,
					"numoutlets" : 2,
					"outlettype" : [ "", "" ],
					"patching_rect" : [ 137.0, 395.0, 61.0, 17.0 ],
					"save" : [ "#N", "thispatcher", ";", "#Q", "end", ";" ]
				}

			}
, 			{
				"box" : 				{
					"maxclass" : "comment",
					"text" : "SYNCHRO WITH LAX",
					"linecount" : 2,
					"presentation" : 1,
					"fontname" : "Bradley Hand ITC TT Bold",
					"id" : "obj-29",
					"numinlets" : 1,
					"presentation_rect" : [ 32.0, 2.0, 209.0, 29.0 ],
					"fontsize" : 18.0,
					"numoutlets" : 0,
					"patching_rect" : [ 36.0, 38.0, 177.0, 51.0 ]
				}

			}
, 			{
				"box" : 				{
					"maxclass" : "newobj",
					"text" : "bgcolor 0 0 0",
					"fontname" : "Arial",
					"id" : "obj-336",
					"numinlets" : 4,
					"fontsize" : 9.0,
					"numoutlets" : 0,
					"patching_rect" : [ 616.0, 279.0, 70.0, 17.0 ]
				}

			}
, 			{
				"box" : 				{
					"maxclass" : "comment",
					"varname" : "title_oscout[1]",
					"text" : "Synchro Output",
					"presentation" : 1,
					"fontname" : "Bradley Hand ITC TT Bold",
					"id" : "obj-147",
					"numinlets" : 1,
					"presentation_rect" : [ 9.0, 78.0, 107.0, 21.0 ],
					"fontsize" : 12.0,
					"numoutlets" : 0,
					"patching_rect" : [ 152.0, 121.0, 95.0, 21.0 ]
				}

			}
, 			{
				"box" : 				{
					"maxclass" : "newobj",
					"text" : "select 1 0",
					"fontname" : "Arial",
					"id" : "obj-12",
					"numinlets" : 1,
					"fontsize" : 12.0,
					"numoutlets" : 3,
					"outlettype" : [ "bang", "bang", "" ],
					"patching_rect" : [ 480.280884, 264.0, 62.0, 20.0 ]
				}

			}
, 			{
				"box" : 				{
					"maxclass" : "newobj",
					"text" : "hostcontrol~",
					"fontname" : "Arial",
					"id" : "obj-102",
					"numinlets" : 1,
					"fontsize" : 12.0,
					"numoutlets" : 0,
					"patching_rect" : [ 337.280884, 235.0, 76.0, 20.0 ]
				}

			}
, 			{
				"box" : 				{
					"maxclass" : "comment",
					"text" : "Osc Input",
					"presentation" : 1,
					"fontname" : "Bradley Hand ITC TT Bold",
					"id" : "obj-10",
					"numinlets" : 1,
					"presentation_rect" : [ 11.0, 45.0, 79.0, 21.0 ],
					"fontsize" : 12.0,
					"numoutlets" : 0,
					"patching_rect" : [ 508.484741, 48.0, 95.0, 21.0 ]
				}

			}
, 			{
				"box" : 				{
					"maxclass" : "newobj",
					"text" : "loadmess 1",
					"fontname" : "Arial",
					"id" : "obj-7",
					"numinlets" : 1,
					"fontsize" : 10.435669,
					"numoutlets" : 1,
					"color" : [ 0.7, 0.7, 0.7, 1.0 ],
					"outlettype" : [ "" ],
					"patching_rect" : [ 388.484741, 5.0, 64.0, 18.0 ]
				}

			}
, 			{
				"box" : 				{
					"maxclass" : "newobj",
					"text" : "OpenSoundControl",
					"fontname" : "Arial",
					"id" : "obj-181",
					"numinlets" : 1,
					"fontsize" : 12.0,
					"numoutlets" : 3,
					"outlettype" : [ "", "", "OSCTimeTag" ],
					"patching_rect" : [ 290.484741, 108.0, 113.0, 20.0 ]
				}

			}
, 			{
				"box" : 				{
					"maxclass" : "newobj",
					"text" : "route text",
					"fontname" : "Arial",
					"id" : "obj-175",
					"numinlets" : 1,
					"fontsize" : 9.0,
					"numoutlets" : 2,
					"outlettype" : [ "", "" ],
					"patching_rect" : [ 422.0, 117.170654, 48.0, 17.0 ]
				}

			}
, 			{
				"box" : 				{
					"maxclass" : "textbutton",
					"presentation" : 1,
					"bgcolor" : [ 0.858824, 0.858824, 0.858824, 1.0 ],
					"bordercolor" : [ 0.694118, 0.694118, 0.694118, 1.0 ],
					"fontname" : "Arial",
					"border" : 1,
					"id" : "obj-176",
					"numinlets" : 1,
					"text" : "Port",
					"presentation_rect" : [ 116.0, 47.0, 45.0, 20.0 ],
					"bgovercolor" : [ 1.0, 1.0, 1.0, 1.0 ],
					"fontsize" : 12.0,
					"numoutlets" : 3,
					"outlettype" : [ "", "", "int" ],
					"patching_rect" : [ 290.484741, 4.0, 35.0, 23.0 ]
				}

			}
, 			{
				"box" : 				{
					"maxclass" : "textedit",
					"text" : "7009",
					"keymode" : 1,
					"presentation" : 1,
					"bordercolor" : [ 0.694118, 0.694118, 0.694118, 1.0 ],
					"fontname" : "Geneva",
					"border" : 1.0,
					"id" : "obj-177",
					"numinlets" : 1,
					"presentation_rect" : [ 186.217285, 47.008789, 56.0, 21.0 ],
					"fontsize" : 12.0,
					"numoutlets" : 4,
					"tabmode" : 0,
					"autoscroll" : 0,
					"outlettype" : [ "", "int", "", "" ],
					"wordwrap" : 0,
					"patching_rect" : [ 422.702026, 90.008789, 55.0, 22.0 ]
				}

			}
, 			{
				"box" : 				{
					"maxclass" : "newobj",
					"text" : "prepend set",
					"fontname" : "Arial",
					"id" : "obj-178",
					"numinlets" : 1,
					"fontsize" : 9.0,
					"numoutlets" : 1,
					"outlettype" : [ "" ],
					"patching_rect" : [ 410.0, 65.170654, 62.0, 17.0 ]
				}

			}
, 			{
				"box" : 				{
					"maxclass" : "newobj",
					"text" : "prepend port",
					"fontname" : "Arial",
					"id" : "obj-179",
					"numinlets" : 1,
					"fontsize" : 9.0,
					"numoutlets" : 1,
					"outlettype" : [ "" ],
					"patching_rect" : [ 290.0, 67.170654, 67.0, 17.0 ]
				}

			}
, 			{
				"box" : 				{
					"maxclass" : "newobj",
					"text" : "dialog What's the port ?",
					"fontname" : "Arial",
					"id" : "obj-180",
					"numinlets" : 2,
					"fontsize" : 9.0,
					"numoutlets" : 1,
					"outlettype" : [ "" ],
					"patching_rect" : [ 290.0, 35.170654, 117.0, 17.0 ]
				}

			}
, 			{
				"box" : 				{
					"maxclass" : "newobj",
					"text" : "udpreceive 7009 cnmat",
					"fontname" : "Arial",
					"id" : "obj-166",
					"numinlets" : 1,
					"fontsize" : 9.0,
					"numoutlets" : 1,
					"outlettype" : [ "" ],
					"patching_rect" : [ 290.484741, 89.0, 104.0, 17.0 ]
				}

			}
, 			{
				"box" : 				{
					"maxclass" : "led",
					"hint" : "Activate",
					"prototypename" : "Arial9-green",
					"presentation" : 1,
					"bgcolor" : [ 1.0, 1.0, 1.0, 0.0 ],
					"offcolor" : [ 0.694118, 0.694118, 0.694118, 1.0 ],
					"oncolor" : [ 1.0, 0.74902, 0.0, 1.0 ],
					"id" : "obj-58",
					"numinlets" : 1,
					"presentation_rect" : [ 256.0, 47.0, 20.253944, 20.253944 ],
					"numoutlets" : 1,
					"outlettype" : [ "int" ],
					"patching_rect" : [ 290.484741, 136.0, 20.253944, 20.253944 ]
				}

			}
, 			{
				"box" : 				{
					"maxclass" : "newobj",
					"text" : "OSC-route /Lax/freq /Lax/pause /Lax/start /Lax/seq",
					"fontname" : "Arial",
					"id" : "obj-182",
					"numinlets" : 1,
					"fontsize" : 12.0,
					"numoutlets" : 5,
					"outlettype" : [ "", "", "", "", "" ],
					"patching_rect" : [ 337.0, 149.0, 281.0, 20.0 ]
				}

			}
, 			{
				"box" : 				{
					"maxclass" : "panel",
					"presentation" : 1,
					"bgcolor" : [ 1.0, 1.0, 1.0, 1.0 ],
					"rounded" : 12,
					"border" : 1,
					"id" : "obj-496",
					"numinlets" : 1,
					"presentation_rect" : [ 1.0, 1.0, 287.0, 108.0 ],
					"background" : 1,
					"numoutlets" : 0,
					"patching_rect" : [ 533.0, 95.0, 41.0, 31.0 ]
				}

			}
 ],
		"lines" : [ 			{
				"patchline" : 				{
					"source" : [ "obj-182", 3 ],
					"destination" : [ "obj-12", 0 ],
					"hidden" : 0,
					"midpoints" : [  ]
				}

			}
, 			{
				"patchline" : 				{
					"source" : [ "obj-182", 2 ],
					"destination" : [ "obj-12", 0 ],
					"hidden" : 0,
					"midpoints" : [  ]
				}

			}
, 			{
				"patchline" : 				{
					"source" : [ "obj-182", 0 ],
					"destination" : [ "obj-141", 0 ],
					"hidden" : 0,
					"midpoints" : [ 346.5, 173.0, 113.5, 173.0 ]
				}

			}
, 			{
				"patchline" : 				{
					"source" : [ "obj-181", 1 ],
					"destination" : [ "obj-182", 0 ],
					"hidden" : 0,
					"midpoints" : [  ]
				}

			}
, 			{
				"patchline" : 				{
					"source" : [ "obj-176", 0 ],
					"destination" : [ "obj-180", 0 ],
					"hidden" : 0,
					"midpoints" : [  ]
				}

			}
, 			{
				"patchline" : 				{
					"source" : [ "obj-178", 0 ],
					"destination" : [ "obj-177", 0 ],
					"hidden" : 1,
					"midpoints" : [ 419.5, 86.0, 432.202026, 86.0 ]
				}

			}
, 			{
				"patchline" : 				{
					"source" : [ "obj-180", 0 ],
					"destination" : [ "obj-179", 0 ],
					"hidden" : 0,
					"midpoints" : [  ]
				}

			}
, 			{
				"patchline" : 				{
					"source" : [ "obj-180", 0 ],
					"destination" : [ "obj-178", 0 ],
					"hidden" : 0,
					"midpoints" : [ 299.5, 56.170593, 419.5, 56.170593 ]
				}

			}
, 			{
				"patchline" : 				{
					"source" : [ "obj-177", 0 ],
					"destination" : [ "obj-175", 0 ],
					"hidden" : 0,
					"midpoints" : [  ]
				}

			}
, 			{
				"patchline" : 				{
					"source" : [ "obj-175", 0 ],
					"destination" : [ "obj-179", 0 ],
					"hidden" : 0,
					"midpoints" : [ 431.5, 139.0, 406.484741, 139.0, 406.484741, 63.0, 299.5, 63.0 ]
				}

			}
, 			{
				"patchline" : 				{
					"source" : [ "obj-181", 0 ],
					"destination" : [ "obj-58", 0 ],
					"hidden" : 0,
					"midpoints" : [  ]
				}

			}
, 			{
				"patchline" : 				{
					"source" : [ "obj-7", 0 ],
					"destination" : [ "obj-180", 1 ],
					"hidden" : 0,
					"midpoints" : [  ]
				}

			}
, 			{
				"patchline" : 				{
					"source" : [ "obj-502", 0 ],
					"destination" : [ "obj-506", 0 ],
					"hidden" : 1,
					"midpoints" : [  ]
				}

			}
, 			{
				"patchline" : 				{
					"source" : [ "obj-506", 0 ],
					"destination" : [ "obj-341", 0 ],
					"hidden" : 0,
					"midpoints" : [  ]
				}

			}
, 			{
				"patchline" : 				{
					"source" : [ "obj-179", 0 ],
					"destination" : [ "obj-166", 0 ],
					"hidden" : 0,
					"midpoints" : [  ]
				}

			}
, 			{
				"patchline" : 				{
					"source" : [ "obj-166", 0 ],
					"destination" : [ "obj-181", 0 ],
					"hidden" : 0,
					"midpoints" : [  ]
				}

			}
, 			{
				"patchline" : 				{
					"source" : [ "obj-12", 1 ],
					"destination" : [ "obj-15", 0 ],
					"hidden" : 0,
					"midpoints" : [  ]
				}

			}
, 			{
				"patchline" : 				{
					"source" : [ "obj-12", 0 ],
					"destination" : [ "obj-16", 0 ],
					"hidden" : 0,
					"midpoints" : [ 489.780884, 322.0, 472.5, 322.0 ]
				}

			}
, 			{
				"patchline" : 				{
					"source" : [ "obj-16", 0 ],
					"destination" : [ "obj-341", 0 ],
					"hidden" : 0,
					"midpoints" : [ 472.5, 388.5, 146.5, 388.5 ]
				}

			}
, 			{
				"patchline" : 				{
					"source" : [ "obj-15", 0 ],
					"destination" : [ "obj-341", 0 ],
					"hidden" : 0,
					"midpoints" : [ 511.5, 347.0, 146.5, 347.0 ]
				}

			}
, 			{
				"patchline" : 				{
					"source" : [ "obj-17", 0 ],
					"destination" : [ "obj-15", 0 ],
					"hidden" : 0,
					"midpoints" : [ 524.5, 306.5, 511.5, 306.5 ]
				}

			}
, 			{
				"patchline" : 				{
					"source" : [ "obj-182", 2 ],
					"destination" : [ "obj-102", 0 ],
					"hidden" : 0,
					"midpoints" : [ 477.5, 221.5, 346.780884, 221.5 ]
				}

			}
, 			{
				"patchline" : 				{
					"source" : [ "obj-182", 3 ],
					"destination" : [ "obj-102", 0 ],
					"hidden" : 0,
					"midpoints" : [ 543.0, 221.5, 346.780884, 221.5 ]
				}

			}
, 			{
				"patchline" : 				{
					"source" : [ "obj-3", 0 ],
					"destination" : [ "obj-102", 0 ],
					"hidden" : 0,
					"midpoints" : [  ]
				}

			}
, 			{
				"patchline" : 				{
					"source" : [ "obj-20", 0 ],
					"destination" : [ "obj-19", 0 ],
					"hidden" : 0,
					"midpoints" : [  ]
				}

			}
, 			{
				"patchline" : 				{
					"source" : [ "obj-182", 0 ],
					"destination" : [ "obj-11", 0 ],
					"hidden" : 0,
					"midpoints" : [  ]
				}

			}
, 			{
				"patchline" : 				{
					"source" : [ "obj-11", 1 ],
					"destination" : [ "obj-3", 1 ],
					"hidden" : 0,
					"midpoints" : [ 360.0, 195.5, 397.5, 195.5 ]
				}

			}
, 			{
				"patchline" : 				{
					"source" : [ "obj-11", 0 ],
					"destination" : [ "obj-3", 0 ],
					"hidden" : 0,
					"midpoints" : [  ]
				}

			}
 ]
	}

}
